Putnik.ufo
<glyph name="parenright" format="2">
  <advance width="194"/>
  <unicode hex="0029"/>
  <outline>
    <contour>
      <point x="63.8242" y="443.664" type="curve" smooth="yes"/>
      <point x="67.9141" y="463.562"/>
      <point x="35.0352" y="477.068"/>
      <point x="40.7363" y="494.03" type="curve"/>
      <point x="42.752" y="490" type="line"/>
      <point x="44.7666" y="490" type="line"/>
      <point x="42.752" y="498.059" type="line"/>
      <point x="46.7812" y="492.016" type="line"/>
      <point x="48.7959" y="492.016" type="line"/>
      <point x="54.0537" y="509.088"/>
      <point x="69.5869" y="499.832"/>
      <point x="77" y="490" type="curve"/>
      <point x="83.0449" y="494.03" type="line"/>
      <point x="81.0293" y="485.971" type="line"/>
      <point x="103.19" y="447.693" type="line"/>
      <point x="109.264" y="431.576" type="line"/>
      <point x="113.293" y="428.503" type="line"/>
      <point x="113.293" y="426.488" type="line"/>
      <point x="113.293" y="424.474" type="line"/>
      <point x="109.264" y="424.474" type="line"/>
      <point x="109.264" y="422.459" type="line"/>
      <point x="109.264" y="420.445" type="line"/>
      <point x="121.352" y="402.312" type="line"/>
      <point x="117.321" y="398.283" type="line"/>
      <point x="138.698" y="391.537"/>
      <point x="141.529" y="366.034"/>
      <point x="141.912" y="347.971" type="curve"/>
      <point x="152.97" y="342.985" type="line"/>
      <point x="152.97" y="336.942" type="line"/>
      <point x="154.984" y="336.942" type="line"/>
      <point x="157" y="345" type="line"/>
      <point x="159.015" y="345" type="line"/>
      <point x="161.557" y="313.67" type="line"/>
      <point x="170.118" y="303.862"/>
      <point x="175.021" y="264.25"/>
      <point x="173.571" y="251.216" type="curve"/>
      <point x="166.645" y="223.011" type="line"/>
      <point x="166.423" y="203.294"/>
      <point x="185.846" y="150.06"/>
      <point x="157.6" y="140.411" type="curve"/>
      <point x="156.6" y="104.148" type="line"/>
      <point x="150.557" y="106.163" type="line"/>
      <point x="144.512" y="88.0312" type="line"/>
      <point x="132.424" y="84.002" type="line"/>
      <point x="134.439" y="77.959" type="line"/>
      <point x="132.424" y="77.959" type="line"/>
      <point x="130.409" y="86.0166" type="line"/>
      <point x="128.396" y="86.0166" type="line"/>
      <point x="128.396" y="57.8115" type="line"/>
      <point x="128.396" y="55.7969" type="line"/>
      <point x="126.381" y="43.709" type="line"/>
      <point x="108.27" y="52.4443"/>
      <point x="85.3828" y="4.18945"/>
      <point x="76.0146" y="-10.6855" type="curve"/>
      <point x="69.9717" y="-8.6709" type="line"/>
      <point x="74" y="-26.8027" type="line"/>
      <point x="46.4404" y="-46.5869"/>
      <point x="56.6143" y="-12.6709"/>
      <point x="57.8838" y="1.40234" type="curve"/>
      <point x="61.9121" y="-0.612305" type="line"/>
      <point x="61.4297" y="5.05664"/>
      <point x="59.374" y="12.4893"/>
      <point x="65.9424" y="13.4902" type="curve"/>
      <point x="67.6133" y="29.8066"/>
      <point x="83.6309" y="61.9238"/>
      <point x="98.1758" y="69.8994" type="curve"/>
      <point x="102.205" y="65.8711" type="line"/>
      <point x="98.1758" y="73.9287" type="line"/>
      <point x="108.249" y="84.002" type="line"/>
      <point x="127.308" y="143.28" type="line"/>
      <point x="136.596" y="140.959"/>
      <point x="135.391" y="164.363"/>
      <point x="138.352" y="171.484" type="curve" smooth="yes"/>
      <point x="141.132" y="178.151"/>
      <point x="141.409" y="179.37"/>
      <point x="141.409" y="187.602" type="curve"/>
      <point x="139.396" y="187.602" type="line"/>
      <point x="139.396" y="181.559" type="line"/>
      <point x="137.381" y="181.559" type="line"/>
      <point x="139.396" y="203.719" type="line"/>
      <point x="145.439" y="205.732" type="line"/>
      <point x="141.409" y="236.908" type="line"/>
      <point x="145.439" y="234.895" type="line"/>
      <point x="143.082" y="241.383"/>
      <point x="140.697" y="247.921"/>
      <point x="146.439" y="253.025" type="curve"/>
      <point x="140.396" y="283.246" type="line"/>
      <point x="138.381" y="283.246" type="line"/>
      <point x="136.366" y="267.128" type="line"/>
      <point x="131.293" y="248.996" type="line"/>
      <point x="136.108" y="232.706"/>
      <point x="137.71" y="190.092"/>
      <point x="113.132" y="201.704" type="curve"/>
      <point x="118.205" y="238.923" type="line"/>
      <point x="114.235" y="249.913"/>
      <point x="113.887" y="277.089"/>
      <point x="123.235" y="285.26" type="curve"/>
      <point x="117.235" y="287.274" type="line"/>
      <point x="117.235" y="289.289" type="line"/>
      <point x="121.235" y="301.377" type="line"/>
      <point x="121.235" y="303.392" type="line"/>
      <point x="115.205" y="301.377" type="line"/>
      <point x="122.22" y="321.522" type="line"/>
      <point x="116.19" y="321.522" type="line"/>
      <point x="116.714" y="333.232"/>
      <point x="110.787" y="330.175"/>
      <point x="105.649" y="340.786" type="curve" smooth="yes"/>
      <point x="96.3232" y="360.007"/>
      <point x="87.6797" y="373.939"/>
      <point x="87.9424" y="396.27" type="curve"/>
      <point x="81.8975" y="392.24" type="line"/>
      <point x="83.752" y="407.562"/>
      <point x="58.4463" y="417.5"/>
    </contour>
  </outline>
</glyph>
<glyph name="asterisk" format="2">
  <advance width="230"/>
  <unicode hex="002A"/>
  <outline>
    <contour>
      <point x="15.1143" y="254.496" type="line"/>
      <point x="20.1504" y="259.532" type="line"/>
      <point x="20.1504" y="261.211" type="line"/>
      <point x="30.2236" y="288.073" type="line"/>
      <point x="33.5811" y="286.395" type="line"/>
      <point x="33.5811" y="291.431" type="line"/>
      <point x="52.0488" y="293.109" type="line"/>
      <point x="55.4062" y="291.431" type="line"/>
      <point x="55.4062" y="286.395" type="line"/>
      <point x="60.208" y="288.738"/>
      <point x="62.458" y="289.395"/>
      <point x="65.4795" y="284.715" type="curve"/>
      <point x="70.5166" y="288.073" type="line"/>
      <point x="79.6152" y="275.525"/>
      <point x="90.7627" y="268.219"/>
      <point x="105.772" y="266.248" type="curve"/>
      <point x="107.451" y="294.788" type="line"/>
      <point x="98.6533" y="300.052"/>
      <point x="80.1523" y="300.895"/>
      <point x="77.0635" y="311.609" type="curve" smooth="yes"/>
      <point x="71.1709" y="332.018"/>
      <point x="120.328" y="331.199"/>
      <point x="130.484" y="324.707" type="curve" smooth="yes"/>
      <point x="140.373" y="318.383"/>
      <point x="134.447" y="289.411"/>
      <point x="132.634" y="279.679" type="curve"/>
      <point x="147.743" y="284.715" type="line"/>
      <point x="149.422" y="289.752" type="line"/>
      <point x="154.929" y="289.717"/>
      <point x="160.083" y="290.62"/>
      <point x="161.175" y="296.468" type="curve" smooth="yes"/>
      <point x="166.463" y="302.613"/>
      <point x="162.77" y="307.783"/>
      <point x="161.175" y="314.935" type="curve"/>
      <point x="167.89" y="321.65" type="line"/>
      <point x="191.394" y="311.018" type="line"/>
      <point x="203.146" y="296.468" type="line"/>
      <point x="204.674" y="278.336"/>
      <point x="198.764" y="281.205"/>
      <point x="183" y="278" type="curve"/>
      <point x="181.32" y="283.036" type="line"/>
      <point x="154.459" y="269.605" type="line"/>
      <point x="141.028" y="259.532" type="line"/>
      <point x="138.19" y="247.451"/>
      <point x="141.397" y="244.054"/>
      <point x="154.459" y="242.744" type="curve"/>
      <point x="172.02" y="207.624"/>
      <point x="195.205" y="276.868"/>
      <point x="209.861" y="236.028" type="curve"/>
      <point x="197.975" y="234.942"/>
      <point x="191.075" y="221.925"/>
      <point x="191.394" y="210.846" type="curve"/>
      <point x="189.715" y="209.167" type="line"/>
      <point x="183" y="207.488" type="line"/>
      <point x="186.357" y="204.13" type="line"/>
      <point x="182.109" y="201.57"/>
      <point x="178.467" y="198.578"/>
      <point x="174.605" y="202.451" type="curve"/>
      <point x="168.226" y="201.718"/>
      <point x="135.673" y="211.149"/>
      <point x="134.312" y="217.562" type="curve"/>
      <point x="127.598" y="215.882" type="line"/>
      <point x="129.276" y="202.451" type="line"/>
      <point x="136.612" y="203.866"/>
      <point x="147.693" y="203.454"/>
      <point x="152.78" y="197.415" type="curve"/>
      <point x="174.605" y="194.057" type="line"/>
      <point x="166.211" y="183.984" type="line"/>
      <point x="154.459" y="180.626" type="line"/>
      <point x="157.816" y="177.269" type="line"/>
      <point x="124.239" y="172.232" type="line"/>
      <point x="124.239" y="175.59" type="line"/>
      <point x="106.275" y="170.515"/>
      <point x="105" y="185.252"/>
      <point x="102.414" y="199.094" type="curve"/>
      <point x="107.669" y="207.087"/>
      <point x="104.681" y="218.853"/>
      <point x="102.414" y="227.634" type="curve"/>
      <point x="94.0205" y="220.919" type="line"/>
      <point x="88.9834" y="222.598" type="line"/>
      <point x="68.8369" y="190.699" type="line"/>
      <point x="70.5166" y="190.699" type="line"/>
      <point x="67.1582" y="189.021" type="line"/>
      <point x="72.1953" y="185.663" type="line"/>
      <point x="69.9961" y="165.857"/>
      <point x="52.7207" y="160.88"/>
      <point x="45.333" y="180.626" type="curve"/>
      <point x="48.6914" y="180.626" type="line"/>
      <point x="33.5811" y="197.415" type="line"/>
      <point x="30.2236" y="195.736" type="line"/>
      <point x="28.5449" y="204.13" type="line"/>
      <point x="33.5811" y="215.882" type="line"/>
      <point x="50.3701" y="227.634" type="line"/>
      <point x="63.8008" y="232.671" type="line"/>
      <point x="67.1582" y="234.35" type="line"/>
      <point x="67.1582" y="239.386" type="line"/>
      <point x="70.5166" y="237.707" type="line"/>
      <point x="77.2314" y="244.423" type="line"/>
      <point x="70.5166" y="257.854" type="line"/>
      <point x="47.0117" y="267.927" type="line"/>
      <point x="28.5449" y="246.102" type="line"/>
      <point x="18.4717" y="246.102" type="line"/>
      <point x="18.4717" y="254.496" type="line"/>
    </contour>
  </outline>
</glyph>
<glyph name="period" format="2">
  <advance width="169"/>
  <unicode hex="002E"/>
  <outline>
    <contour>
      <point x="53.6787" y="6.03027" type="line"/>
      <point x="44.8721" y="16.5312"/>
      <point x="41.6006" y="22.4443"/>
      <point x="41.5908" y="36.249" type="curve"/>
      <point x="47.6338" y="34.2354" type="line"/>
      <point x="51.4414" y="48.6914"/>
      <point x="61.1895" y="60.583"/>
      <point x="71.8096" y="70.4971" type="curve"/>
      <point x="88.1426" y="66.5049"/>
      <point x="91.8213" y="55.5547"/>
      <point x="89.9414" y="40.2783" type="curve"/>
      <point x="118.975" y="38.0625"/>
      <point x="105.939" y="16.2666"/>
      <point x="98" y="2" type="curve"/>
      <point x="83.8975" y="-10.0879" type="line"/>
      <point x="77.8535" y="-6.05762" type="line"/>
      <point x="75.8389" y="-10.0879" type="line"/>
      <point x="73.8242" y="-10.0879" type="line"/>
      <point x="59.7217" y="10.0596" type="line"/>
      <point x="55.6934" y="6.03027" type="line"/>
    </contour>
  </outline>
</glyph>
<glyph name="slash" format="2">
  <advance width="285"/>
  <unicode hex="002F"/>
  <outline>
    <contour>
      <point x="59.7764" y="-34.0234" type="line"/>
      <point x="56.5508" y="-18.8496" type="line"/>
      <point x="67.252" y="-5.24805" type="line"/>
      <point x="61.2686" y="7.23828"/>
      <point x="66.5527" y="38.7598"/>
      <point x="76.165" y="48.7549" type="curve"/>
      <point x="71.3682" y="50.001" type="line"/>
      <point x="70.9072" y="52.1689" type="line"/>
      <point x="79.1182" y="56.1807" type="line"/>
      <point x="93.9854" y="106.634" type="line"/>
      <point x="120.244" y="172.348" type="line"/>
      <point x="113.041" y="171.102" type="line"/>
      <point x="110.364" y="178.045"/>
      <point x="109.594" y="188.705"/>
      <point x="118.025" y="190.285" type="curve"/>
      <point x="114.014" y="198.496" type="line"/>
      <point x="132.002" y="215.133"/>
      <point x="125.89" y="252.635"/>
      <point x="149.724" y="264.991" type="curve"/>
      <point x="145.972" y="274.012"/>
      <point x="155.009" y="301.084"/>
      <point x="161.573" y="308.475" type="curve"/>
      <point x="157.833" y="322.87"/>
      <point x="170.223" y="328.104"/>
      <point x="175.818" y="339.732" type="curve" smooth="yes"/>
      <point x="179.858" y="348.115"/>
      <point x="178.169" y="357.557"/>
      <point x="178.694" y="366.488" type="curve"/>
      <point x="186.341" y="363.238"/>
      <point x="187.279" y="374.066"/>
      <point x="189.396" y="380.091" type="curve" smooth="yes"/>
      <point x="194.201" y="393.729"/>
      <point x="205.937" y="416.646"/>
      <point x="201.397" y="430.219" type="curve"/>
      <point x="207.9" y="431.601" type="line"/>
      <point x="207.53" y="448.581"/>
      <point x="213.251" y="473.371"/>
      <point x="225.943" y="485.281" type="curve"/>
      <point x="221.69" y="497.615"/>
      <point x="227.185" y="517.49"/>
      <point x="241.169" y="520.235" type="curve"/>
      <point x="240.247" y="524.569" type="line"/>
      <point x="242.415" y="525.03" type="line"/>
      <point x="243.336" y="520.695" type="line"/>
      <point x="248.919" y="526.413" type="line"/>
      <point x="249.977" y="510.778" type="line"/>
      <point x="276.774" y="485.427"/>
      <point x="235.855" y="431.292"/>
      <point x="229.015" y="403.78" type="curve" smooth="yes"/>
      <point x="225.671" y="390.312"/>
      <point x="225.112" y="369.595"/>
      <point x="213.974" y="360.395" type="curve"/>
      <point x="213" y="333" type="line"/>
      <point x="198.098" y="307.176" type="line"/>
      <point x="209.284" y="290.577"/>
      <point x="172.046" y="242.365"/>
      <point x="174.572" y="222.695" type="curve"/>
      <point x="131.98" y="105.932" type="line"/>
      <point x="135.205" y="90.7578" type="line"/>
      <point x="121.224" y="60.5977" type="line"/>
      <point x="125.235" y="52.3896" type="line"/>
      <point x="121.036" y="40.168" type="line"/>
      <point x="117.162" y="37.0801" type="line"/>
      <point x="114.994" y="36.6201" type="line"/>
      <point x="103.234" y="38.6494" type="line"/>
      <point x="102.91" y="29.5186" type="line"/>
      <point x="99.8203" y="33.3945" type="line"/>
      <point x="97.6514" y="32.9336" type="line"/>
      <point x="100.553" y="8.62598" type="line" smooth="yes"/>
      <point x="97.2002" y="3.61621"/>
      <point x="77.3291" y="-52.0107"/>
      <point x="68.4473" y="-32.1807" type="curve"/>
    </contour>
  </outline>
</glyph>
<glyph name="zero" format="2">
  <advance width="280"/>
  <unicode hex="0030"/>
  <outline>
    <contour>
      <point x="164.442" y="451.42" type="curve"/>
      <point x="159.259" y="449.691" type="line"/>
      <point x="152.347" y="442.781" type="line"/>
      <point x="149.842" y="434.509"/>
      <point x="142.86" y="430.279"/>
      <point x="135.067" y="427.23" type="curve"/>
      <point x="136.797" y="432.414" type="line"/>
      <point x="135.067" y="432.414" type="line"/>
      <point x="131.613" y="428.957" type="line"/>
      <point x="131.613" y="435.869" type="line"/>
      <point x="129.884" y="435.869" type="line"/>
      <point x="119.518" y="423.773" type="line" smooth="yes"/>
      <point x="111.31" y="409.798"/>
      <point x="102.083" y="369.688"/>
      <point x="88.415" y="360.578" type="curve"/>
      <point x="90.1436" y="355.395" type="line"/>
      <point x="83.2314" y="350.211" type="line"/>
      <point x="74.5928" y="324.293" type="line"/>
      <point x="72.8643" y="324.293" type="line"/>
      <point x="71.1377" y="331.203" type="line"/>
      <point x="69.4092" y="331.203" type="line"/>
      <point x="67.6807" y="310.469" type="line"/>
      <point x="64.2256" y="312.197" type="line"/>
      <point x="61.7031" y="301.979"/>
      <point x="57.2461" y="276.611"/>
      <point x="65.9551" y="269" type="curve"/>
      <point x="64.2256" y="235.449" type="line"/>
      <point x="64.4092" y="157.443" type="line"/>
      <point x="70.1113" y="150.027"/>
      <point x="69.4893" y="140.37"/>
      <point x="67.8643" y="131.525" type="curve"/>
      <point x="71.9248" y="132.539"/>
      <point x="72.374" y="130.771"/>
      <point x="67.8643" y="128.068" type="curve"/>
      <point x="67.8643" y="126.342" type="line"/>
      <point x="71.5426" y="112.549" type="line"/>
      <point x="73.1784" y="125.668"/>
      <point x="75" y="141.388"/>
      <point x="75" y="148" type="curve" smooth="yes"/>
      <point x="75" y="160"/>
      <point x="92" y="200"/>
      <point x="92" y="206" type="curve" smooth="yes"/>
      <point x="92" y="212"/>
      <point x="96" y="240"/>
      <point x="96" y="242" type="curve" smooth="yes"/>
      <point x="96" y="244"/>
      <point x="100" y="248"/>
      <point x="100" y="248" type="curve"/>
      <point x="100" y="248"/>
      <point x="114" y="268"/>
      <point x="112" y="274" type="curve" smooth="yes"/>
      <point x="110" y="280"/>
      <point x="118" y="290"/>
      <point x="118" y="296" type="curve" smooth="yes"/>
      <point x="118" y="302"/>
      <point x="142" y="368"/>
      <point x="152" y="384" type="curve" smooth="yes"/>
      <point x="162" y="400"/>
      <point x="156" y="410"/>
      <point x="160" y="422" type="curve" smooth="yes"/>
      <point x="161.678" y="427.035"/>
      <point x="164.765" y="431.717"/>
      <point x="167.782" y="435.457" type="curve" smooth="yes"/>
      <point x="166.734" y="441.121"/>
      <point x="165.622" y="446.468"/>
    </contour>
    <contour>
      <point x="199.544" y="521.744" type="curve" smooth="yes"/>
      <point x="200.86" y="521.798"/>
      <point x="202.221" y="521.549"/>
      <point x="203.63" y="520.91" type="curve" smooth="yes"/>
      <point x="209.937" y="518.044"/>
      <point x="204.029" y="508.367"/>
      <point x="204.616" y="503.256" type="curve" smooth="yes"/>
      <point x="206.552" y="486.063"/>
      <point x="214.395" y="443.82"/>
      <point x="209.366" y="426.691" type="curve"/>
      <point x="214.55" y="424.965" type="line"/>
      <point x="211.095" y="405.957" type="line"/>
      <point x="211.095" y="404.23" type="line"/>
      <point x="214.55" y="405.957" type="line"/>
      <point x="212.823" y="380.039" type="line"/>
      <point x="216.278" y="380.039" type="line"/>
      <point x="214.965" y="367.424"/>
      <point x="219.147" y="341.58"/>
      <point x="220.513" y="329.027" type="curve" smooth="yes"/>
      <point x="222.033" y="314.809"/>
      <point x="221.445" y="300.117"/>
      <point x="221.462" y="285.83" type="curve" smooth="yes"/>
      <point x="221.479" y="275.765"/>
      <point x="222.084" y="268.172"/>
      <point x="231.829" y="263.367" type="curve"/>
      <point x="224.917" y="219.449" type="line"/>
      <point x="215.673" y="221.759"/>
      <point x="218.657" y="181.584"/>
      <point x="218.19" y="175.898" type="curve" smooth="yes"/>
      <point x="218.001" y="173.599"/>
      <point x="214.733" y="132.794"/>
      <point x="214.733" y="130.531" type="curve" smooth="yes"/>
      <point x="214.733" y="126.116"/>
      <point x="219.866" y="120.025"/>
      <point x="218.19" y="114.98" type="curve" smooth="yes"/>
      <point x="216.221" y="109.093"/>
      <point x="211.278" y="106.427"/>
      <point x="211.278" y="99.4297" type="curve"/>
      <point x="213.007" y="99.4297" type="line"/>
      <point x="218.19" y="104.613" type="line"/>
      <point x="228.558" y="125.348" type="line"/>
      <point x="240.653" y="104.613" type="line"/>
      <point x="240.411" y="96.7441"/>
      <point x="239.234" y="89.499"/>
      <point x="230.284" y="89.0625" type="curve"/>
      <point x="230.526" y="83.1357"/>
      <point x="229.474" y="80.7236"/>
      <point x="223.374" y="80.4238" type="curve"/>
      <point x="220.074" y="69.2891"/>
      <point x="193.687" y="51.5342"/>
      <point x="181.815" y="51.0488" type="curve"/>
      <point x="183.544" y="39.8652" type="line"/>
      <point x="174.905" y="27.7695" type="line"/>
      <point x="173.177" y="27.7695" type="line"/>
      <point x="173.177" y="32.9531" type="line"/>
      <point x="171.448" y="32.9531" type="line"/>
      <point x="169.323" y="25.6992"/>
      <point x="165.143" y="31.8213"/>
      <point x="157.626" y="30.8594" type="curve"/>
      <point x="150.714" y="20.4922" type="line"/>
      <point x="152.442" y="29.1309" type="line"/>
      <point x="148.987" y="23.9473" type="line"/>
      <point x="138.62" y="10.125" type="line"/>
      <point x="138.62" y="13.5801" type="line"/>
      <point x="126.524" y="11.4844" type="line"/>
      <point x="110.974" y="-9.25" type="line"/>
      <point x="104.062" y="-9.25" type="line"/>
      <point x="105.79" y="4.57422" type="line"/>
      <point x="110.974" y="2.8457" type="line"/>
      <point x="114.429" y="13.2129" type="line"/>
      <point x="124.796" y="14.9414" type="line"/>
      <point x="123.069" y="21.8516" type="line"/>
      <point x="121.341" y="21.8516" type="line"/>
      <point x="121.341" y="18.3965" type="line"/>
      <point x="119.612" y="18.3965" type="line"/>
      <point x="116.157" y="25.3086" type="line"/>
      <point x="105.79" y="11.4844" type="line"/>
      <point x="83.3271" y="2.8457" type="line"/>
      <point x="74.6885" y="-14.4336" type="line"/>
      <point x="68.8828" y="-12.9824"/>
      <point x="59.8809" y="-39.6133"/>
      <point x="48.7705" y="-33.4395" type="curve" smooth="yes"/>
      <point x="42.0664" y="-29.7197"/>
      <point x="40.5459" y="-20.8428"/>
      <point x="38.4033" y="-14.4336" type="curve" smooth="yes"/>
      <point x="36.9863" y="-10.1631"/>
      <point x="41.1152" y="-8.0166"/>
      <point x="40.1299" y="-4.06641" type="curve" smooth="yes"/>
      <point x="38.2295" y="3.52734"/>
      <point x="36.2959" y="5.94141"/>
      <point x="33.2197" y="11.4844" type="curve" smooth="yes"/>
      <point x="31.3193" y="14.9189"/>
      <point x="35.5" y="19.5117"/>
      <point x="36.6748" y="21.8516" type="curve" smooth="yes"/>
      <point x="29.7627" y="42.5859" type="line"/>
      <point x="36.6943" y="110.797" type="line"/>
      <point x="31.5801" y="133.252" type="line"/>
      <point x="29.8525" y="148.803" type="line"/>
      <point x="31.5801" y="148.803" type="line"/>
      <point x="31.5801" y="145.348" type="line"/>
      <point x="33.3086" y="145.348" type="line"/>
      <point x="29.04" y="164.468"/>
      <point x="27.7852" y="261.199"/>
      <point x="31.3965" y="281.096" type="curve"/>
      <point x="24.2256" y="286.925"/>
      <point x="28.2871" y="296.003"/>
      <point x="30.7061" y="303.531" type="curve" smooth="yes"/>
      <point x="33.6787" y="312.78"/>
      <point x="42.0068" y="315.217"/>
      <point x="46.585" y="323.324" type="curve" smooth="yes"/>
      <point x="51.5791" y="332.194"/>
      <point x="54.1348" y="345.603"/>
      <point x="57.3135" y="355.395" type="curve" smooth="yes"/>
      <point x="64.2256" y="387.488" type="line"/>
      <point x="76.3213" y="399.584" type="line"/>
      <point x="79.7764" y="413.406" type="line"/>
      <point x="91.8721" y="428.957" type="line"/>
      <point x="97.0557" y="427.23" type="line"/>
      <point x="96.6758" y="434.943"/>
      <point x="99.8203" y="442.044"/>
      <point x="107.423" y="444.508" type="curve"/>
      <point x="108.356" y="450.645"/>
      <point x="109.963" y="453.265"/>
      <point x="116.062" y="454.875" type="curve"/>
      <point x="115.63" y="473.795"/>
      <point x="142.412" y="483.588"/>
      <point x="157.53" y="485.977" type="curve"/>
      <point x="159.259" y="477.338" type="line"/>
      <point x="160.988" y="477.338" type="line"/>
      <point x="162.714" y="487.705" type="line"/>
      <point x="181.722" y="498.072" type="line"/>
      <point x="181.722" y="508.439" type="line"/>
      <point x="186.649" y="512.354"/>
      <point x="192.438" y="521.452"/>
    </contour>
    <contour>
      <point x="185.177" y="260.342" type="line"/>
      <point x="184.931" y="259.912" type="line"/>
      <point x="185.177" y="259.912" type="line"/>
    </contour>
    <contour>
      <point x="185.177" y="260.342" type="line"/>
      <point x="186.905" y="263.367" type="line"/>
      <point x="185.177" y="263.367" type="line"/>
    </contour>
    <contour>
      <point x="184.931" y="259.912" type="line"/>
      <point x="183.448" y="259.912" type="line"/>
      <point x="182.155" y="292.293"/>
      <point x="179.65" y="340.546"/>
      <point x="174.945" y="384.279" type="curve"/>
      <point x="173.214" y="381.666"/>
      <point x="170.83" y="378.943"/>
      <point x="168" y="378" type="curve" smooth="yes"/>
      <point x="162" y="376"/>
      <point x="160" y="350"/>
      <point x="156" y="336" type="curve" smooth="yes"/>
      <point x="152" y="322"/>
      <point x="152" y="298"/>
      <point x="146" y="294" type="curve" smooth="yes"/>
      <point x="140" y="290"/>
      <point x="113.479" y="191.795"/>
      <point x="109" y="182" type="curve" smooth="yes"/>
      <point x="97.5039" y="156.855"/>
      <point x="87.4951" y="103.791"/>
      <point x="87" y="96" type="curve" smooth="yes"/>
      <point x="86.7413" y="91.9326"/>
      <point x="83.6313" y="84.7416"/>
      <point x="80.6425" y="78.6658" type="curve" smooth="yes"/>
      <point x="81.5322" y="70" type="line"/>
      <point x="83.6377" y="49.5" type="line"/>
      <point x="95.4922" y="37.6816" type="line"/>
      <point x="123.067" y="56.4102" type="line"/>
      <point x="126.525" y="58.1367" type="line"/>
      <point x="140.347" y="69.6875" type="line"/>
      <point x="155.988" y="90.4238" type="line"/>
      <point x="161.172" y="76.9668" type="line"/>
      <point x="168.081" y="92.5176" type="line"/>
      <point x="164.626" y="90.791" type="line"/>
      <point x="176.722" y="116.709" type="line"/>
      <point x="188.782" y="124.866"/>
      <point x="202.697" y="239.424"/>
      <point x="199" y="253" type="curve"/>
      <point x="190.36" y="253" type="line"/>
      <point x="181.722" y="221.178" type="line"/>
      <point x="179.993" y="233.271" type="line"/>
    </contour>
  </outline>
</glyph>
<glyph name="one" format="2">
  <advance width="267"/>
  <unicode hex="0031"/>
  <outline>
    <contour>
      <point x="162.741" y="521.077" type="line"/>
      <point x="168.736" y="516.611" type="line"/>
      <point x="181.377" y="520.101" type="line"/>
      <point x="185.987" y="370.367" type="line"/>
      <point x="181.848" y="370.584" type="line"/>
      <point x="186.322" y="337.128" type="line"/>
      <point x="186.214" y="335.058" type="line"/>
      <point x="181.638" y="326.993" type="line"/>
      <point x="179.568" y="327.102" type="line"/>
      <point x="179.894" y="333.312" type="line"/>
      <point x="177.822" y="333.421" type="line"/>
      <point x="180.036" y="298.009" type="line"/>
      <point x="178.6" y="269.015" type="line"/>
      <point x="174.459" y="269.232" type="line"/>
      <point x="177.731" y="252.45" type="line"/>
      <point x="173.468" y="219.783" type="line"/>
      <point x="187.094" y="202.458" type="line"/>
      <point x="182.192" y="188.181" type="line"/>
      <point x="183.287" y="169.437" type="line"/>
      <point x="179.254" y="171.725" type="line"/>
      <point x="180.692" y="163.791"/>
      <point x="182.549" y="145.61"/>
      <point x="175.882" y="139.986" type="curve"/>
      <point x="174.579" y="115.138" type="line"/>
      <point x="174.471" y="113.067" type="line"/>
      <point x="184.226" y="103.755"/>
      <point x="181.736" y="84.8916"/>
      <point x="170.555" y="77.9756" type="curve"/>
      <point x="172.021" y="66.3594"/>
      <point x="176.233" y="40.4531"/>
      <point x="166.097" y="32.5312" type="curve"/>
      <point x="162.942" y="11.9336" type="line"/>
      <point x="163.275" y="-21.3047" type="line"/>
      <point x="146.82" y="-11.3311"/>
      <point x="148.137" y="10.0938"/>
      <point x="138.856" y="23.5771" type="curve"/>
      <point x="141.786" y="79.4834" type="line"/>
      <point x="137.646" y="79.7002" type="line"/>
      <point x="137.754" y="81.7715" type="line"/>
      <point x="137.862" y="83.8418" type="line"/>
      <point x="138.409" y="108.729" type="line"/>
      <point x="138.755" y="158.895" type="line"/>
      <point x="139.363" y="198.73" type="line"/>
      <point x="139.472" y="200.801" type="line"/>
      <point x="135.549" y="205.159" type="line"/>
      <point x="140.449" y="219.437" type="line"/>
      <point x="138.379" y="219.545" type="line"/>
      <point x="138.162" y="215.404" type="line"/>
      <point x="136.091" y="215.513" type="line"/>
      <point x="142.751" y="254.283" type="line"/>
      <point x="143.619" y="270.849" type="line" smooth="yes"/>
      <point x="141.701" y="278.146"/>
      <point x="143.643" y="287.669"/>
      <point x="144.081" y="295.148" type="curve" smooth="yes"/>
      <point x="145.038" y="311.51"/>
      <point x="151.581" y="327.811"/>
      <point x="143.056" y="343.549" type="curve"/>
      <point x="143.164" y="345.618" type="line"/>
      <point x="149.547" y="353.299"/>
      <point x="152.476" y="361.6"/>
      <point x="146.538" y="370.357" type="curve"/>
      <point x="149.26" y="382.672" type="line"/>
      <point x="147.189" y="382.78" type="line"/>
      <point x="138.255" y="370.791" type="line"/>
      <point x="136.402" y="375.042" type="line"/>
      <point x="134.332" y="375.15" type="line"/>
      <point x="132.62" y="364.822"/>
      <point x="127.554" y="358.2"/>
      <point x="116.79" y="357.383" type="curve"/>
      <point x="109.858" y="343.88"/>
      <point x="93.5635" y="328.511"/>
      <point x="77.8906" y="328.277" type="curve"/>
      <point x="76.2539" y="336.667" type="line"/>
      <point x="107.087" y="370.349" type="line"/>
      <point x="105.343" y="376.669" type="line" smooth="yes"/>
      <point x="108.824" y="379.215"/>
      <point x="115.567" y="388.591"/>
      <point x="108.063" y="388.984" type="curve"/>
      <point x="108.172" y="391.055" type="line"/>
      <point x="129.53" y="402.394" type="line"/>
      <point x="122.994" y="423.335"/>
      <point x="153.708" y="427.862"/>
      <point x="152.732" y="448.932" type="curve"/>
      <point x="116.544" y="417.068" type="line"/>
      <point x="67.0957" y="359.987" type="line"/>
      <point x="60.7744" y="358.242" type="line"/>
      <point x="54.6719" y="360.638" type="line"/>
      <point x="52.8672" y="351.157"/>
      <point x="48.2949" y="345.957"/>
      <point x="39.2002" y="342.763" type="curve"/>
      <point x="37.4561" y="349.083" type="line"/>
      <point x="26.7764" y="343.413" type="line"/>
      <point x="25.3311" y="354.609"/>
      <point x="26.502" y="359.804"/>
      <point x="34.291" y="367.935" type="curve"/>
      <point x="30.041" y="366.082" type="line"/>
      <point x="42.791" y="371.643" type="line"/>
      <point x="38.8662" y="376" type="line"/>
      <point x="38.9746" y="378.071" type="line"/>
      <point x="45.0771" y="375.675" type="line"/>
      <point x="39.083" y="380.142" type="line"/>
      <point x="56.8428" y="402.05" type="line"/>
      <point x="91.4912" y="429.303" type="line"/>
      <point x="100.099" y="435.08" type="line"/>
      <point x="101.709" y="447.316"/>
      <point x="113.258" y="456.354"/>
      <point x="124.286" y="460.804" type="curve"/>
      <point x="122.433" y="465.055" type="line"/>
      <point x="126.574" y="464.837" type="line"/>
      <point x="127.866" y="472.844"/>
      <point x="131.186" y="478.696"/>
      <point x="139.758" y="478.68" type="curve"/>
      <point x="136.158" y="489.25" type="line"/>
      <point x="142.153" y="484.783" type="line"/>
      <point x="142.479" y="490.995" type="line"/>
      <point x="159.695" y="502.55" type="line"/>
      <point x="158.058" y="510.942" type="line"/>
      <point x="162.198" y="510.726" type="line"/>
    </contour>
  </outline>
</glyph>
<glyph name="three" format="2">
  <advance width="271"/>
  <unicode hex="0033"/>
  <outline>
    <contour>
      <point x="55.417" y="444.122" type="line"/>
      <point x="24.623" y="436.02"/>
      <point x="49.4033" y="501.822"/>
      <point x="59.3564" y="512.252" type="curve" smooth="yes"/>
      <point x="72.9502" y="526.497"/>
      <point x="86.7852" y="515.65"/>
      <point x="101.655" y="511.002" type="curve" smooth="yes"/>
      <point x="127.752" y="502.849"/>
      <point x="173.68" y="505.758"/>
      <point x="200.184" y="504.739" type="curve" smooth="yes"/>
      <point x="207.063" y="504.475"/>
      <point x="214.462" y="497.165"/>
      <point x="213.963" y="488.455" type="curve" smooth="yes"/>
      <point x="213.353" y="477.579"/>
      <point x="202.44" y="470.846"/>
      <point x="198.371" y="461.862" type="curve" smooth="yes"/>
      <point x="189.53" y="442.335"/>
      <point x="162.633" y="408.153"/>
      <point x="153.349" y="388.047" type="curve" smooth="yes"/>
      <point x="149.724" y="380.2"/>
      <point x="112.958" y="364.94"/>
      <point x="115.011" y="355.601" type="curve" smooth="yes"/>
      <point x="117.268" y="345.284"/>
      <point x="155.376" y="350.939"/>
      <point x="163.033" y="350.896" type="curve" smooth="yes"/>
      <point x="177.33" y="350.812"/>
      <point x="181.657" y="340.776"/>
      <point x="193.568" y="336.731" type="curve" smooth="yes"/>
      <point x="199.153" y="334.834"/>
      <point x="206.423" y="342.78"/>
      <point x="211.102" y="336.434" type="curve" smooth="yes"/>
      <point x="215.467" y="330.512"/>
      <point x="215.263" y="316.841"/>
      <point x="216.558" y="309.379" type="curve" smooth="yes"/>
      <point x="218.703" y="297.01"/>
      <point x="226.489" y="283.104"/>
      <point x="214.819" y="274.415" type="curve"/>
      <point x="218.204" y="251.865"/>
      <point x="203.74" y="217.369"/>
      <point x="216.669" y="197.932" type="curve"/>
      <point x="216.669" y="195.746" type="line"/>
      <point x="216.669" y="193.561" type="line"/>
      <point x="204.684" y="174.87"/>
      <point x="217.557" y="146.826"/>
      <point x="215.966" y="126.818" type="curve" smooth="yes"/>
      <point x="214.098" y="103.176"/>
      <point x="199.949" y="83.168"/>
      <point x="198.174" y="59.0762" type="curve"/>
      <point x="203.111" y="62.8975"/>
      <point x="208.567" y="73"/>
      <point x="214.764" y="72.9824" type="curve" smooth="yes"/>
      <point x="220.035" y="72.9697"/>
      <point x="231.132" y="47.2383"/>
      <point x="229.319" y="42.2959" type="curve" smooth="yes"/>
      <point x="225.491" y="31.835"/>
      <point x="211.269" y="21.5811"/>
      <point x="204.24" y="13.8105" type="curve" smooth="yes"/>
      <point x="190.868" y="-0.999023"/>
      <point x="164.642" y="-20.168"/>
      <point x="152.49" y="-36.4502" type="curve" smooth="yes"/>
      <point x="147.793" y="-42.7275"/>
      <point x="137.583" y="-56.1455"/>
      <point x="129.834" y="-56.0186" type="curve" smooth="yes"/>
      <point x="116.758" y="-55.8066"/>
      <point x="168.768" y="-20.1719"/>
      <point x="146.221" y="-13.8848" type="curve" smooth="yes"/>
      <point x="109.397" y="-3.61621"/>
      <point x="42.4512" y="14.7139"/>
      <point x="36.9033" y="71.1475" type="curve"/>
      <point x="12.8594" y="106.111" type="line"/>
      <point x="20.2578" y="108.297" type="line"/>
      <point x="24.5928" y="102.442" type="line"/>
      <point x="23.957" y="106.111" type="line"/>
      <point x="48" y="93" type="line"/>
      <point x="38.7715" y="70.6475"/>
      <point x="104.939" y="14.2979"/>
      <point x="122.14" y="18.417" type="curve" smooth="yes"/>
      <point x="168.803" y="29.5928"/>
      <point x="187.372" y="111.701"/>
      <point x="187.816" y="155.598" type="curve" smooth="yes"/>
      <point x="187.965" y="170.725"/>
      <point x="193.291" y="194.083"/>
      <point x="185.227" y="206.672" type="curve"/>
      <point x="185.227" y="208.857" type="line"/>
      <point x="191.257" y="218.252"/>
      <point x="191.714" y="238.495"/>
      <point x="192.625" y="250.377" type="curve" smooth="yes"/>
      <point x="193.809" y="265.812"/>
      <point x="178.399" y="283.605"/>
      <point x="172" y="298" type="curve" smooth="yes"/>
      <point x="161.698" y="321.186"/>
      <point x="126.484" y="325.16"/>
      <point x="108.298" y="317.521" type="curve" smooth="yes"/>
      <point x="100.382" y="314.195"/>
      <point x="83.624" y="275.796"/>
      <point x="71.8613" y="293.217" type="curve" smooth="yes"/>
      <point x="59.8203" y="311.033"/>
      <point x="100.627" y="361.896"/>
      <point x="104.548" y="381.491" type="curve"/>
      <point x="87.3105" y="370.467"/>
      <point x="70.0303" y="332.768"/>
      <point x="58.748" y="313.749" type="curve" smooth="yes"/>
      <point x="55.8447" y="308.865"/>
      <point x="53.8652" y="295.443"/>
      <point x="49.0381" y="293.452" type="curve" smooth="yes"/>
      <point x="36.0547" y="288.107"/>
      <point x="37.627" y="309.333"/>
      <point x="41.8623" y="316.557" type="curve" smooth="yes"/>
      <point x="55.7705" y="340.252"/>
      <point x="84.2324" y="363.853"/>
      <point x="94.4229" y="390.232" type="curve" smooth="yes"/>
      <point x="101.895" y="409.571"/>
      <point x="135.446" y="440.857"/>
      <point x="144.693" y="459.181" type="curve" smooth="yes"/>
      <point x="150.427" y="470.535"/>
      <point x="161.616" y="469.406"/>
      <point x="164.742" y="457.234" type="curve"/>
      <point x="189.84" y="472.85"/>
      <point x="132.967" y="477.443"/>
      <point x="123.849" y="476.707" type="curve" smooth="yes"/>
      <point x="108.165" y="475.437"/>
      <point x="85.9521" y="480.629"/>
      <point x="72.0996" y="471.036" type="curve" smooth="yes"/>
      <point x="63.8691" y="465.339"/>
      <point x="61.0771" y="454.599"/>
      <point x="53.5684" y="448.493" type="curve"/>
    </contour>
  </outline>
</glyph>
<glyph name="five" format="2">
  <advance width="357"/>
  <unicode hex="0035"/>
  <outline>
    <contour>
      <point x="52.9766" y="497.294" type="line"/>
      <point x="77.5068" y="500.79" type="line"/>
      <point x="100.666" y="491.355" type="line"/>
      <point x="181.53" y="482.779" type="line"/>
      <point x="191.898" y="482.779" type="line"/>
      <point x="223" y="489" type="line"/>
      <point x="235.44" y="482.779" type="line"/>
      <point x="233.367" y="489" type="line"/>
      <point x="249.955" y="486.927" type="line"/>
      <point x="264.469" y="491.074" type="line"/>
      <point x="262.396" y="486.927" type="line"/>
      <point x="285.203" y="493.146" type="line"/>
      <point x="295.57" y="486.927" type="line"/>
      <point x="291.873" y="466.76"/>
      <point x="262.8" y="468.905"/>
      <point x="247.881" y="476.559" type="curve"/>
      <point x="245.808" y="470.339" type="line"/>
      <point x="239.588" y="472.412" type="line"/>
      <point x="247.881" y="462.045" type="line"/>
      <point x="247.881" y="459.971" type="line"/>
      <point x="209.966" y="461.797" type="line"/>
      <point x="179.457" y="464.118" type="line"/>
      <point x="168.925" y="452.844"/>
      <point x="158.263" y="460.598"/>
      <point x="145.088" y="459.918" type="curve" smooth="yes"/>
      <point x="138.37" y="459.571"/>
      <point x="132.487" y="456.256"/>
      <point x="125.548" y="456.975" type="curve" smooth="yes"/>
      <point x="111.444" y="458.438"/>
      <point x="97.1201" y="470.227"/>
      <point x="98.5195" y="447.53" type="curve"/>
      <point x="117.18" y="457.898" type="line"/>
      <point x="144.209" y="445.457" type="line"/>
      <point x="146.283" y="445.457" type="line"/>
      <point x="150.429" y="449.604" type="line"/>
      <point x="154.576" y="445.457" type="line"/>
      <point x="156.649" y="451.678" type="line"/>
      <point x="167.017" y="447.53" type="line"/>
      <point x="169.09" y="453.751" type="line"/>
      <point x="216.429" y="451.339" type="line"/>
      <point x="237.515" y="445.457" type="line"/>
      <point x="229.22" y="445.457" type="line"/>
      <point x="229.22" y="435.09" type="line"/>
      <point x="227.146" y="435.09" type="line"/>
      <point x="227.146" y="443.385" type="line"/>
      <point x="225.074" y="443.385" type="line" smooth="yes"/>
      <point x="221.121" y="438.686"/>
      <point x="215.205" y="436.781"/>
      <point x="210.559" y="441.311" type="curve"/>
      <point x="200.191" y="435.09" type="line"/>
      <point x="177.385" y="437.164" type="line"/>
      <point x="171.164" y="433.017" type="line"/>
      <point x="169.09" y="439.237" type="line"/>
      <point x="158.724" y="437.164" type="line"/>
      <point x="150.27" y="425.166"/>
      <point x="111.029" y="427.947"/>
      <point x="98.5195" y="433.017" type="curve"/>
      <point x="96.4463" y="397.768" type="line"/>
      <point x="98.5195" y="397.768" type="line"/>
      <point x="98.5195" y="401.915" type="line"/>
      <point x="100.594" y="401.915" type="line"/>
      <point x="100.585" y="387.977"/>
      <point x="92.7656" y="357.894"/>
      <point x="106.813" y="349.299" type="curve"/>
      <point x="104.739" y="328.564" type="line"/>
      <point x="131.768" y="332.712" type="line"/>
      <point x="162.869" y="347.226" type="line"/>
      <point x="188.104" y="347.735" type="line"/>
      <point x="239.588" y="332.712" type="line"/>
      <point x="238.027" y="317.557"/>
      <point x="229.546" y="318.706"/>
      <point x="216.779" y="314.051" type="curve"/>
      <point x="214.706" y="324.418" type="line"/>
      <point x="164.943" y="322.345" type="line"/>
      <point x="146.313" y="319.641" type="line"/>
      <point x="108.887" y="305.757" type="line"/>
      <point x="119.327" y="299.536" type="line"/>
      <point x="121.4" y="299.536" type="line"/>
      <point x="119.327" y="303.684" type="line"/>
      <point x="127.622" y="307.831" type="line"/>
      <point x="129.695" y="307.831" type="line"/>
      <point x="147.162" y="309.23" type="line"/>
      <point x="177.385" y="307.831" type="line"/>
      <point x="179.717" y="315.445"/>
      <point x="182.42" y="316.96"/>
      <point x="189.825" y="314.051" type="curve"/>
      <point x="191.898" y="320.271" type="line"/>
      <point x="212.632" y="316.124" type="line"/>
      <point x="223" y="305.757" type="line" smooth="yes"/>
      <point x="225.417" y="298.064"/>
      <point x="243.061" y="285.022"/>
      <point x="249.955" y="285.022" type="curve"/>
      <point x="273.057" y="231.113" type="line"/>
      <point x="270.982" y="224.893" type="line"/>
      <point x="273.057" y="224.893" type="line"/>
      <point x="274.408" y="239.635"/>
      <point x="266.739" y="252.334"/>
      <point x="278.35" y="264.287" type="curve"/>
      <point x="280.423" y="260.142" type="line"/>
      <point x="282.497" y="260.142" type="line"/>
      <point x="290.791" y="264.287" type="line"/>
      <point x="294.938" y="262.215" type="line"/>
      <point x="294.938" y="253.921" type="line"/>
      <point x="301.836" y="252.967"/>
      <point x="300.789" y="247.324"/>
      <point x="299.084" y="241.48" type="curve" smooth="yes"/>
      <point x="301.599" y="216.6" type="line"/>
      <point x="301.599" y="210.378" type="line"/>
      <point x="303.672" y="210.378" type="line"/>
      <point x="303.672" y="216.6" type="line"/>
      <point x="305.746" y="216.6" type="line"/>
      <point x="305.746" y="210.378" type="line"/>
      <point x="307.819" y="210.378" type="line"/>
      <point x="307.819" y="214.525" type="line"/>
      <point x="309.893" y="214.525" type="line"/>
      <point x="302.279" y="86.3984" type="line"/>
      <point x="293.938" y="65.6328" type="line"/>
      <point x="291.863" y="65.6328" type="line"/>
      <point x="291.863" y="71.8525" type="line"/>
      <point x="289.791" y="71.8525" type="line"/>
      <point x="289.791" y="63.5596" type="line"/>
      <point x="282.457" y="65.3926"/>
      <point x="284.706" y="32.9199"/>
      <point x="281.057" y="24.1631" type="curve" smooth="yes"/>
      <point x="279.027" y="19.293"/>
      <point x="273.071" y="16.4902"/>
      <point x="270.689" y="11.7227" type="curve" smooth="yes"/>
      <point x="266.849" y="4.04395"/>
      <point x="268.019" y="-15.0322"/>
      <point x="256.176" y="-11.085" type="curve"/>
      <point x="252.028" y="-21.4521" type="line"/>
      <point x="245.808" y="-21.4521" type="line"/>
      <point x="243.734" y="-15.2314" type="line"/>
      <point x="237.515" y="-17.3057" type="line"/>
      <point x="235.44" y="-11.085" type="line"/>
      <point x="233.367" y="-11.085" type="line" smooth="yes"/>
      <point x="231.734" y="-15.3291"/>
      <point x="230.853" y="-15.3291"/>
      <point x="229.22" y="-11.085" type="curve" smooth="yes"/>
      <point x="227.146" y="-11.085" type="line"/>
      <point x="227.146" y="-19.3789" type="line"/>
      <point x="210.559" y="-27.6719" type="line"/>
      <point x="206.412" y="-23.5264" type="line"/>
      <point x="202.266" y="-31.8193" type="line"/>
      <point x="200.191" y="-31.8193" type="line"/>
      <point x="193.971" y="-19.3789" type="line"/>
      <point x="191.898" y="-19.3789" type="line"/>
      <point x="189.825" y="-27.6719" type="line"/>
      <point x="183.604" y="-23.5264" type="line"/>
      <point x="181.53" y="-29.7461" type="line"/>
      <point x="179.457" y="-29.7461" type="line"/>
      <point x="179.457" y="-25.5986" type="line"/>
      <point x="177.385" y="-25.5986" type="line"/>
      <point x="179.457" y="-35.9668" type="line"/>
      <point x="177.385" y="-35.9668" type="line"/>
      <point x="160.797" y="-21.4521" type="line"/>
      <point x="150.956" y="-22.9072"/>
      <point x="141.041" y="-19.9502"/>
      <point x="135.915" y="-11.085" type="curve"/>
      <point x="111.034" y="-13.1582" type="line"/>
      <point x="100.666" y="-4.86523" type="line"/>
      <point x="92.6172" y="-9.66602"/>
      <point x="84.8164" y="-5.03516"/>
      <point x="82.0059" y="3.42969" type="curve"/>
      <point x="64.2607" y="-1.33984"/>
      <point x="51.3379" y="23.3193"/>
      <point x="36.3887" y="30.3838" type="curve"/>
      <point x="37.7061" y="44.8906"/>
      <point x="44.7314" y="51.21"/>
      <point x="59.1973" y="46.9717" type="curve"/>
      <point x="73.7119" y="51.1191" type="line"/>
      <point x="82.0059" y="30.3838" type="line"/>
      <point x="84.0781" y="30.3838" type="line"/>
      <point x="86.498" y="35.2217" type="line"/>
      <point x="100.32" y="20.3633" type="line"/>
      <point x="113.107" y="21.4004" type="line"/>
      <point x="135.915" y="12.7598" type="line"/>
      <point x="160.797" y="7.57715" type="line"/>
      <point x="160.797" y="15.8701" type="line"/>
      <point x="162.869" y="15.8701" type="line"/>
      <point x="164.943" y="9.64941" type="line"/>
      <point x="202.266" y="13.7969" type="line"/>
      <point x="202.266" y="1.35645" type="line"/>
      <point x="204.339" y="-0.717773" type="line"/>
      <point x="208.486" y="-0.717773" type="line"/>
      <point x="214.275" y="9.77637"/>
      <point x="223.781" y="22.2959"/>
      <point x="232.992" y="30.085" type="curve" smooth="yes"/>
      <point x="240.399" y="36.3506"/>
      <point x="248.901" y="35.4697"/>
      <point x="247.881" y="46.9717" type="curve" smooth="yes"/>
      <point x="252.028" y="59.4121" type="line"/>
      <point x="256.176" y="73.9258" type="line"/>
      <point x="252.028" y="82.2207" type="line"/>
      <point x="260.321" y="98.8086" type="line"/>
      <point x="262.396" y="162.689" type="line"/>
      <point x="256.607" y="163.674"/>
      <point x="259.699" y="171.097"/>
      <point x="258.084" y="176.349" type="curve" smooth="yes"/>
      <point x="254.419" y="188.271"/>
      <point x="240.877" y="216.646"/>
      <point x="247.881" y="226.966" type="curve"/>
      <point x="235.44" y="233.186" type="line"/>
      <point x="237.515" y="245.627" type="line"/>
      <point x="237.515" y="247.701" type="line"/>
      <point x="216.668" y="275.984" type="line"/>
      <point x="196.045" y="287.096" type="line"/>
      <point x="181.53" y="276.729" type="line"/>
      <point x="175.311" y="274.655" type="line"/>
      <point x="157.46" y="285.36"/>
      <point x="118.969" y="269.027"/>
      <point x="102.955" y="258.401" type="curve" smooth="yes"/>
      <point x="93.1123" y="251.87"/>
      <point x="88.9697" y="243.346"/>
      <point x="75.7852" y="245.627" type="curve"/>
      <point x="72.7686" y="238.005"/>
      <point x="70.0254" y="231.474"/>
      <point x="61.2715" y="231.113" type="curve"/>
      <point x="59.6436" y="217.921"/>
      <point x="56.75" y="207.393"/>
      <point x="42.6094" y="204.157" type="curve"/>
      <point x="39.4121" y="209.986"/>
      <point x="34.998" y="215.604"/>
      <point x="40.5361" y="220.745" type="curve"/>
      <point x="40.5361" y="222.819" type="line"/>
      <point x="35.0586" y="225.693"/>
      <point x="35.5625" y="235.635"/>
      <point x="37.0244" y="241.48" type="curve" smooth="yes"/>
      <point x="40.5869" y="255.732"/>
      <point x="49.5967" y="271.469"/>
      <point x="63.418" y="276.729" type="curve"/>
      <point x="67.5645" y="291.243" type="line" smooth="yes"/>
      <point x="65.6592" y="300.881"/>
      <point x="64.0479" y="325.983"/>
      <point x="71.7119" y="332.712" type="curve"/>
      <point x="70.8779" y="401.915" type="line"/>
      <point x="67.5645" y="470.339" type="line"/>
      <point x="58.5684" y="475.236"/>
      <point x="56.585" y="480.699"/>
      <point x="57.124" y="491.074" type="curve"/>
      <point x="55.0508" y="491.074" type="line"/>
      <point x="55.0508" y="486.927" type="line"/>
      <point x="52.9766" y="486.927" type="line"/>
    </contour>
  </outline>
</glyph>
<glyph name="seven" format="2">
  <advance width="316"/>
  <unicode hex="0037"/>
  <outline>
    <contour>
      <point x="26.9043" y="492.706" type="line"/>
      <point x="33.8096" y="491.938"/>
      <point x="40.4023" y="496.296"/>
      <point x="47.6387" y="496.507" type="curve" smooth="yes"/>
      <point x="56.0146" y="496.751"/>
      <point x="67.4395" y="492.521"/>
      <point x="75.2773" y="494.088" type="curve" smooth="yes"/>
      <point x="81.8301" y="495.398"/>
      <point x="83.4053" y="503.165"/>
      <point x="91.1807" y="502.728" type="curve" smooth="yes"/>
      <point x="103.933" y="502.009"/>
      <point x="122.428" y="502.835"/>
      <point x="134.723" y="499.617" type="curve" smooth="yes"/>
      <point x="139.202" y="498.448"/>
      <point x="141.462" y="493.496"/>
      <point x="145.774" y="492.36" type="curve" smooth="yes"/>
      <point x="160.642" y="488.45"/>
      <point x="186.808" y="493.384"/>
      <point x="199" y="501" type="curve"/>
      <point x="219.59" y="488.656"/>
      <point x="254.756" y="508.802"/>
      <point x="273.644" y="488.56" type="curve"/>
      <point x="275.718" y="492.706" type="line"/>
      <point x="277.791" y="492.706" type="line"/>
      <point x="279.864" y="484.412" type="line"/>
      <point x="275.718" y="486.486" type="line"/>
      <point x="273.644" y="459.53" type="line"/>
      <point x="280.425" y="463.849"/>
      <point x="288.843" y="460.833"/>
      <point x="286.416" y="451.206" type="curve" smooth="yes"/>
      <point x="283.721" y="440.472"/>
      <point x="272.919" y="423.28"/>
      <point x="263.277" y="418.062" type="curve"/>
      <point x="264.065" y="408.299"/>
      <point x="258.384" y="391.31"/>
      <point x="250.837" y="384.887" type="curve"/>
      <point x="228.934" y="322.364" type="line"/>
      <point x="222.028" y="307.39" type="line"/>
      <point x="224.102" y="292.876" type="line"/>
      <point x="219.954" y="294.948" type="line"/>
      <point x="205.44" y="203.717" type="line"/>
      <point x="199.221" y="201.644" type="line"/>
      <point x="197.147" y="205.791" type="line"/>
      <point x="195.073" y="205.791" type="line"/>
      <point x="191.362" y="163.235"/>
      <point x="157.854" y="127.958"/>
      <point x="157.751" y="85.5312" type="curve"/>
      <point x="151.531" y="83.458" type="line"/>
      <point x="154.642" y="56.0137"/>
      <point x="126.318" y="31.7314"/>
      <point x="120.43" y="6.74023" type="curve"/>
      <point x="110.062" y="15.0332" type="line"/>
      <point x="107.989" y="15.0332" type="line"/>
      <point x="107.989" y="6.74023" type="line"/>
      <point x="97.6211" y="2.59277" type="line"/>
      <point x="97.6211" y="0.519531" type="line"/>
      <point x="99.6953" y="-11.9209" type="line"/>
      <point x="91.4014" y="-16.0684" type="line"/>
      <point x="97.6211" y="-13.9951" type="line"/>
      <point x="93.4756" y="-22.2881" type="line"/>
      <point x="95.5479" y="-32.6562" type="line"/>
      <point x="85.1807" y="-34.7295" type="line"/>
      <point x="81.0342" y="-16.0684" type="line" smooth="yes"/>
      <point x="75.8301" y="-13.0068"/>
      <point x="77.7168" y="-9.82129"/>
      <point x="83.1074" y="-9.84766" type="curve"/>
      <point x="77.7988" y="1.73828"/>
      <point x="85.5332" y="15.084"/>
      <point x="91.4014" y="25.4014" type="curve"/>
      <point x="97.6211" y="23.3281" type="line"/>
      <point x="92.0439" y="35.2754"/>
      <point x="106.205" y="62.6318"/>
      <point x="111.409" y="75.1631" type="curve" smooth="yes"/>
      <point x="114.044" y="81.5293"/>
      <point x="115.495" y="88.8145"/>
      <point x="122.503" y="89.6787" type="curve"/>
      <point x="130.278" y="122.853" type="line"/>
      <point x="158.784" y="243.036" type="line"/>
      <point x="176.678" y="280.254" type="line"/>
      <point x="170.457" y="282.328" type="line"/>
      <point x="187.045" y="323.797" type="line"/>
      <point x="220" y="393" type="line"/>
      <point x="229" y="420" type="line"/>
      <point x="217.661" y="420.136" type="line"/>
      <point x="207.294" y="415.988" type="line"/>
      <point x="205.221" y="409.769" type="line"/>
      <point x="199" y="411.841" type="line"/>
      <point x="190.707" y="397.327" type="line"/>
      <point x="184.486" y="399.4" type="line"/>
      <point x="172.046" y="380.739" type="line"/>
      <point x="151.311" y="366.226" type="line"/>
      <point x="151.311" y="382.813" type="line"/>
      <point x="159.605" y="378.667" type="line"/>
      <point x="163.751" y="393.181" type="line"/>
      <point x="165.825" y="389.034" type="line"/>
      <point x="167.898" y="389.034" type="line"/>
      <point x="184.486" y="420.136" type="line"/>
      <point x="184.486" y="422.209" type="line"/>
      <point x="190.707" y="418.062" type="line"/>
      <point x="192.78" y="418.062" type="line"/>
      <point x="186.56" y="436.723" type="line"/>
      <point x="176.192" y="413.915" type="line"/>
      <point x="174.119" y="413.915" type="line"/>
      <point x="176.192" y="418.062" type="line"/>
      <point x="163.751" y="411.841" type="line"/>
      <point x="163.751" y="420.136" type="line"/>
      <point x="161.679" y="420.136" type="line"/>
      <point x="153.384" y="411.841" type="line"/>
      <point x="151.311" y="422.209" type="line"/>
      <point x="139" y="438.515" type="line"/>
      <point x="139" y="424" type="line"/>
      <point x="109.973" y="426.074" type="line"/>
      <point x="103.753" y="430.221" type="line"/>
      <point x="107.898" y="424" type="line"/>
      <point x="89.9277" y="425.927" type="line"/>
      <point x="70" y="426" type="line"/>
      <point x="84.7803" y="435.221" type="line"/>
      <point x="91" y="429" type="line"/>
      <point x="93.0732" y="439.368" type="line"/>
      <point x="101.679" y="432.295" type="line"/>
      <point x="102.944" y="438.206"/>
      <point x="104.375" y="438.213"/>
      <point x="109.973" y="436.44" type="curve"/>
      <point x="109.973" y="442.661" type="line"/>
      <point x="122.412" y="440.588" type="line"/>
      <point x="126.56" y="438.515" type="line"/>
      <point x="134.646" y="450.335"/>
      <point x="174.658" y="440.601"/>
      <point x="188.633" y="440.87" type="curve"/>
      <point x="192.594" y="446.525"/>
      <point x="198.834" y="443.993"/>
      <point x="205.221" y="444.431" type="curve" smooth="yes"/>
      <point x="216.189" y="445.185"/>
      <point x="239.308" y="447.409"/>
      <point x="244.616" y="457.458" type="curve"/>
      <point x="209.368" y="451.237" type="line"/>
      <point x="199" y="461.604" type="line"/>
      <point x="196.927" y="461.604" type="line"/>
      <point x="186.228" y="446.505"/>
      <point x="158.319" y="450.012"/>
      <point x="145.091" y="459.53" type="curve"/>
      <point x="143.018" y="453.311" type="line"/>
      <point x="136.797" y="457.458" type="line"/>
      <point x="134.723" y="457.458" type="line"/>
      <point x="128.71" y="451.665"/>
      <point x="101.465" y="450.41"/>
      <point x="95.3281" y="457.458" type="curve"/>
      <point x="89.1074" y="453.311" type="line"/>
      <point x="87.0342" y="459.53" type="line"/>
      <point x="84.96" y="459.53" type="line"/>
      <point x="78.1387" y="447.702"/>
      <point x="64.04" y="457.995"/>
      <point x="54.1904" y="453.263" type="curve" smooth="yes"/>
      <point x="46.7266" y="449.687"/>
      <point x="47.6592" y="439.411"/>
      <point x="47.6387" y="432.576" type="curve"/>
      <point x="43.4912" y="434.649" type="line"/>
      <point x="43.4912" y="418.062" type="line"/>
      <point x="37.2705" y="420.136" type="line"/>
      <point x="31.1963" y="413.298"/>
      <point x="24.748" y="423.088"/>
      <point x="18.6104" y="426.356" type="curve"/>
      <point x="19.709" y="451.589" type="line"/>
      <point x="10.1924" y="477.96" type="line"/>
    </contour>
  </outline>
</glyph>
<glyph name="eight" format="2">
  <advance width="326"/>
  <unicode hex="0038"/>
  <outline>
    <contour>
      <point x="157.982" y="509.217" type="curve" smooth="yes"/>
      <point x="160.195" y="508.773"/>
      <point x="162.461" y="507.775"/>
      <point x="164.637" y="506.102" type="curve" smooth="yes"/>
      <point x="169.891" y="502.055"/>
      <point x="170.191" y="491.424"/>
      <point x="171.63" y="485.355" type="curve"/>
      <point x="172.817" y="491.461" type="line"/>
      <point x="174.852" y="491.066" type="line"/>
      <point x="176.946" y="480.099" type="line"/>
      <point x="184.689" y="476.48" type="line"/>
      <point x="183.107" y="468.339" type="line"/>
      <point x="189.609" y="469.188" type="line"/>
      <point x="204.765" y="449.345" type="line"/>
      <point x="207.728" y="428.728"/>
      <point x="224.303" y="405.565"/>
      <point x="235.494" y="388.263" type="curve" smooth="yes"/>
      <point x="242.981" y="376.689"/>
      <point x="251.881" y="374.511"/>
      <point x="245.136" y="360.783" type="curve"/>
      <point x="250.79" y="368.131" type="line"/>
      <point x="266.535" y="355.781"/>
      <point x="285.119" y="333.274"/>
      <point x="290.935" y="313.86" type="curve"/>
      <point x="287.233" y="314.946" type="line"/>
      <point x="287.232" y="314.285" type="line"/>
      <point x="283.582" y="318.85" type="line"/>
      <point x="281.547" y="319.245" type="line"/>
      <point x="278.72" y="315.571" type="line"/>
      <point x="276.686" y="315.966" type="line"/>
      <point x="248" y="324" type="line"/>
      <point x="244.297" y="317.665"/>
      <point x="240.833" y="311.579"/>
      <point x="233.02" y="312.128" type="curve"/>
      <point x="227.701" y="316.722" type="line"/>
      <point x="223.689" y="307.604" type="line"/>
      <point x="200.362" y="284.781" type="line"/>
      <point x="177.75" y="255.38" type="line"/>
      <point x="181.425" y="252.553" type="line"/>
      <point x="188.321" y="255.438" type="line"/>
      <point x="212.409" y="238.083" type="line"/>
      <point x="229.095" y="236.778"/>
      <point x="268.165" y="215.994"/>
      <point x="254.926" y="196.021" type="curve"/>
      <point x="270.358" y="199.358" type="line"/>
      <point x="271.208" y="192.856" type="line"/>
      <point x="281.59" y="192.366"/>
      <point x="280.944" y="185.359"/>
      <point x="285.116" y="177.48" type="curve"/>
      <point x="270.252" y="144.462" type="line"/>
      <point x="269.855" y="142.425" type="line"/>
      <point x="275.571" y="129.457"/>
      <point x="264.81" y="70.6455"/>
      <point x="257.655" y="58.5107" type="curve"/>
      <point x="266.073" y="55.6279"/>
      <point x="259.303" y="44.168"/>
      <point x="257.77" y="37.3652" type="curve"/>
      <point x="267.267" y="40.0439"/>
      <point x="276.702" y="39.9062"/>
      <point x="274.9" y="27.7002" type="curve"/>
      <point x="272.864" y="28.0947" type="line"/>
      <point x="272.018" y="34.5967" type="line"/>
      <point x="260.256" y="28.4326" type="line"/>
      <point x="261.105" y="21.9316" type="line"/>
      <point x="246.208" y="13.0996"/>
      <point x="225.34" y="4.12305"/>
      <point x="206.793" y="9.88379" type="curve"/>
      <point x="203.57" y="4.17285" type="line"/>
      <point x="199.896" y="7" type="line"/>
      <point x="185.968" y="4.19141" type="line"/>
      <point x="182.294" y="7.0166" type="line"/>
      <point x="176.856" y="-0.204102"/>
      <point x="170.786" y="1.0293"/>
      <point x="161.625" y="4.32129" type="curve"/>
      <point x="164.112" y="-4.61328" type="line"/>
      <point x="148.31" y="-15.6025" type="line"/>
      <point x="160.185" y="-30.585" type="line"/>
      <point x="168.839" y="-33.3359"/>
      <point x="169.906" y="-40.8838"/>
      <point x="169.231" y="-49.2393" type="curve"/>
      <point x="154.191" y="-50.543" type="line"/>
      <point x="140.227" y="-24.5918" type="line"/>
      <point x="132.084" y="-23.0098" type="line"/>
      <point x="118.289" y="-28.7764" type="line"/>
      <point x="120.268" y="-18.5996" type="line"/>
      <point x="118.234" y="-18.2051" type="line"/>
      <point x="116.254" y="-28.3818" type="line"/>
      <point x="114.219" y="-27.9863" type="line"/>
      <point x="112.523" y="-14.9834" type="line"/>
      <point x="120.24" y="-12.9814" type="line"/>
      <point x="110.458" y="-8.9707" type="line"/>
      <point x="111.675" y="-8.48145" type="line"/>
      <point x="109.638" y="-8.08594" type="line"/>
      <point x="106.352" y="-0.100586"/>
      <point x="103.908" y="-2.68359"/>
      <point x="94.9678" y="-1.7334" type="curve"/>
      <point x="102.202" y="13.7568" type="line"/>
      <point x="100.166" y="14.1543" type="line"/>
      <point x="98.1289" y="9.20801"/>
      <point x="98.1689" y="9.2002"/>
      <point x="98.1338" y="14.5498" type="curve"/>
      <point x="96.0967" y="14.9443" type="line"/>
      <point x="94.9092" y="8.83789" type="line"/>
      <point x="92.874" y="9.23438" type="line"/>
      <point x="99.167" y="28.1357"/>
      <point x="81.3408" y="37.002"/>
      <point x="70.9619" y="51.8477" type="curve" smooth="yes"/>
      <point x="58.4326" y="69.7666"/>
      <point x="51.9766" y="107.775"/>
      <point x="39.1064" y="126.215" type="curve" smooth="yes"/>
      <point x="33.8174" y="133.782"/>
      <point x="19.0332" y="150.301"/>
      <point x="19.4795" y="159.658" type="curve" smooth="yes"/>
      <point x="20.416" y="179.682"/>
      <point x="42.1836" y="166.157"/>
      <point x="51.1621" y="172.794" type="curve" smooth="yes"/>
      <point x="57.873" y="177.757"/>
      <point x="62.4316" y="186.224"/>
      <point x="68.3574" y="192.153" type="curve" smooth="yes"/>
      <point x="82.4414" y="206.256"/>
      <point x="100.698" y="219.339"/>
      <point x="110.753" y="236.719" type="curve"/>
      <point x="128.562" y="252.269" type="line"/>
      <point x="117.142" y="258.712" type="line"/>
      <point x="75.1318" y="281.664" type="line"/>
      <point x="64.0762" y="296.725"/>
      <point x="19.2402" y="311.16"/>
      <point x="24.8691" y="335.342" type="curve"/>
      <point x="17.9727" y="332.459" type="line"/>
      <point x="60.9717" y="376.988" type="line"/>
      <point x="85.8701" y="402.752" type="line"/>
      <point x="82.6475" y="397.04" type="line"/>
      <point x="84.6826" y="396.646" type="line"/>
      <point x="97.9121" y="420.915"/>
      <point x="106.491" y="460.274"/>
      <point x="133.468" y="473.763" type="curve"/>
      <point x="132.226" y="478.229" type="line"/>
      <point x="137.877" y="485.581" type="line"/>
      <point x="139.914" y="485.184" type="line"/>
      <point x="140.365" y="476.646" type="line"/>
      <point x="142.4" y="476.251" type="line"/>
      <point x="148.845" y="487.674" type="line"/>
      <point x="135.603" y="497.938"/>
      <point x="146.031" y="511.622"/>
    </contour>
    <contour>
      <point x="172.369" y="423.958" type="line"/>
      <point x="172.425" y="413.385" type="line"/>
      <point x="163.89" y="412.933" type="line"/>
      <point x="164.736" y="406.43" type="line"/>
      <point x="162.308" y="404.789" type="line"/>
      <point x="156.596" y="408.013" type="line"/>
      <point x="149.359" y="392.521" type="line"/>
      <point x="133.135" y="385.114" type="line"/>
      <point x="127.425" y="388.336" type="line"/>
      <point x="124.993" y="386.695" type="line"/>
      <point x="123.015" y="376.521" type="line"/>
      <point x="120.979" y="376.917" type="line"/>
      <point x="120.923" y="387.487" type="line"/>
      <point x="120.583" y="374.88" type="line"/>
      <point x="112.762" y="374.738"/>
      <point x="109.72" y="375.453"/>
      <point x="107.243" y="368.576" type="curve"/>
      <point x="101.531" y="371.798" type="line"/>
      <point x="89.0371" y="350.991" type="line"/>
      <point x="82.876" y="362.75" type="line"/>
      <point x="80.8398" y="363.146" type="line"/>
      <point x="76.8262" y="353.365" type="line"/>
      <point x="69.0811" y="356.983" type="line"/>
      <point x="57.3242" y="327.697" type="line"/>
      <point x="66.8213" y="322.963" type="line"/>
      <point x="77.8467" y="314.483" type="line"/>
      <point x="85.1387" y="319.402" type="line"/>
      <point x="87.1729" y="319.007" type="line"/>
      <point x="98.5928" y="312.562" type="line"/>
      <point x="103.49" y="298.745"/>
      <point x="128.065" y="286.553"/>
      <point x="140.572" y="281.46" type="curve" smooth="yes"/>
      <point x="145.251" y="279.558"/>
      <point x="150.427" y="275.11"/>
      <point x="155.707" y="276.734" type="curve" smooth="yes"/>
      <point x="168.063" y="280.541"/>
      <point x="175.808" y="303.603"/>
      <point x="186.848" y="310.193" type="curve"/>
      <point x="187.696" y="303.691" type="line"/>
      <point x="195.385" y="310.646" type="line"/>
      <point x="187.242" y="312.229" type="line"/>
      <point x="224.105" y="339.522" type="line"/>
      <point x="232.246" y="337.941" type="line"/>
      <point x="233.693" y="355.708"/>
      <point x="211.198" y="361.623"/>
      <point x="203.522" y="377.769" type="curve"/>
      <point x="199.057" y="376.523" type="line"/>
      <point x="192.102" y="384.211" type="line"/>
      <point x="179.718" y="418.304" type="line"/>
      <point x="173.217" y="417.457" type="line"/>
    </contour>
    <contour>
      <point x="157.892" y="235.858" type="curve" smooth="yes"/>
      <point x="150.14" y="237.065"/>
      <point x="144.392" y="229.202"/>
      <point x="141.341" y="220.214" type="curve"/>
      <point x="122.291" y="209.13" type="line"/>
      <point x="75.0078" y="164.647" type="line"/>
      <point x="60.8066" y="148.958" type="line"/>
      <point x="72.3008" y="126.258" type="line"/>
      <point x="109.983" y="58.084" type="line"/>
      <point x="122.193" y="55.71" type="line"/>
      <point x="120.611" y="47.5703" type="line"/>
      <point x="122.648" y="47.1748" type="line" smooth="yes"/>
      <point x="127.6" y="48.3145"/>
      <point x="128.926" y="44.0498"/>
      <point x="127.567" y="39.8828" type="curve" smooth="yes"/>
      <point x="127.642" y="46.835" type="line"/>
      <point x="144.773" y="37.166" type="line"/>
      <point x="135.051" y="30.6064" type="line"/>
      <point x="134.656" y="28.5732" type="line"/>
      <point x="141.156" y="29.4199" type="line"/>
      <point x="141.308" y="21.4971"/>
      <point x="149.325" y="21.5635"/>
      <point x="156.127" y="23.752" type="curve" smooth="yes"/>
      <point x="167.214" y="27.3242"/>
      <point x="189.322" y="16.2256"/>
      <point x="194.393" y="26.4512" type="curve"/>
      <point x="198.858" y="27.6934" type="line"/>
      <point x="204.569" y="24.4727" type="line"/>
      <point x="209.023" y="34.2383"/>
      <point x="218.689" y="38.6582"/>
      <point x="223.514" y="48.2607" type="curve" smooth="yes"/>
      <point x="227.726" y="56.6641"/>
      <point x="226.348" y="65.8848"/>
      <point x="229.427" y="74.5586" type="curve" smooth="yes"/>
      <point x="239.609" y="103.14"/>
      <point x="259.178" y="179.435"/>
      <point x="242.261" y="206.934" type="curve"/>
      <point x="240.225" y="207.329" type="line"/>
      <point x="232.536" y="200.373" type="line"/>
      <point x="235.422" y="193.477" type="line"/>
      <point x="223.095" y="195.699"/>
      <point x="203.078" y="204.323"/>
      <point x="195.053" y="213.996" type="curve"/>
      <point x="165.369" y="213.429" type="line"/>
      <point x="140.664" y="194.999" type="line"/>
      <point x="131.338" y="190.474" type="line"/>
      <point x="107.48" y="165.54" type="line"/>
      <point x="105.443" y="165.935" type="line"/>
      <point x="102.165" y="170.798" type="line"/>
      <point x="99.792" y="158.586" type="line"/>
      <point x="96.1152" y="161.411" type="line"/>
      <point x="82.7725" y="147.107" type="line"/>
      <point x="81.1318" y="149.536" type="line"/>
      <point x="84.9355" y="157.039"/>
      <point x="91.1963" y="173.813"/>
      <point x="100.524" y="173.227" type="curve"/>
      <point x="99.6748" y="179.729" type="line"/>
      <point x="104.989" y="174.472" type="line"/>
      <point x="111.492" y="175.32" type="line"/>
      <point x="106.177" y="180.579" type="line"/>
      <point x="109.795" y="188.326" type="line"/>
      <point x="113.47" y="185.498" type="line"/>
      <point x="130.429" y="207.549" type="line"/>
      <point x="132.466" y="207.151" type="line"/>
      <point x="133.71" y="202.686" type="line"/>
      <point x="156.776" y="223.55" type="line"/>
      <point x="158.812" y="223.153" type="line"/>
      <point x="155.984" y="219.478" type="line"/>
      <point x="158.021" y="219.082" type="line"/>
      <point x="164.464" y="230.503" type="line"/>
      <point x="164.86" y="232.54" type="line" smooth="yes"/>
      <point x="162.391" y="234.474"/>
      <point x="160.062" y="235.521"/>
    </contour>
  </outline>
</glyph>
<glyph name="nine" format="2">
  <advance width="336"/>
  <unicode hex="0039"/>
  <outline>
    <contour>
      <point x="114.257" y="506.175" type="line"/>
      <point x="123.409" y="514.417" type="line"/>
      <point x="145.149" y="513.278" type="line"/>
      <point x="142.292" y="500.347" type="line"/>
      <point x="157.17" y="493.027" type="line"/>
      <point x="152.365" y="484.558" type="line"/>
      <point x="159.117" y="488.563" type="line"/>
      <point x="181.069" y="481.857" type="line"/>
      <point x="190" y="464" type="line"/>
      <point x="202.777" y="448.249" type="line"/>
      <point x="214.191" y="431.738" type="line"/>
      <point x="220.258" y="422.7" type="line"/>
      <point x="248.901" y="394.607" type="line"/>
      <point x="275.186" y="354.495" type="line"/>
      <point x="300.146" y="339.509" type="line"/>
      <point x="280.195" y="283.077" type="line"/>
      <point x="268.774" y="235.705" type="line"/>
      <point x="248.132" y="186.653" type="line"/>
      <point x="241.608" y="186.995" type="line"/>
      <point x="239.84" y="165.325"/>
      <point x="225.897" y="145.977"/>
      <point x="216.023" y="127.293" type="curve" smooth="yes"/>
      <point x="211.886" y="119.458"/>
      <point x="209.892" y="108.049"/>
      <point x="200.318" y="106.314" type="curve"/>
      <point x="200.867" y="94.7402"/>
      <point x="196.22" y="82.1914"/>
      <point x="185.679" y="76.5605" type="curve"/>
      <point x="187.511" y="69.9248" type="line"/>
      <point x="185.337" y="70.0381" type="line"/>
      <point x="183.504" y="76.6748" type="line"/>
      <point x="181.693" y="74.9561" type="line"/>
      <point x="179.406" y="72.8945" type="line"/>
      <point x="181.124" y="64.0859" type="line"/>
      <point x="172.313" y="62.3682" type="line"/>
      <point x="165.336" y="54.0127" type="line"/>
      <point x="164.705" y="45.4297" type="line"/>
      <point x="158.183" y="45.7715" type="line"/>
      <point x="159.108" y="30.998"/>
      <point x="148.48" y="27.0156"/>
      <point x="135.531" y="29.5176" type="curve"/>
      <point x="121.802" y="17.1562" type="line"/>
      <point x="119.497" y="6.04395"/>
      <point x="110.21" y="-2.28516"/>
      <point x="98.9209" y="-3.44531" type="curve"/>
      <point x="103.04" y="-8.02148" type="line"/>
      <point x="102.927" y="-10.1953" type="line"/>
      <point x="87.0244" y="-22.4414" type="line"/>
      <point x="86.5684" y="-31.1396" type="line"/>
      <point x="84.3936" y="-31.0264" type="line"/>
      <point x="84.7354" y="-24.5029" type="line"/>
      <point x="82.5625" y="-24.3887" type="line"/>
      <point x="79.8193" y="-35.1455" type="line"/>
      <point x="77.6445" y="-35.0312" type="line" smooth="yes"/>
      <point x="73.9756" y="-31.8262"/>
      <point x="68.21" y="-30.3604"/>
      <point x="65.2061" y="-26.5332" type="curve" smooth="yes"/>
      <point x="57.499" y="-16.7383"/>
      <point x="58.4219" y="-0.805664"/>
      <point x="72.8301" y="-2.07812" type="curve"/>
      <point x="71.1123" y="6.73242" type="line"/>
      <point x="86.5586" y="10.2832" type="line"/>
      <point x="84.7275" y="16.9199" type="line"/>
      <point x="86.9004" y="16.8057" type="line"/>
      <point x="89.3027" y="21.04" type="line"/>
      <point x="95.7129" y="18.5234" type="line"/>
      <point x="96.2822" y="29.3945" type="line"/>
      <point x="100.516" y="26.9941" type="line"/>
      <point x="126.368" y="62.6992" type="line"/>
      <point x="128.315" y="58.2383" type="line"/>
      <point x="130.489" y="58.124" type="line"/>
      <point x="132.071" y="70.4277"/>
      <point x="139.842" y="81.0322"/>
      <point x="151.538" y="85.3613" type="curve"/>
      <point x="150.555" y="95.7412"/>
      <point x="157.91" y="98.8057"/>
      <point x="163.047" y="106.961" type="curve" smooth="yes"/>
      <point x="175.172" y="126.176"/>
      <point x="176.282" y="158.528"/>
      <point x="197.101" y="169.708" type="curve"/>
      <point x="202.244" y="184.698" type="line"/>
      <point x="204.42" y="184.584" type="line"/>
      <point x="202.017" y="180.35" type="line"/>
      <point x="212.082" y="205.983" type="line"/>
      <point x="220.892" y="207.701" type="line"/>
      <point x="221.006" y="214.854"/>
      <point x="225.168" y="228.135"/>
      <point x="232.903" y="228.873" type="curve"/>
      <point x="256.458" y="312.942" type="line"/>
      <point x="223.494" y="349.552" type="line"/>
      <point x="228.412" y="360.193" type="line"/>
      <point x="221.775" y="358.362" type="line"/>
      <point x="203.608" y="385.249" type="line"/>
      <point x="177.499" y="419.912" type="line"/>
      <point x="173.037" y="417.966" type="line"/>
      <point x="165.024" y="431.467" type="line"/>
      <point x="160.388" y="429.636" type="line"/>
      <point x="165.419" y="442.452" type="line"/>
      <point x="163.245" y="442.566" type="line"/>
      <point x="156.269" y="434.21" type="line"/>
      <point x="152.83" y="451.831" type="line"/>
      <point x="139.899" y="454.689" type="line"/>
      <point x="138.182" y="463.5" type="line"/>
      <point x="133.719" y="461.554" type="line"/>
      <point x="134.062" y="468.076" type="line"/>
      <point x="121.162" y="467.807"/>
      <point x="101.794" y="443.934"/>
      <point x="119.421" y="438.321" type="curve"/>
      <point x="123.062" y="426.697"/>
      <point x="116.085" y="419.594"/>
      <point x="109.243" y="410.514" type="curve"/>
      <point x="102.836" y="413.03" type="line"/>
      <point x="80.4189" y="359.701" type="line"/>
      <point x="73.8965" y="360.043" type="line"/>
      <point x="69.25" y="313.994" type="line"/>
      <point x="76" y="318" type="line"/>
      <point x="75.4307" y="298.131" type="line"/>
      <point x="77.6045" y="298.017" type="line"/>
      <point x="79.4961" y="305.408"/>
      <point x="85.8008" y="301.757"/>
      <point x="90.5352" y="295.158" type="curve"/>
      <point x="93.6729" y="299.291"/>
      <point x="95.1416" y="296.959"/>
      <point x="96.9434" y="292.643" type="curve" smooth="yes"/>
      <point x="141.553" y="279.037" type="line"/>
      <point x="130.792" y="264.196"/>
      <point x="87.7285" y="269.946"/>
      <point x="78.6162" y="284.517" type="curve"/>
      <point x="69.9209" y="284.972" type="line"/>
      <point x="67.6328" y="282.911" type="line"/>
      <point x="71.2969" y="269.638" type="line"/>
      <point x="82.374" y="268.037"/>
      <point x="89.7266" y="263.518"/>
      <point x="94.4141" y="253.166" type="curve"/>
      <point x="108.929" y="255.968"/>
      <point x="142.229" y="236.6"/>
      <point x="149.576" y="224.114" type="curve"/>
      <point x="158.332" y="221.37" type="line"/>
      <point x="162.452" y="216.794" type="line"/>
      <point x="170.921" y="211.99" type="line"/>
      <point x="177.672" y="215.996" type="line"/>
      <point x="184.854" y="201.634"/>
      <point x="198.75" y="176.629"/>
      <point x="173.184" y="170.961" type="curve"/>
      <point x="162.77" y="180.226" type="line"/>
      <point x="156.643" y="191.553" type="line"/>
      <point x="158.535" y="182.629" type="line"/>
      <point x="143.712" y="194.41" type="line"/>
      <point x="135.13" y="197.04" type="line"/>
      <point x="130.554" y="192.92" type="line"/>
      <point x="100.686" y="205.387" type="line"/>
      <point x="100.457" y="201.038" type="line"/>
      <point x="92.3545" y="208.647"/>
      <point x="93.8633" y="214.987"/>
      <point x="95.1875" y="225.296" type="curve"/>
      <point x="74.8613" y="225.146"/>
      <point x="34.96" y="255.357"/>
      <point x="32.9492" y="276.887" type="curve"/>
      <point x="24.8203" y="288.213" type="line"/>
      <point x="16.5703" y="290.518"/>
      <point x="5.43262" y="315.351"/>
      <point x="13.8809" y="323.071" type="curve" smooth="yes"/>
      <point x="19.1006" y="327.836"/>
      <point x="30.749" y="329.207"/>
      <point x="37.5146" y="331.429" type="curve"/>
      <point x="40.2588" y="342.186" type="line" smooth="yes"/>
      <point x="36.9248" y="347.62"/>
      <point x="37.5156" y="349.725"/>
      <point x="43.0039" y="352.943" type="curve"/>
      <point x="43.9629" y="376.659"/>
      <point x="62.7959" y="405.321"/>
      <point x="74.5967" y="425.409" type="curve" smooth="yes"/>
      <point x="79.3379" y="433.502"/>
      <point x="82.9678" y="442.043"/>
      <point x="91.5" y="446.326" type="curve"/>
      <point x="91.5752" y="457.345"/>
      <point x="98.7549" y="472.461"/>
      <point x="108.428" y="478.14" type="curve"/>
      <point x="109.226" y="493.358" type="line"/>
      <point x="111.398" y="493.244" type="line"/>
      <point x="110.828" y="482.376" type="line"/>
      <point x="113.003" y="482.262" type="line"/>
      <point x="118.376" y="501.6" type="line"/>
    </contour>
  </outline>
</glyph>
<glyph name="semicolon" format="2">
  <advance width="170"/>
  <unicode hex="003B"/>
  <outline>
    <contour>
      <point x="100.816" y="408.076" type="line"/>
      <point x="105.854" y="406.396" type="line"/>
      <point x="102.496" y="392.967" type="line"/>
      <point x="114.248" y="391.287" type="line"/>
      <point x="117.605" y="384.572" type="line"/>
      <point x="117.605" y="382.893" type="line"/>
      <point x="115.928" y="379.535" type="line"/>
      <point x="114.248" y="376.178" type="line"/>
      <point x="114.92" y="376.178" type="line"/>
      <point x="110.891" y="371.141" type="line"/>
      <point x="110.891" y="352.674" type="line"/>
      <point x="109.211" y="356.031" type="line"/>
      <point x="107.533" y="356.031" type="line"/>
      <point x="107.533" y="349.316" type="line"/>
      <point x="110.891" y="350.994" type="line"/>
      <point x="114.248" y="345.959" type="line"/>
      <point x="110.891" y="337.564" type="line"/>
      <point x="109.211" y="337.564" type="line"/>
      <point x="99.1387" y="339.242" type="line"/>
      <point x="104.174" y="329.17" type="line"/>
      <point x="100.816" y="329.17" type="line"/>
      <point x="102.496" y="324.133" type="line"/>
      <point x="85.707" y="317.418" type="line"/>
      <point x="73.9551" y="324.133" type="line"/>
      <point x="65.4531" y="316.78"/>
      <point x="63.1885" y="334.019"/>
      <point x="62.2031" y="339.242" type="curve" smooth="yes"/>
      <point x="65.5605" y="344.279" type="line"/>
      <point x="51.7383" y="348.384"/>
      <point x="55.2686" y="359.908"/>
      <point x="55.4883" y="371.141" type="curve"/>
      <point x="78.9922" y="392.967" type="line"/>
      <point x="87.3867" y="403.039" type="line"/>
      <point x="90.7441" y="398.002" type="line"/>
      <point x="89.0645" y="404.719" type="line"/>
    </contour>
    <contour>
      <point x="115.928" y="379.535" type="line"/>
      <point x="117.605" y="379.535" type="line"/>
      <point x="115.928" y="377.438" type="line"/>
    </contour>
    <contour>
      <point x="115.928" y="377.438" type="line"/>
      <point x="114.92" y="376.178" type="line"/>
      <point x="115.928" y="376.178" type="line"/>
    </contour>
    <contour>
      <point x="92.1855" y="195.215" type="curve" smooth="yes"/>
      <point x="95.4473" y="195.162"/>
      <point x="98.8965" y="194.493"/>
      <point x="102.496" y="193.182" type="curve" smooth="yes"/>
      <point x="100.816" y="171.357" type="line"/>
      <point x="109.211" y="173.035" type="line"/>
      <point x="105.854" y="161.283" type="line"/>
      <point x="126" y="168" type="line"/>
      <point x="127.68" y="168" type="line"/>
      <point x="131.781" y="159.531"/>
      <point x="127.178" y="153.452"/>
      <point x="119.285" y="149.531" type="curve"/>
      <point x="122.643" y="144.496" type="line"/>
      <point x="117.605" y="142.816" type="line"/>
      <point x="118.647" y="138.036"/>
      <point x="119.765" y="133.51"/>
      <point x="114.248" y="132.744" type="curve"/>
      <point x="114.998" y="124.834"/>
      <point x="110.501" y="119.943"/>
      <point x="108.311" y="112.621" type="curve" smooth="yes"/>
      <point x="103.772" y="97.459"/>
      <point x="110.929" y="90.4121"/>
      <point x="90.7441" y="89.0938" type="curve"/>
      <point x="88.1602" y="95.4365"/>
      <point x="82.9365" y="103.855"/>
      <point x="89.0645" y="109.24" type="curve"/>
      <point x="92.4238" y="131.064" type="line"/>
      <point x="81.8398" y="127.51"/>
      <point x="76.3418" y="132.419"/>
      <point x="68.918" y="139.459" type="curve"/>
      <point x="57.166" y="171.357" type="line"/>
      <point x="60.5254" y="169.678" type="line"/>
      <point x="60.5254" y="178.072" type="line"/>
      <point x="65.5605" y="178.072" type="line"/>
      <point x="63.8828" y="183.109" type="line"/>
      <point x="65.5605" y="183.109" type="line"/>
      <point x="68.918" y="179.752" type="line"/>
      <point x="74.3047" y="189.983"/>
      <point x="82.4004" y="195.372"/>
    </contour>
  </outline>
</glyph>
<glyph name="equal" format="2">
  <advance width="278"/>
  <unicode hex="003D"/>
  <outline>
    <contour>
      <point x="76.4824" y="325.573" type="curve"/>
      <point x="79.8516" y="325.588"/>
      <point x="83.1436" y="324.609"/>
      <point x="86.1406" y="322.339" type="curve" smooth="yes"/>
      <point x="87.8184" y="322.339" type="line" smooth="yes"/>
      <point x="93.8789" y="325.589"/>
      <point x="98.5625" y="321.934"/>
      <point x="102.928" y="317.302" type="curve"/>
      <point x="104.607" y="322.339" type="line"/>
      <point x="106.285" y="322.339" type="line"/>
      <point x="124.786" y="305.698"/>
      <point x="152.873" y="329.048"/>
      <point x="173.439" y="315.622" type="curve"/>
      <point x="175.119" y="320.659" type="line"/>
      <point x="207.018" y="317.302" type="line"/>
      <point x="208.276" y="328.955"/>
      <point x="219.86" y="323.757"/>
      <point x="227.164" y="324.017" type="curve"/>
      <point x="220.447" y="295.476" type="line"/>
      <point x="218.77" y="293.798" type="line"/>
      <point x="215.412" y="295.476" type="line"/>
      <point x="210.375" y="285.403" type="line"/>
      <point x="165.047" y="285.403" type="line"/>
      <point x="153.295" y="285.403" type="line"/>
      <point x="148.258" y="292.118" type="line"/>
      <point x="146.578" y="292.118" type="line"/>
      <point x="145.806" y="285.787"/>
      <point x="130.344" y="288.675"/>
      <point x="124.754" y="290.44" type="curve"/>
      <point x="124.754" y="287.083" type="line"/>
      <point x="121.396" y="285.403" type="line"/>
      <point x="104.607" y="288.761" type="line"/>
      <point x="92.7041" y="310.03"/>
      <point x="61.4766" y="276.321"/>
      <point x="45.9141" y="276.763" type="curve" smooth="yes"/>
      <point x="34.8506" y="277.075"/>
      <point x="38.209" y="291.06"/>
      <point x="45.8477" y="293.798" type="curve"/>
      <point x="45.8066" y="306.81"/>
      <point x="61.8809" y="325.512"/>
    </contour>
    <contour>
      <point x="243.891" y="259.628" type="curve"/>
      <point x="249.941" y="259.41"/>
      <point x="252.965" y="251.719"/>
      <point x="245.631" y="250.147" type="curve"/>
      <point x="245.631" y="248.468" type="line"/>
      <point x="245.631" y="241.753" type="line"/>
      <point x="243.953" y="241.753" type="line"/>
      <point x="238.916" y="245.11" type="line"/>
      <point x="238.916" y="243.433" type="line"/>
      <point x="243.953" y="238.396" type="line"/>
      <point x="232.285" y="234.826"/>
      <point x="234.533" y="226.675"/>
      <point x="232.199" y="216.569" type="curve"/>
      <point x="225.484" y="218.249" type="line"/>
      <point x="218.45" y="196.937"/>
      <point x="177.957" y="213.536"/>
      <point x="163.082" y="212.888" type="curve" smooth="yes"/>
      <point x="155.393" y="212.552"/>
      <point x="148.491" y="207.554"/>
      <point x="141.541" y="204.817" type="curve"/>
      <point x="136.506" y="211.534" type="line"/>
      <point x="136.506" y="208.177" type="line"/>
      <point x="111.322" y="209.854" type="line"/>
      <point x="107.276" y="205.225"/>
      <point x="101.72" y="206.554"/>
      <point x="96.2129" y="208.177" type="curve"/>
      <point x="94.5332" y="206.497" type="line"/>
      <point x="74.3867" y="204.817" type="line"/>
      <point x="72.709" y="199.782" type="line"/>
      <point x="44.168" y="189.708" type="line"/>
      <point x="37.4531" y="213.212" type="line"/>
      <point x="57.5996" y="231.681" type="line"/>
      <point x="86.1406" y="233.358" type="line"/>
      <point x="92.252" y="241.734"/>
      <point x="109.996" y="237.759"/>
      <point x="119.717" y="240.073" type="curve"/>
      <point x="121.396" y="235.038" type="line"/>
      <point x="128.111" y="243.433" type="line"/>
      <point x="129.789" y="243.433" type="line"/>
      <point x="131.469" y="238.396" type="line"/>
      <point x="170.082" y="240.073" type="line"/>
      <point x="170.082" y="236.716" type="line"/>
      <point x="195.266" y="240.073" type="line"/>
      <point x="207.673" y="227.674"/>
      <point x="228.675" y="257.739"/>
      <point x="242.643" y="259.567" type="curve" smooth="yes"/>
      <point x="243.07" y="259.623"/>
      <point x="243.487" y="259.643"/>
    </contour>
    <contour>
      <point x="94.5332" y="206.497" type="line"/>
      <point x="94.5332" y="204.817" type="line"/>
      <point x="92.8535" y="204.817" type="line"/>
    </contour>
    <contour>
      <point x="92.8535" y="204.817" type="line"/>
      <point x="91.1758" y="204.817" type="line"/>
      <point x="91.1758" y="203.14" type="line"/>
    </contour>
  </outline>
</glyph>
<glyph name="question" format="2">
  <advance width="191"/>
  <unicode hex="003F"/>
  <outline>
    <contour>
      <point x="78.9746" y="507.727" type="curve" smooth="yes"/>
      <point x="82.8867" y="507.717"/>
      <point x="87.4473" y="506.892"/>
      <point x="92.8242" y="505.174" type="curve"/>
      <point x="91.5654" y="491.224"/>
      <point x="109.407" y="467.876"/>
      <point x="119.934" y="458.166" type="curve"/>
      <point x="118.256" y="451.449" type="line"/>
      <point x="123.291" y="453.129" type="line"/>
      <point x="149.08" y="399.406" type="line"/>
      <point x="165.795" y="396.047" type="line"/>
      <point x="165.795" y="394.369" type="line"/>
      <point x="162.438" y="392.689" type="line"/>
      <point x="162.438" y="391.012" type="line"/>
      <point x="173.3" y="378.095"/>
      <point x="145.934" y="363.398"/>
      <point x="138.328" y="354.076" type="curve"/>
      <point x="146.723" y="337.287"/>
      <point x="146.555" y="345.22"/>
      <point x="146.723" y="337.287" type="curve"/>
      <point x="143.365" y="333.93" type="line"/>
      <point x="141.686" y="333.93" type="line"/>
      <point x="143.365" y="337.287" type="line"/>
      <point x="116.504" y="320.5" type="line"/>
      <point x="117.344" y="316.179"/>
      <point x="117.879" y="312.806"/>
      <point x="113.145" y="312.105" type="curve"/>
      <point x="114.824" y="305.389" type="line"/>
      <point x="121.204" y="308.493"/>
      <point x="120.364" y="303.146"/>
      <point x="118.182" y="298.674" type="curve"/>
      <point x="116.504" y="302.031" type="line"/>
      <point x="114.824" y="302.031" type="line"/>
      <point x="113.145" y="293.637" type="line"/>
      <point x="103.072" y="295.316" type="line"/>
      <point x="88.8066" y="258.859" type="line"/>
      <point x="76.5684" y="129.301" type="line"/>
      <point x="56.7578" y="131.104"/>
      <point x="61.6094" y="146.509"/>
      <point x="63.1367" y="161.199" type="curve"/>
      <point x="61.459" y="161.199" type="line"/>
      <point x="61.459" y="157.842" type="line"/>
      <point x="59.7793" y="157.842" type="line"/>
      <point x="59.7793" y="258.381" type="line"/>
      <point x="59.7793" y="260.061" type="line"/>
      <point x="59.7793" y="261.738" type="line"/>
      <point x="66.4961" y="273.49" type="line"/>
      <point x="66.4961" y="275.17" type="line" smooth="yes"/>
      <point x="62.6348" y="281.843"/>
      <point x="63.0371" y="295.935"/>
      <point x="69.8535" y="300.354" type="curve"/>
      <point x="68.1074" y="312.928"/>
      <point x="84.1396" y="339.26"/>
      <point x="95.0352" y="345.682" type="curve"/>
      <point x="110.824" y="374.223" type="line"/>
      <point x="114.182" y="377.58" type="line"/>
      <point x="119.219" y="375.9" type="line"/>
      <point x="125.934" y="379.26" type="line"/>
      <point x="140.613" y="392.689" type="line"/>
      <point x="123.271" y="402.907"/>
      <point x="92.6777" y="433.592"/>
      <point x="81.7148" y="449.771" type="curve"/>
      <point x="78.3574" y="461.523" type="line"/>
      <point x="76.6777" y="461.523" type="line"/>
      <point x="71.6406" y="453.129" type="line"/>
      <point x="84.8369" y="449"/>
      <point x="90.3281" y="425.258"/>
      <point x="90.1094" y="412.836" type="curve"/>
      <point x="106.145" y="411.158" type="line"/>
      <point x="110.504" y="399.406" type="line"/>
      <point x="120.504" y="397.727" type="line"/>
      <point x="106.485" y="388.583"/>
      <point x="74.3613" y="410.844"/>
      <point x="73.3203" y="422.91" type="curve"/>
      <point x="65.5469" y="423.875"/>
      <point x="64.96" y="436.359"/>
      <point x="64.9258" y="443.055" type="curve"/>
      <point x="63.248" y="443.055" type="line"/>
      <point x="63.248" y="438.02" type="line"/>
      <point x="47.4961" y="431.303" type="line"/>
      <point x="45.0117" y="415.283"/>
      <point x="28.7852" y="409.004"/>
      <point x="18.2754" y="399.406" type="curve"/>
      <point x="9.62891" y="402.871"/>
      <point x="-2.56934" y="418.271"/>
      <point x="12.2383" y="421.23" type="curve"/>
      <point x="17.2754" y="444.734" type="line"/>
      <point x="25.6699" y="453.129" type="line"/>
      <point x="30.707" y="451.449" type="line"/>
      <point x="32.3848" y="461.523" type="line"/>
      <point x="37.4219" y="469.918" type="line"/>
      <point x="44.9434" y="471.104"/>
      <point x="48.1172" y="474.694"/>
      <point x="50.8535" y="481.67" type="curve"/>
      <point x="58.2109" y="479.99" type="line"/>
      <point x="63.2998" y="497.373"/>
      <point x="65.0029" y="507.76"/>
    </contour>
    <contour>
      <point x="146.723" y="337.287" type="line"/>
      <point x="148.402" y="337.287" type="line"/>
      <point x="148.402" y="338.967" type="line"/>
    </contour>
    <contour>
      <point x="148.402" y="338.967" type="line"/>
      <point x="148.402" y="340.645" type="line"/>
      <point x="150.08" y="340.645" type="line"/>
    </contour>
    <contour>
      <point x="63.1367" y="73.8984" type="line"/>
      <point x="73.8311" y="72.3701"/>
      <point x="81.7217" y="67.085"/>
      <point x="86.6406" y="57.1094" type="curve"/>
      <point x="83.2832" y="57.1094" type="line"/>
      <point x="79.9258" y="47.0371" type="line"/>
      <point x="81.6055" y="42" type="line"/>
      <point x="90" y="42" type="line"/>
      <point x="91.3936" y="33.3877"/>
      <point x="96.8994" y="31.0947"/>
      <point x="105.109" y="30.248" type="curve"/>
      <point x="93.3574" y="3.38672" type="line"/>
      <point x="93.3574" y="1.70703" type="line"/>
      <point x="96.7148" y="3.38672" type="line"/>
      <point x="92.6016" y="-6.98828"/>
      <point x="83.25" y="-16.2217"/>
      <point x="78.3809" y="-26.834" type="curve" smooth="yes"/>
      <point x="75.4258" y="-33.2822"/>
      <point x="76.9541" y="-40.5381"/>
      <point x="73.0762" y="-46.8398" type="curve" smooth="yes"/>
      <point x="70.1719" y="-51.5479"/>
      <point x="66.0586" y="-52.6719"/>
      <point x="64.8164" y="-46.9805" type="curve"/>
      <point x="59.7793" y="-48.6582" type="line"/>
      <point x="63.1367" y="-38.5859" type="line"/>
      <point x="63.1367" y="-36.9062" type="line"/>
      <point x="59.7793" y="-36.9062" type="line"/>
      <point x="59.7793" y="-35.2266" type="line"/>
      <point x="66.4961" y="-21.7969" type="line"/>
      <point x="63.1367" y="-21.7969" type="line"/>
      <point x="68.1738" y="-1.65039" type="line"/>
      <point x="54.7422" y="-5.00781" type="line"/>
      <point x="54.7422" y="-3.33008" type="line"/>
      <point x="58.1016" y="0.0292969" type="line"/>
      <point x="63.1367" y="3.38672" type="line"/>
      <point x="49.707" y="0.0292969" type="line"/>
      <point x="48.1455" y="11.9424"/>
      <point x="36.7471" y="19.6328"/>
      <point x="42.9922" y="31.9258" type="curve"/>
      <point x="44.6699" y="43.6777" type="line"/>
      <point x="42.9922" y="43.6777" type="line"/>
      <point x="39.6328" y="40.3203" type="line"/>
      <point x="38.9111" y="51.2139"/>
      <point x="50.6807" y="66.8936"/>
      <point x="61.459" y="68.8613" type="curve"/>
    </contour>
  </outline>
</glyph>
<glyph name="uni0401" format="2">
  <advance width="309"/>
  <unicode hex="0401"/>
  <outline>
    <contour>
      <point x="217.087" y="638.946" type="curve" smooth="yes"/>
      <point x="220.764" y="639.041"/>
      <point x="224.722" y="637.083"/>
      <point x="227.967" y="632.563" type="curve" smooth="yes"/>
      <point x="233.419" y="624.954"/>
      <point x="229.419" y="608.202"/>
      <point x="230.759" y="598.703" type="curve" smooth="yes"/>
      <point x="232.304" y="587.782"/>
      <point x="234.896" y="577.093"/>
      <point x="236.236" y="566.154" type="curve"/>
      <point x="240.777" y="571.163" type="line"/>
      <point x="243.049" y="571.163" type="line"/>
      <point x="228.897" y="511.026"/>
      <point x="205.727" y="601.74"/>
      <point x="205.658" y="623.737" type="curve" smooth="yes"/>
      <point x="205.616" y="632.929"/>
      <point x="210.961" y="638.788"/>
    </contour>
    <contour>
      <point x="101.759" y="635.697" type="curve"/>
      <point x="117.659" y="633.999"/>
      <point x="112.787" y="580.214"/>
      <point x="131.434" y="556.252" type="curve" smooth="yes"/>
      <point x="132.774" y="550.648"/>
      <point x="129.798" y="545.868"/>
      <point x="124.505" y="545.279" type="curve" smooth="yes"/>
      <point x="103.833" y="542.981"/>
      <point x="64.7842" y="632.639"/>
      <point x="99.6084" y="635.638" type="curve" smooth="yes"/>
      <point x="100.357" y="635.697"/>
      <point x="101.074" y="635.72"/>
    </contour>
    <contour>
      <point x="278.521" y="513.347" type="curve" smooth="yes"/>
      <point x="288.074" y="513.251"/>
      <point x="295.354" y="511.997"/>
      <point x="295.289" y="508.349" type="curve" smooth="yes"/>
      <point x="295.159" y="500.137"/>
      <point x="261.522" y="498.531"/>
      <point x="254.842" y="496.645" type="curve" smooth="yes"/>
      <point x="245.538" y="494.021"/>
      <point x="237.86" y="487.765"/>
      <point x="228.817" y="484.495" type="curve"/>
      <point x="228.817" y="479.724" type="line"/>
      <point x="246.21" y="474.433"/>
      <point x="216.187" y="474.812"/>
      <point x="194" y="466" type="curve" smooth="yes"/>
      <point x="168.496" y="455.873"/>
      <point x="110.951" y="468.7"/>
      <point x="95.9424" y="436.76" type="curve" smooth="yes"/>
      <point x="90.0654" y="424.253"/>
      <point x="93.4922" y="412.933"/>
      <point x="92.7979" y="399.116" type="curve" smooth="yes"/>
      <point x="92.082" y="385.137"/>
      <point x="82.3643" y="363.723"/>
      <point x="95.876" y="353.227" type="curve" smooth="yes"/>
      <point x="109.257" y="342.835"/>
      <point x="181.799" y="350.471"/>
      <point x="198.455" y="351.637" type="curve" smooth="yes"/>
      <point x="203.074" y="351.959"/>
      <point x="222.183" y="350.673"/>
      <point x="220.317" y="339.705" type="curve" smooth="yes"/>
      <point x="218.322" y="327.942"/>
      <point x="191.93" y="330.415"/>
      <point x="184.534" y="330.002" type="curve" smooth="yes"/>
      <point x="148.491" y="327.999"/>
      <point x="82.8662" y="331.538"/>
      <point x="91.2158" y="282.044" type="curve"/>
      <point x="121.882" y="291.963"/>
      <point x="173.886" y="309.47"/>
      <point x="207.133" y="309.978" type="curve" smooth="yes"/>
      <point x="218.692" y="310.154"/>
      <point x="231.141" y="313.781"/>
      <point x="237.494" y="301.122" type="curve"/>
      <point x="199.672" y="287.856"/>
      <point x="106.57" y="292.239"/>
      <point x="88.4834" y="241.508" type="curve" smooth="yes"/>
      <point x="80.502" y="219.112"/>
      <point x="87.4629" y="191.586"/>
      <point x="86.79" y="167.819" type="curve" smooth="yes"/>
      <point x="86.1396" y="145.513"/>
      <point x="79.8076" y="165.046"/>
      <point x="93.3848" y="145.67" type="curve"/>
      <point x="93.3848" y="143.286" type="line"/>
      <point x="93.3848" y="140.902" type="line"/>
      <point x="82.2373" y="127.821"/>
      <point x="85.6826" y="102.734"/>
      <point x="86.875" y="86.0596" type="curve"/>
      <point x="91.2158" y="93.2109" type="line"/>
      <point x="93.3848" y="93.2109" type="line"/>
      <point x="92.1055" y="82.624"/>
      <point x="87.4512" y="63.3398"/>
      <point x="96.8203" y="54.3652" type="curve" smooth="yes"/>
      <point x="105.126" y="46.4219"/>
      <point x="124.298" y="38.9023"/>
      <point x="132.084" y="42.4307" type="curve" smooth="yes"/>
      <point x="159.69" y="54.9492"/>
      <point x="214.57" y="57.917"/>
      <point x="244" y="64" type="curve" smooth="yes"/>
      <point x="256.34" y="66.5518"/>
      <point x="281.76" y="79.8555"/>
      <point x="287.376" y="61.2109" type="curve"/>
      <point x="256.667" y="47.3574"/>
      <point x="231.77" y="32.8311"/>
      <point x="202.796" y="17.5322" type="curve" smooth="yes"/>
      <point x="175.361" y="3.04883"/>
      <point x="121.762" y="11.9219"/>
      <point x="95.2158" y="-5.09863" type="curve" smooth="yes"/>
      <point x="82.7021" y="-13.1182"/>
      <point x="61.5781" y="-44.3545"/>
      <point x="46.1357" y="-31.6045" type="curve" smooth="yes"/>
      <point x="27.0947" y="-15.9004"/>
      <point x="59.7119" y="9.81738"/>
      <point x="63.9404" y="24.0625" type="curve" smooth="yes"/>
      <point x="77.9072" y="71.1553"/>
      <point x="62.6816" y="134.8"/>
      <point x="62.6816" y="183.822" type="curve"/>
      <point x="56.1768" y="183.822" type="line"/>
      <point x="56.1768" y="186.206" type="line"/>
      <point x="75.6729" y="200.101"/>
      <point x="64.2861" y="221.81"/>
      <point x="62.6816" y="244.124" type="curve"/>
      <point x="56.1768" y="246.508" type="line"/>
      <point x="67.5186" y="258.578"/>
      <point x="68.1045" y="276.826"/>
      <point x="60.5137" y="291.815" type="curve"/>
      <point x="70.4463" y="311.988"/>
      <point x="57.4775" y="320.396"/>
      <point x="57.9326" y="339.503" type="curve" smooth="yes"/>
      <point x="58.6484" y="370.026"/>
      <point x="71.3594" y="390.882"/>
      <point x="71.3594" y="422.497" type="curve"/>
      <point x="62.6816" y="420.113" type="line"/>
      <point x="65.4365" y="429.842"/>
      <point x="72.2461" y="437.718"/>
      <point x="66.6289" y="448.434" type="curve" smooth="yes"/>
      <point x="62.2695" y="456.748"/>
      <point x="26.6826" y="464.571"/>
      <point x="44.0977" y="482.665" type="curve" smooth="yes"/>
      <point x="64.7227" y="504.072"/>
      <point x="113.952" y="488.279"/>
      <point x="138.587" y="487.514" type="curve" smooth="yes"/>
      <point x="165.415" y="486.68"/>
      <point x="209.626" y="507.054"/>
      <point x="235.326" y="509.89" type="curve" smooth="yes"/>
      <point x="240.368" y="510.446"/>
      <point x="262.599" y="513.506"/>
    </contour>
  </outline>
</glyph>
<glyph name="uni0410" format="2">
  <advance width="258"/>
  <unicode hex="0410"/>
  <outline>
    <contour>
      <point x="46" y="-59" type="line"/>
      <point x="43" y="-60" type="line"/>
      <point x="43" y="-62" type="line"/>
      <point x="46" y="-64" type="line"/>
    </contour>
    <contour>
      <point x="58" y="-12" type="line"/>
      <point x="57" y="-19" type="line"/>
      <point x="65" y="-21" type="line"/>
      <point x="63" y="-12" type="line"/>
    </contour>
    <contour>
      <point x="185" y="233" type="curve" smooth="yes"/>
      <point x="176" y="233"/>
      <point x="176" y="225"/>
      <point x="168" y="222" type="curve" smooth="yes"/>
      <point x="166" y="221" type="line" smooth="yes"/>
      <point x="159" y="217"/>
      <point x="141.341" y="214.226"/>
      <point x="142.688" y="205.046" type="curve"/>
      <point x="156.484" y="209.392"/>
      <point x="175.458" y="208.149"/>
      <point x="187.35" y="217.342" type="curve" smooth="yes"/>
      <point x="192.544" y="221.355"/>
      <point x="193" y="233"/>
    </contour>
    <contour>
      <point x="182.969" y="435.069" type="line"/>
      <point x="164.799" y="400.485"/>
      <point x="123.918" y="366.238"/>
      <point x="105.507" y="331.668" type="curve" smooth="yes"/>
      <point x="96.5713" y="314.888"/>
      <point x="82.8359" y="296.9"/>
      <point x="78.3281" y="278.244" type="curve" smooth="yes"/>
      <point x="69.7666" y="242.812"/>
      <point x="93.2002" y="242.016"/>
      <point x="82.1377" y="210.217" type="curve"/>
      <point x="97.6436" y="207.68"/>
      <point x="160.25" y="231.365"/>
      <point x="176" y="238" type="curve" smooth="yes"/>
      <point x="182.836" y="240.881"/>
      <point x="185.725" y="241.093"/>
      <point x="189.749" y="248.315" type="curve" smooth="yes"/>
      <point x="197.144" y="261.583"/>
      <point x="190.946" y="288.347"/>
      <point x="191.57" y="303.275" type="curve" smooth="yes"/>
      <point x="193.145" y="340.88"/>
      <point x="190.542" y="378.015"/>
      <point x="189.612" y="415.292" type="curve" smooth="yes"/>
      <point x="189.156" y="433.518"/>
      <point x="191.686" y="416.966"/>
      <point x="186.384" y="435.069" type="curve"/>
    </contour>
    <contour>
      <point x="213" y="520" type="curve" smooth="yes"/>
      <point x="217" y="520"/>
      <point x="221" y="517"/>
      <point x="223" y="508" type="curve" smooth="yes"/>
      <point x="228" y="488"/>
      <point x="222" y="465"/>
      <point x="221" y="445" type="curve" smooth="yes"/>
      <point x="220" y="416"/>
      <point x="221" y="386"/>
      <point x="224" y="358" type="curve"/>
      <point x="219" y="358" type="line"/>
      <point x="224" y="331" type="line"/>
      <point x="224" y="329" type="line"/>
      <point x="212" y="313"/>
      <point x="218" y="265"/>
      <point x="218" y="245" type="curve" smooth="yes"/>
      <point x="219" y="235"/>
      <point x="222" y="223"/>
      <point x="233" y="229" type="curve"/>
      <point x="238" y="217"/>
      <point x="230" y="214"/>
      <point x="223" y="205" type="curve"/>
      <point x="228" y="205" type="line"/>
      <point x="228" y="203" type="line"/>
      <point x="216" y="196"/>
      <point x="221" y="170"/>
      <point x="221" y="157" type="curve" smooth="yes"/>
      <point x="220" y="120"/>
      <point x="223" y="67"/>
      <point x="221" y="30" type="curve" smooth="yes"/>
      <point x="221" y="21"/>
      <point x="228" y="7"/>
      <point x="222" y="-2" type="curve" smooth="yes"/>
      <point x="219" y="-7"/>
      <point x="204" y="-3"/>
      <point x="204" y="1" type="curve" smooth="yes"/>
      <point x="201" y="15"/>
      <point x="202" y="30"/>
      <point x="200" y="44" type="curve" smooth="yes"/>
      <point x="192" y="90"/>
      <point x="197" y="149"/>
      <point x="192" y="195" type="curve"/>
      <point x="167" y="189"/>
      <point x="102" y="175"/>
      <point x="86" y="153" type="curve"/>
      <point x="84.8086" y="151.963" type="line"/>
      <point x="76.1094" y="127.86"/>
      <point x="80.5977" y="99.3115"/>
      <point x="78.2598" y="74.0723" type="curve" smooth="yes"/>
      <point x="77.3037" y="63.7471"/>
      <point x="75.6426" y="48.1299"/>
      <point x="82.1377" y="39.6045" type="curve"/>
      <point x="82.1377" y="37.8809" type="line"/>
      <point x="69.416" y="29.3076"/>
      <point x="80.2725" y="-10.4717"/>
      <point x="79.2549" y="-24.1553" type="curve" smooth="yes"/>
      <point x="78.0176" y="-40.8057"/>
      <point x="64.3311" y="-33.334"/>
      <point x="58.2393" y="-25.8818" type="curve"/>
      <point x="55.2627" y="-47.9062"/>
      <point x="51.0723" y="-75.0391"/>
      <point x="41.1699" y="-94.8164" type="curve"/>
      <point x="32.6338" y="-89.0449"/>
      <point x="38.0938" y="-79.3936"/>
      <point x="39.6104" y="-70.6875" type="curve" smooth="yes"/>
      <point x="43.3428" y="-49.2773"/>
      <point x="44.5205" y="-27.127"/>
      <point x="46.1387" y="-5.20117" type="curve" smooth="yes"/>
      <point x="52.8389" y="85.5566"/>
      <point x="54.8408" y="176.204"/>
      <point x="46.292" y="265.361" type="curve"/>
      <point x="5.3252" y="227.45" type="line"/>
      <point x="3.22949" y="242.429"/>
      <point x="27.6865" y="269.333"/>
      <point x="35.5205" y="282.75" type="curve" smooth="yes"/>
      <point x="41.9277" y="293.72"/>
      <point x="42.8398" y="308.648"/>
      <point x="49.4619" y="318.562" type="curve" smooth="yes"/>
      <point x="53.5215" y="324.638"/>
      <point x="61.1504" y="326.879"/>
      <point x="65.6074" y="332.733" type="curve" smooth="yes"/>
      <point x="104.405" y="384.42"/>
      <point x="150.752" y="423.728"/>
      <point x="176.585" y="482.502" type="curve" smooth="yes"/>
      <point x="177.368" y="483.614"/>
      <point x="177.766" y="483.771"/>
      <point x="178.179" y="484.259" type="curve" smooth="yes"/>
      <point x="178.293" y="484.226" type="line"/>
      <point x="182.082" y="492.314"/>
      <point x="200" y="520"/>
    </contour>
  </outline>
</glyph>
<glyph name="uni0412" format="2">
  <advance width="294"/>
  <unicode hex="0412"/>
  <outline>
    <contour>
      <point x="55.4678" y="507.111" type="curve" smooth="yes"/>
      <point x="55.4688" y="507.111" type="line" smooth="yes"/>
      <point x="57.1025" y="507.207"/>
      <point x="58.7705" y="506.751"/>
      <point x="60.3438" y="505.549" type="curve" smooth="yes"/>
      <point x="78.75" y="491.488"/>
      <point x="97.9873" y="489.238"/>
      <point x="123.146" y="485.742" type="curve" smooth="yes"/>
      <point x="136.252" y="483.921"/>
      <point x="175.456" y="482.711"/>
      <point x="187.206" y="488.964" type="curve" smooth="yes"/>
      <point x="194.642" y="492.921"/>
      <point x="198.015" y="508.336"/>
      <point x="208.279" y="506.633" type="curve" smooth="yes"/>
      <point x="215.479" y="505.439"/>
      <point x="213.5" y="493.973"/>
      <point x="215.438" y="488.943" type="curve" smooth="yes"/>
      <point x="221.357" y="473.582"/>
      <point x="222.616" y="433.005"/>
      <point x="215.254" y="415.46" type="curve"/>
      <point x="215.254" y="430.775" type="line"/>
      <point x="213.482" y="430.775" type="line"/>
      <point x="212.146" y="413.83"/>
      <point x="207.057" y="413.952"/>
      <point x="213.482" y="397.634" type="curve"/>
      <point x="208.171" y="395.862" type="line"/>
      <point x="231.231" y="378.988"/>
      <point x="213.21" y="376.086"/>
      <point x="199.312" y="356.352" type="curve"/>
      <point x="224.113" y="359.896" type="line"/>
      <point x="224.113" y="356.352" type="line"/>
      <point x="193.967" y="340.946"/>
      <point x="139.793" y="298.594"/>
      <point x="132.001" y="266.012" type="curve"/>
      <point x="156.279" y="256.443"/>
      <point x="170.246" y="234.497"/>
      <point x="197.541" y="231.432" type="curve" smooth="yes"/>
      <point x="213.171" y="229.676"/>
      <point x="226.438" y="254.445"/>
      <point x="236.247" y="245.954" type="curve" smooth="yes"/>
      <point x="249.896" y="234.141"/>
      <point x="238.342" y="216.046"/>
      <point x="236.28" y="202.244" type="curve" smooth="yes"/>
      <point x="230.824" y="165.717"/>
      <point x="222.037" y="113.808"/>
      <point x="231.195" y="76.6504" type="curve"/>
      <point x="231.195" y="76.6504"/>
      <point x="230.634" y="41.043"/>
      <point x="231.195" y="36.0195" type="curve" smooth="yes"/>
      <point x="232.662" y="30.2842"/>
      <point x="201.963" y="10.7861"/>
      <point x="192.093" y="22.6455" type="curve" smooth="yes"/>
      <point x="188.196" y="27.3291"/>
      <point x="195.032" y="68.8857"/>
      <point x="193.73" y="74.8779" type="curve" smooth="yes"/>
      <point x="189.062" y="96.3613"/>
      <point x="202.675" y="155.102"/>
      <point x="186.938" y="170.903" type="curve"/>
      <point x="206.96" y="216.919"/>
      <point x="181.811" y="204.146"/>
      <point x="158.87" y="218.596" type="curve" smooth="yes"/>
      <point x="150.329" y="223.976"/>
      <point x="125.354" y="251.142"/>
      <point x="114.219" y="246.669" type="curve" smooth="yes"/>
      <point x="104.916" y="242.93"/>
      <point x="88.1729" y="220.232"/>
      <point x="84.3525" y="211.099" type="curve" smooth="yes"/>
      <point x="78.6826" y="197.541"/>
      <point x="82.4375" y="171.503"/>
      <point x="81.791" y="156.733" type="curve" smooth="yes"/>
      <point x="80.6152" y="129.891"/>
      <point x="75.3154" y="62.5205"/>
      <point x="73.0039" y="36.0195" type="curve"/>
      <point x="71.2324" y="36.0195" type="line"/>
      <point x="71.2324" y="74.8779" type="line"/>
      <point x="69.4609" y="74.8779" type="line"/>
      <point x="63.6348" y="59.7334"/>
      <point x="60.6533" y="27.5186"/>
      <point x="43.1455" y="17.9082" type="curve"/>
      <point x="44.917" y="12.5928" type="line"/>
      <point x="73.0039" y="14.3643" type="line"/>
      <point x="73.9746" y="9.15527"/>
      <point x="73.6826" y="-2.02051"/>
      <point x="80.3516" y="-3.24414" type="curve" smooth="yes"/>
      <point x="96.0088" y="-6.12109"/>
      <point x="117.374" y="13.5801"/>
      <point x="132" y="7" type="curve" smooth="yes"/>
      <point x="163.634" y="-7.23145"/>
      <point x="176" y="12"/>
      <point x="230.774" y="10.6514" type="curve" smooth="yes"/>
      <point x="238.042" y="10.4727"/>
      <point x="252.618" y="18.7695"/>
      <point x="255.495" y="11.9727" type="curve" smooth="yes"/>
      <point x="258.588" y="4.66797"/>
      <point x="237.248" y="-1.46387"/>
      <point x="231.282" y="-3.10156" type="curve" smooth="yes"/>
      <point x="187.583" y="-15.1084"/>
      <point x="150.888" y="-24.8525"/>
      <point x="107.203" y="-37.4453" type="curve" smooth="yes"/>
      <point x="93.8682" y="-41.2891"/>
      <point x="63.2334" y="-27.9707"/>
      <point x="51.5469" y="-37.0049" type="curve"/>
      <point x="49.7754" y="-37.0049" type="line"/>
      <point x="34.8271" y="-16.5986"/>
      <point x="43.4326" y="-8.51074"/>
      <point x="43.1455" y="14.3643" type="curve"/>
      <point x="37.834" y="14.3643" type="line"/>
      <point x="41.5186" y="43.1064" type="line"/>
      <point x="43.748" y="51.9961" type="line"/>
      <point x="31.834" y="84.2188" type="line"/>
      <point x="36.3486" y="114.331" type="line"/>
      <point x="36.3486" y="116.103" type="line"/>
      <point x="46.0107" y="128.858"/>
      <point x="41.0078" y="165.341"/>
      <point x="41.6631" y="181.643" type="curve"/>
      <point x="41.9033" y="181.563"/>
      <point x="41.6631" y="185.186"/>
      <point x="41.6631" y="185.186" type="curve" smooth="yes"/>
      <point x="40.2461" y="203.285"/>
      <point x="51.0996" y="237.704"/>
      <point x="39.8916" y="252.497" type="curve"/>
      <point x="39.8916" y="254.269" type="line"/>
      <point x="39.8916" y="256.04" type="line"/>
      <point x="48.6562" y="267.551"/>
      <point x="44.5537" y="291.56"/>
      <point x="45.3555" y="305.638" type="curve" smooth="yes"/>
      <point x="47.9209" y="350.675"/>
      <point x="43.4873" y="403.966"/>
      <point x="43.4316" y="448.489" type="curve" smooth="yes"/>
      <point x="43.4121" y="464.154"/>
      <point x="37.4688" y="490.158"/>
      <point x="48.2148" y="502.988" type="curve" smooth="yes"/>
      <point x="50.124" y="505.267"/>
      <point x="52.7461" y="506.951"/>
    </contour>
    <contour>
      <point x="171.395" y="458.744" type="curve" smooth="yes"/>
      <point x="151.967" y="458.614"/>
      <point x="120.799" y="454.125"/>
      <point x="106.66" y="451.255" type="curve" smooth="yes"/>
      <point x="97.8311" y="449.462"/>
      <point x="89.2129" y="450.571"/>
      <point x="84.1934" y="441.41" type="curve" smooth="yes"/>
      <point x="72.0244" y="419.203"/>
      <point x="82.8115" y="409.428"/>
      <point x="81.791" y="385.235" type="curve" smooth="yes"/>
      <point x="80.8916" y="363.908"/>
      <point x="83.083" y="345.768"/>
      <point x="83.6035" y="324.467" type="curve" smooth="yes"/>
      <point x="83.7168" y="319.83"/>
      <point x="81.1523" y="304.655"/>
      <point x="86.4658" y="302.292" type="curve" smooth="yes"/>
      <point x="93.1846" y="299.304"/>
      <point x="102.98" y="313.403"/>
      <point x="106.748" y="317.245" type="curve" smooth="yes"/>
      <point x="118.357" y="329.088"/>
      <point x="143.488" y="355.19"/>
      <point x="160.341" y="354.579" type="curve"/>
      <point x="160.341" y="351.036" type="line"/>
      <point x="124.136" y="332.874"/>
      <point x="80.0107" y="284.105"/>
      <point x="85.4023" y="241.214" type="curve"/>
      <point x="109.663" y="245.038"/>
      <point x="91.835" y="263.67"/>
      <point x="99.3086" y="273.958" type="curve" smooth="yes"/>
      <point x="104.249" y="280.759"/>
      <point x="114.304" y="278.503"/>
      <point x="121.001" y="284.582" type="curve" smooth="yes"/>
      <point x="136.6" y="298.742"/>
      <point x="153.338" y="340.612"/>
      <point x="174.515" y="343.949" type="curve"/>
      <point x="175.96" y="357.267"/>
      <point x="179.209" y="362.078"/>
      <point x="182.728" y="374.604" type="curve" smooth="yes"/>
      <point x="185.126" y="383.146"/>
      <point x="180.239" y="393.813"/>
      <point x="180.844" y="402.948" type="curve" smooth="yes"/>
      <point x="181.476" y="412.531"/>
      <point x="182.717" y="425.405"/>
      <point x="173.598" y="431.289" type="curve"/>
      <point x="183.081" y="443.099"/>
      <point x="185.491" y="440.677"/>
      <point x="186.369" y="455.658" type="curve"/>
      <point x="180.282" y="457.962"/>
      <point x="180.226" y="458.804"/>
    </contour>
    <contour>
      <point x="59.374" y="228.812" type="line"/>
      <point x="59.374" y="223.5" type="line"/>
      <point x="64.6885" y="225.272" type="line"/>
      <point x="64.6885" y="227.044" type="line"/>
    </contour>
  </outline>
</glyph>
<glyph name="uni0415" format="2">
  <advance width="288"/>
  <unicode hex="0415"/>
  <outline>
    <contour>
      <point x="73.8018" y="509.627" type="curve"/>
      <point x="94.6846" y="509.1"/>
      <point x="107.977" y="486.039"/>
      <point x="135.224" y="482.378" type="curve" smooth="yes"/>
      <point x="150.733" y="480.295"/>
      <point x="177.419" y="478.854"/>
      <point x="192.889" y="480.939" type="curve" smooth="yes"/>
      <point x="198.224" y="481.758"/>
      <point x="228.137" y="486.688"/>
      <point x="206.875" y="483.287" type="curve"/>
      <point x="216.435" y="483.345" type="line" smooth="yes"/>
      <point x="227.573" y="483.345"/>
      <point x="241.263" y="485.655"/>
      <point x="250.564" y="477.949" type="curve" smooth="yes"/>
      <point x="254.478" y="474.707"/>
      <point x="261.346" y="476.289"/>
      <point x="254.249" y="472.505" type="curve" smooth="yes"/>
      <point x="250.066" y="470.275"/>
      <point x="167.274" y="475.704"/>
      <point x="216.435" y="457.858" type="curve"/>
      <point x="201.45" y="444.552" type="line"/>
      <point x="199.309" y="444.552" type="line"/>
      <point x="197.167" y="444.552" type="line"/>
      <point x="180.266" y="459.849"/>
      <point x="141.639" y="457.062"/>
      <point x="120.238" y="465.701" type="curve" smooth="yes"/>
      <point x="115.029" y="467.804"/>
      <point x="88.4473" y="474.604"/>
      <point x="83.6689" y="469.137" type="curve" smooth="yes"/>
      <point x="78.9736" y="463.768"/>
      <point x="86.8115" y="443.203"/>
      <point x="86.8291" y="435.678" type="curve" smooth="yes"/>
      <point x="86.8809" y="409.172"/>
      <point x="85.1338" y="382.643"/>
      <point x="84.6348" y="355.829" type="curve" smooth="yes"/>
      <point x="84.4697" y="346.99"/>
      <point x="81.585" y="330.658"/>
      <point x="88.123" y="323.643" type="curve" smooth="yes"/>
      <point x="93.9824" y="317.354"/>
      <point x="121.122" y="320.181"/>
      <point x="128.804" y="320.376" type="curve" smooth="yes"/>
      <point x="156.868" y="321.088"/>
      <point x="188.297" y="333.245"/>
      <point x="216.312" y="328.135" type="curve" smooth="yes"/>
      <point x="234.982" y="324.729"/>
      <point x="211.189" y="316.096"/>
      <point x="207.874" y="308.725" type="curve"/>
      <point x="212.654" y="308.667"/>
      <point x="229.862" y="308.182"/>
      <point x="223.391" y="298.553" type="curve" smooth="yes"/>
      <point x="217.069" y="289.146"/>
      <point x="194.298" y="293.127"/>
      <point x="184.323" y="288.873" type="curve" smooth="yes"/>
      <point x="156.519" y="277.009"/>
      <point x="97.9668" y="241.832"/>
      <point x="88.6865" y="209.44" type="curve" smooth="yes"/>
      <point x="85.4814" y="198.257"/>
      <point x="87.082" y="166.482"/>
      <point x="87.1123" y="154.953" type="curve"/>
      <point x="89.2529" y="154.953" type="line"/>
      <point x="89.2529" y="166.041" type="line"/>
      <point x="91.3945" y="166.041" type="line"/>
      <point x="90.1182" y="121.257"/>
      <point x="88.707" y="118.425"/>
      <point x="92.8135" y="72.9629" type="curve" smooth="yes"/>
      <point x="93.9375" y="60.5146"/>
      <point x="104.567" y="33.3662"/>
      <point x="118.554" y="27.2441" type="curve" smooth="yes"/>
      <point x="125.467" y="24.2188"/>
      <point x="136.863" y="29.624"/>
      <point x="143.926" y="31.0234" type="curve" smooth="yes"/>
      <point x="169.978" y="36.1914"/>
      <point x="198.293" y="47.3408"/>
      <point x="225" y="51" type="curve"/>
      <point x="225" y="48.7822" type="line"/>
      <point x="218.576" y="46.5635" type="line"/>
      <point x="259.252" y="28.8203" type="line"/>
      <point x="251.881" y="10.8252"/>
      <point x="229.725" y="23.2412"/>
      <point x="214.298" y="21.957" type="curve" smooth="yes"/>
      <point x="187.778" y="19.7471"/>
      <point x="137.05" y="4.88867"/>
      <point x="116.097" y="-11.9082" type="curve" smooth="yes"/>
      <point x="106.844" y="-19.3252"/>
      <point x="81.4697" y="-41.165"/>
      <point x="67.9629" y="-34.5" type="curve" smooth="yes"/>
      <point x="40.2432" y="-20.8193"/>
      <point x="74.4814" y="6.61816"/>
      <point x="67.4209" y="24.1641" type="curve"/>
      <point x="76.9434" y="25.6191"/>
      <point x="70.2832" y="57.4346"/>
      <point x="69.668" y="66.3066" type="curve" smooth="yes"/>
      <point x="66.6523" y="109.843"/>
      <point x="77.5078" y="113.55"/>
      <point x="75.5615" y="157.171" type="curve"/>
      <point x="67.001" y="157.171" type="line"/>
      <point x="71.2793" y="115.028" type="line"/>
      <point x="52.4932" y="108.452"/>
      <point x="59.7969" y="202.584"/>
      <point x="59.7129" y="218.313" type="curve" smooth="yes"/>
      <point x="59.4883" y="260.418"/>
      <point x="60.4199" y="303.315"/>
      <point x="57.043" y="344.741" type="curve" smooth="yes"/>
      <point x="55.832" y="359.626"/>
      <point x="48.6211" y="374.171"/>
      <point x="47.6592" y="388.898" type="curve" smooth="yes"/>
      <point x="47.0918" y="397.571"/>
      <point x="55.1572" y="404.489"/>
      <point x="53.9561" y="413.497" type="curve" smooth="yes"/>
      <point x="52.2227" y="426.532"/>
      <point x="35.6074" y="435.682"/>
      <point x="36.2363" y="448.797" type="curve" smooth="yes"/>
      <point x="36.9258" y="463.148"/>
      <point x="54.5908" y="462.173"/>
      <point x="56.0117" y="478.912" type="curve"/>
      <point x="49.5918" y="478.912" type="line"/>
      <point x="49.5918" y="481.131" type="line"/>
      <point x="57.8555" y="486.751"/>
      <point x="54.3145" y="493.665"/>
      <point x="49.5918" y="501.093" type="curve"/>
      <point x="59.0381" y="507.478"/>
      <point x="66.8398" y="509.804"/>
    </contour>
    <contour>
      <point x="188.606" y="315.38" type="line"/>
      <point x="184.41" y="314.57"/>
      <point x="139.7" y="311.671"/>
      <point x="153.685" y="300.283" type="curve" smooth="yes"/>
      <point x="160.64" y="294.619"/>
      <point x="184.214" y="305.364"/>
      <point x="192.889" y="306.507" type="curve"/>
    </contour>
    <contour>
      <point x="84.6885" y="293.2" type="line"/>
      <point x="84.6885" y="264.364" type="line"/>
      <point x="97.2461" y="262.525"/>
      <point x="121.263" y="275.494"/>
      <point x="126.662" y="286.544" type="curve"/>
    </contour>
    <contour>
      <point x="74.5674" y="227.922" type="line"/>
      <point x="73.8545" y="226.445" type="line"/>
    </contour>
    <contour>
      <point x="75.2793" y="222.746" type="line"/>
      <point x="71.001" y="218.313" type="line"/>
      <point x="75.2793" y="218.313" type="line"/>
    </contour>
    <contour>
      <point x="73.4209" y="161.604" type="line"/>
      <point x="71.2793" y="159.39" type="line"/>
    </contour>
  </outline>
</glyph>
<glyph name="uni041A" format="2">
  <advance width="293"/>
  <unicode hex="041A"/>
  <outline>
    <contour>
      <point x="244.101" y="520.237" type="curve"/>
      <point x="246.876" y="520.101"/>
      <point x="249.939" y="518.453"/>
      <point x="253.344" y="514.779" type="curve" smooth="yes"/>
      <point x="271.912" y="494.747"/>
      <point x="237.74" y="461.97"/>
      <point x="224.441" y="448.38" type="curve" smooth="yes"/>
      <point x="205.315" y="428.842"/>
      <point x="153.232" y="392.469"/>
      <point x="155.842" y="363.191" type="curve" smooth="yes"/>
      <point x="156.602" y="354.625"/>
      <point x="167.011" y="354.873"/>
      <point x="172.812" y="350.176" type="curve" smooth="yes"/>
      <point x="184.338" y="340.839"/>
      <point x="184.263" y="325.181"/>
      <point x="197.258" y="315.902" type="curve"/>
      <point x="200.222" y="327.884"/>
      <point x="199.005" y="341.027"/>
      <point x="192.19" y="351.833" type="curve"/>
      <point x="218.257" y="381.992"/>
      <point x="229.305" y="348.271"/>
      <point x="229.508" y="324.886" type="curve" smooth="yes"/>
      <point x="230.142" y="255.901"/>
      <point x="231.229" y="183.68"/>
      <point x="245.389" y="116.054" type="curve"/>
      <point x="235.259" y="113.808" type="line"/>
      <point x="233.638" y="80.5498"/>
      <point x="249.722" y="50.4092"/>
      <point x="278.676" y="28.3066" type="curve" smooth="yes"/>
      <point x="288.1" y="21.123"/>
      <point x="332.936" y="11.6211"/>
      <point x="331.061" y="-0.242188" type="curve" smooth="yes"/>
      <point x="328.68" y="-15.3408"/>
      <point x="283.286" y="0.22168"/>
      <point x="273.255" y="1.53125" type="curve"/>
      <point x="279.36" y="-10.0312"/>
      <point x="313.252" y="-30.21"/>
      <point x="313.252" y="-38.6514" type="curve" smooth="yes"/>
      <point x="313.252" y="-57.8867"/>
      <point x="277.585" y="-32.5928"/>
      <point x="273.531" y="-29.5898" type="curve" smooth="yes"/>
      <point x="249.998" y="-12.1543"/>
      <point x="228.62" y="23.3633"/>
      <point x="217.93" y="48.6875" type="curve" smooth="yes"/>
      <point x="188.874" y="117.501"/>
      <point x="191.101" y="196.248"/>
      <point x="166.858" y="264.258" type="curve"/>
      <point x="169.392" y="264.258" type="line"/>
      <point x="174.459" y="259.766" type="line"/>
      <point x="174.459" y="284.312"/>
      <point x="160.172" y="302.996"/>
      <point x="149.127" y="324.886" type="curve"/>
      <point x="162.351" y="321.955"/>
      <point x="146.9" y="340.02"/>
      <point x="138.997" y="340.604" type="curve" smooth="yes"/>
      <point x="128.991" y="341.342"/>
      <point x="124.453" y="325.253"/>
      <point x="121.261" y="320.394" type="curve" smooth="yes"/>
      <point x="111.964" y="306.27"/>
      <point x="98.9971" y="289.661"/>
      <point x="88.332" y="275.483" type="curve" smooth="yes"/>
      <point x="65.2549" y="244.814"/>
      <point x="78.1973" y="214.769"/>
      <point x="78.1973" y="178.928" type="curve" smooth="yes"/>
      <point x="78.1973" y="132.783"/>
      <point x="77.8701" y="85.7754"/>
      <point x="90.8662" y="39.708" type="curve" smooth="yes"/>
      <point x="97.3506" y="16.7148"/>
      <point x="83.2646" y="5.60645"/>
      <point x="83.2646" y="-11.9404" type="curve"/>
      <point x="48.8135" y="-7.80664"/>
      <point x="38.4502" y="-0.540039"/>
      <point x="47.7979" y="28.4785" type="curve"/>
      <point x="40.2012" y="28.4785" type="line"/>
      <point x="46.0781" y="77.6729"/>
      <point x="42.959" y="125.486"/>
      <point x="44.251" y="174.437" type="curve" smooth="yes"/>
      <point x="45.1377" y="207.043"/>
      <point x="51.1436" y="242.049"/>
      <point x="37.667" y="273.241" type="curve"/>
      <point x="42.3027" y="272.213"/>
      <point x="48.916" y="316.428"/>
      <point x="45.2686" y="329.378" type="curve" smooth="yes"/>
      <point x="32.5264" y="374.535"/>
      <point x="51.2705" y="424.824"/>
      <point x="37.667" y="473.09" type="curve" smooth="yes"/>
      <point x="32.5508" y="491.225"/>
      <point x="45.0645" y="515.351"/>
      <point x="63" y="518" type="curve"/>
      <point x="84.3799" y="498.678"/>
      <point x="74.5234" y="487.826"/>
      <point x="73.2314" y="461.864" type="curve" smooth="yes"/>
      <point x="71.7119" y="431.602"/>
      <point x="73.1299" y="401.966"/>
      <point x="73.1299" y="372.042" type="curve"/>
      <point x="75.6641" y="372.042" type="line"/>
      <point x="75.6641" y="376.534" type="line"/>
      <point x="78.1982" y="376.534" type="line"/>
      <point x="73.1299" y="324.886" type="line"/>
      <point x="87.5947" y="331.355"/>
      <point x="85.1123" y="345.448"/>
      <point x="96.2578" y="354.998" type="curve" smooth="yes"/>
      <point x="139.171" y="391.732"/>
      <point x="173.702" y="433.098"/>
      <point x="215.349" y="471.157" type="curve" smooth="yes"/>
      <point x="222.466" y="477.659"/>
      <point x="229.11" y="520.98"/>
    </contour>
    <contour>
      <point x="225.124" y="167.703" type="line"/>
      <point x="222.591" y="147.489" type="line"/>
      <point x="227.658" y="147.489" type="line"/>
      <point x="232.721" y="160.965" type="line"/>
    </contour>
  </outline>
</glyph>
<glyph name="uni041D" format="2">
  <advance width="338"/>
  <unicode hex="041D"/>
  <outline>
    <contour>
      <point x="79.6465" y="516.326" type="curve" smooth="yes"/>
      <point x="80.2842" y="516.275"/>
      <point x="80.9375" y="516.168"/>
      <point x="81.6104" y="516.006" type="curve" smooth="yes"/>
      <point x="88.8711" y="514.263"/>
      <point x="86.8057" y="502.72"/>
      <point x="87.458" y="498.322" type="curve" smooth="yes"/>
      <point x="90.3506" y="478.879"/>
      <point x="88.875" y="459.764"/>
      <point x="89.9531" y="440.436" type="curve" smooth="yes"/>
      <point x="91.6279" y="410.474"/>
      <point x="65.4297" y="348.858"/>
      <point x="85.3691" y="322.21" type="curve" smooth="yes"/>
      <point x="95.9209" y="308.132"/>
      <point x="136.28" y="300.185"/>
      <point x="154.688" y="292.23" type="curve" smooth="yes"/>
      <point x="171.11" y="285.128"/>
      <point x="221.714" y="259.018"/>
      <point x="240.292" y="267.314" type="curve" smooth="yes"/>
      <point x="257.99" y="275.215"/>
      <point x="247.068" y="303.533"/>
      <point x="248.629" y="316.229" type="curve" smooth="yes"/>
      <point x="254.981" y="367.139"/>
      <point x="223.812" y="446.496"/>
      <point x="245" y="496" type="curve" smooth="yes"/>
      <point x="253.793" y="516.513"/>
      <point x="291.28" y="491.716"/>
      <point x="268.816" y="476.876" type="curve"/>
      <point x="285.833" y="401.838" type="line"/>
      <point x="285.833" y="399.694" type="line"/>
      <point x="261.241" y="379.873"/>
      <point x="276.959" y="311.489"/>
      <point x="277.327" y="286.072" type="curve" smooth="yes"/>
      <point x="278.547" y="195.582"/>
      <point x="267.459" y="95.9609"/>
      <point x="283.116" y="6.42285" type="curve"/>
      <point x="280.279" y="6.42285" type="line"/>
      <point x="274.61" y="10.7119" type="line"/>
      <point x="280.279" y="-17.1572" type="line"/>
      <point x="224.814" y="-8.93164"/>
      <point x="253.339" y="102.208"/>
      <point x="243.779" y="129.709" type="curve" smooth="yes"/>
      <point x="243.836" y="140.223"/>
      <point x="251.068" y="154.367"/>
      <point x="245.396" y="164.007" type="curve" smooth="yes"/>
      <point x="235.724" y="180.356"/>
      <point x="208.608" y="185.777"/>
      <point x="188.726" y="192.056" type="curve" smooth="yes"/>
      <point x="151.967" y="203.665"/>
      <point x="119.703" y="216.632"/>
      <point x="82.9443" y="228.186" type="curve"/>
      <point x="88.6182" y="213.18" type="line"/>
      <point x="76.8477" y="215.405"/>
      <point x="76.3916" y="183.674"/>
      <point x="80.1074" y="172.444" type="curve" smooth="yes"/>
      <point x="91.1973" y="138.872"/>
      <point x="80.5332" y="96.2861"/>
      <point x="80.5332" y="68.8545" type="curve" smooth="yes"/>
      <point x="80.5332" y="55.9482"/>
      <point x="67.9414" y="44.6699"/>
      <point x="89.0439" y="36.6924" type="curve"/>
      <point x="89.0439" y="30.2637" type="line"/>
      <point x="68.083" y="13.9785"/>
      <point x="93.1689" y="-40.2627"/>
      <point x="51.1064" y="-18.0107" type="curve"/>
      <point x="45.4326" y="-24.4395" type="line"/>
      <point x="46.7939" y="-8.92578"/>
      <point x="54.9053" y="2.52051"/>
      <point x="39.7588" y="16.2959" type="curve"/>
      <point x="39.7588" y="18.4395" type="line"/>
      <point x="39.7588" y="20.5801" type="line"/>
      <point x="45.4326" y="44.1641" type="line"/>
      <point x="42.5957" y="39.876" type="line"/>
      <point x="39.7588" y="39.876" type="line"/>
      <point x="73.5967" y="129.872"/>
      <point x="40.1543" y="227.612"/>
      <point x="46.6494" y="320.374" type="curve" smooth="yes"/>
      <point x="49.0039" y="354.127"/>
      <point x="48.6631" y="387.355"/>
      <point x="48.2656" y="421.148" type="curve" smooth="yes"/>
      <point x="48.0957" y="435.146"/>
      <point x="57.7129" y="446.225"/>
      <point x="51.0752" y="459.731" type="curve"/>
      <point x="53.9072" y="459.731" type="line"/>
      <point x="59.5811" y="457.587" type="line"/>
      <point x="62.1094" y="467.396"/>
      <point x="59.9023" y="517.891"/>
    </contour>
    <contour>
      <point x="85.7812" y="262.488" type="curve"/>
      <point x="82.6045" y="246.593"/>
      <point x="104.46" y="250.014"/>
      <point x="117.564" y="244.665" type="curve" smooth="yes"/>
      <point x="147.402" y="232.489"/>
      <point x="171.172" y="216.45"/>
      <point x="202.91" y="205.935" type="curve" smooth="yes"/>
      <point x="211.958" y="202.938"/>
      <point x="227.046" y="192.241"/>
      <point x="237.683" y="193.905" type="curve" smooth="yes"/>
      <point x="253.935" y="196.441"/>
      <point x="249.62" y="224.968"/>
      <point x="242.076" y="231.967" type="curve" smooth="yes"/>
      <point x="234.276" y="239.178"/>
      <point x="211.532" y="243.433"/>
      <point x="200.073" y="245.305" type="curve" smooth="yes"/>
      <point x="183.906" y="247.952"/>
      <point x="167.967" y="249.226"/>
      <point x="151.856" y="252.282" type="curve" smooth="yes"/>
      <point x="129.705" y="256.482"/>
      <point x="108.358" y="258.539"/>
    </contour>
  </outline>
</glyph>
<glyph name="uni0425" format="2">
  <advance width="304"/>
  <unicode hex="0425"/>
  <outline>
    <contour>
      <point x="132.906" y="232.843" type="curve" smooth="yes"/>
      <point x="137.335" y="236.882"/>
      <point x="89.5039" y="213.592"/>
      <point x="69.0742" y="202.348" type="curve" smooth="yes"/>
      <point x="50.3477" y="192.041"/>
      <point x="34.25" y="222.731"/>
      <point x="66" y="231" type="curve" smooth="yes"/>
      <point x="81.5918" y="235.061"/>
      <point x="117.62" y="251.993"/>
      <point x="116" y="269" type="curve" smooth="yes"/>
      <point x="114.983" y="279.674"/>
      <point x="110.778" y="271.641"/>
      <point x="105.573" y="281.296" type="curve" smooth="yes"/>
      <point x="100.621" y="290.481"/>
      <point x="108.753" y="302.994"/>
      <point x="97.8096" y="310.493" type="curve" smooth="yes"/>
      <point x="88.2285" y="317.043"/>
      <point x="70.3428" y="299.093"/>
      <point x="62.5137" y="317.304" type="curve" smooth="yes"/>
      <point x="56.8037" y="330.538"/>
      <point x="61.4971" y="348.762"/>
      <point x="61.8857" y="362.534" type="curve" smooth="yes"/>
      <point x="62.8379" y="396.691"/>
      <point x="66.2549" y="434.586"/>
      <point x="60.9775" y="468.332" type="curve" smooth="yes"/>
      <point x="59.2256" y="479.679"/>
      <point x="48.4336" y="510.298"/>
      <point x="64.8057" y="517.156" type="curve" smooth="yes"/>
      <point x="83.0117" y="523.626"/>
      <point x="106.5" y="489.518"/>
      <point x="103" y="474" type="curve"/>
      <point x="90.0234" y="475.89" type="line"/>
      <point x="91.2129" y="425.28"/>
      <point x="87.9688" y="367.042"/>
      <point x="121.838" y="322.859" type="curve" smooth="yes"/>
      <point x="129.277" y="313.128"/>
      <point x="156.29" y="286.635"/>
      <point x="171.646" y="289.186" type="curve" smooth="yes"/>
      <point x="183.93" y="291.227"/>
      <point x="212.9" y="313.785"/>
      <point x="215.776" y="322.859" type="curve" smooth="yes"/>
      <point x="225.076" y="352.285"/>
      <point x="229.248" y="375.54"/>
      <point x="231.974" y="403.956" type="curve" smooth="yes"/>
      <point x="233.293" y="417.773"/>
      <point x="241.144" y="431.321"/>
      <point x="229.486" y="443.771" type="curve"/>
      <point x="229.486" y="445.661" type="line"/>
      <point x="238.721" y="457.97"/>
      <point x="226.091" y="475.5"/>
      <point x="231.844" y="488.908" type="curve" smooth="yes"/>
      <point x="244.969" y="515.749"/>
      <point x="268.723" y="486.747"/>
      <point x="267.455" y="454.179" type="curve"/>
      <point x="262.755" y="437.364"/>
      <point x="272.741" y="433.566"/>
      <point x="275.423" y="417.104" type="curve" smooth="yes"/>
      <point x="276.482" y="410.548"/>
      <point x="272.741" y="401.68"/>
      <point x="272.741" y="394.651" type="curve"/>
      <point x="279.229" y="390.873" type="line"/>
      <point x="263.463" y="387.156"/>
      <point x="264.396" y="362.16"/>
      <point x="262.925" y="351.198" type="curve" smooth="yes"/>
      <point x="258.059" y="314.889"/>
      <point x="187.282" y="281.671"/>
      <point x="191.673" y="244.179" type="curve"/>
      <point x="211.613" y="246.871"/>
      <point x="218.449" y="220.47"/>
      <point x="233.329" y="210.695" type="curve" smooth="yes"/>
      <point x="243.04" y="204.31"/>
      <point x="257.098" y="213.14"/>
      <point x="263.824" y="205.562" type="curve" smooth="yes"/>
      <point x="269.188" y="199.535"/>
      <point x="266.198" y="184.429"/>
      <point x="268.75" y="177.501" type="curve" smooth="yes"/>
      <point x="281.727" y="142.193"/>
      <point x="275.735" y="95.5303"/>
      <point x="275.043" y="58.4785" type="curve" smooth="yes"/>
      <point x="274.763" y="43.5762"/>
      <point x="285.619" y="-15.1064"/>
      <point x="264.792" y="-18.8828" type="curve" smooth="yes"/>
      <point x="243.013" y="-22.833"/>
      <point x="240.543" y="20.7734"/>
      <point x="241.982" y="31.9775" type="curve" smooth="yes"/>
      <point x="246.654" y="68.3359"/>
      <point x="251.24" y="138.332"/>
      <point x="230.79" y="171.048" type="curve" smooth="yes"/>
      <point x="219.694" y="188.799"/>
      <point x="221" y="188"/>
      <point x="203" y="202" type="curve"/>
      <point x="179" y="219" type="line"/>
      <point x="169" y="226" type="line"/>
      <point x="141.338" y="222.192"/>
      <point x="112.159" y="174.218"/>
      <point x="107" y="155" type="curve" smooth="yes"/>
      <point x="101.981" y="136.306"/>
      <point x="102.391" y="120.858"/>
      <point x="95.3564" y="102.485" type="curve" smooth="yes"/>
      <point x="84.0449" y="72.9404"/>
      <point x="79.3525" y="42.0039"/>
      <point x="71.1553" y="11.8008" type="curve" smooth="yes"/>
      <point x="67.5439" y="-1.50293"/>
      <point x="87.0518" y="-13.5508"/>
      <point x="76.5625" y="-25.5459" type="curve" smooth="yes"/>
      <point x="55.7998" y="-49.2578"/>
      <point x="49.5967" y="-0.696289"/>
      <point x="50.0469" y="8.02246" type="curve" smooth="yes"/>
      <point x="58" y="162"/>
      <point x="64" y="170"/>
    </contour>
  </outline>
</glyph>
<glyph name="uni0429" format="2">
  <advance width="446"/>
  <unicode hex="0429"/>
  <outline>
    <contour>
      <point x="46.5312" y="513.649" type="curve" smooth="yes"/>
      <point x="67.5605" y="535.368"/>
      <point x="76.1689" y="444.141"/>
      <point x="74.1328" y="412.814" type="curve" smooth="yes"/>
      <point x="69.5586" y="342.429"/>
      <point x="74.9141" y="271.686"/>
      <point x="73.0176" y="201.061" type="curve" smooth="yes"/>
      <point x="72.2363" y="171.705"/>
      <point x="64.1191" y="108.229"/>
      <point x="80.1572" y="82.1836" type="curve"/>
      <point x="72.4316" y="72.9775"/>
      <point x="67.6338" y="34.6172"/>
      <point x="85.9033" y="32.1016" type="curve" smooth="yes"/>
      <point x="100.323" y="30.1152"/>
      <point x="131.572" y="36.4639"/>
      <point x="144.151" y="41.6973" type="curve" smooth="yes"/>
      <point x="163.173" y="49.6104"/>
      <point x="186.746" y="25.6484"/>
      <point x="197.763" y="43.7715" type="curve" smooth="yes"/>
      <point x="205.35" y="56.2676"/>
      <point x="194.416" y="116.302"/>
      <point x="192.575" y="128.898" type="curve" smooth="yes"/>
      <point x="187.667" y="162.666"/>
      <point x="202.528" y="203.85"/>
      <point x="185.988" y="234.874" type="curve"/>
      <point x="185.988" y="237.395" type="line"/>
      <point x="199.906" y="251.756"/>
      <point x="189.196" y="280.199"/>
      <point x="188.833" y="297.896" type="curve" smooth="yes"/>
      <point x="187.662" y="351.477"/>
      <point x="188.304" y="405.472"/>
      <point x="186.714" y="459.231" type="curve" smooth="yes"/>
      <point x="186.155" y="477.699"/>
      <point x="213.429" y="541.639"/>
      <point x="231" y="496" type="curve" smooth="yes"/>
      <point x="240.204" y="472.107"/>
      <point x="226.565" y="445.356"/>
      <point x="238.614" y="420.377" type="curve"/>
      <point x="230.247" y="422.897" type="line"/>
      <point x="230.247" y="340.825"/>
      <point x="223.051" y="257.556"/>
      <point x="230.722" y="175.852" type="curve" smooth="yes"/>
      <point x="232.061" y="161.382"/>
      <point x="218.956" y="58.7695"/>
      <point x="239.149" y="55.5234" type="curve" smooth="yes"/>
      <point x="253.43" y="53.2236"/>
      <point x="333.275" y="73.793"/>
      <point x="338.407" y="85.9609" type="curve" smooth="yes"/>
      <point x="350.875" y="115.589"/>
      <point x="352.479" y="206.111"/>
      <point x="348.574" y="236.79" type="curve" smooth="yes"/>
      <point x="344.139" y="271.465"/>
      <point x="350.22" y="315.652"/>
      <point x="348.239" y="350.238" type="curve" smooth="yes"/>
      <point x="346.928" y="373.324"/>
      <point x="361.767" y="417.495"/>
      <point x="342.187" y="433.855" type="curve"/>
      <point x="349.467" y="445.687"/>
      <point x="340.709" y="497.795"/>
      <point x="359.033" y="497.795" type="curve" smooth="yes"/>
      <point x="381.068" y="497.795"/>
      <point x="385.208" y="427.987"/>
      <point x="385.234" y="413.688" type="curve" smooth="yes"/>
      <point x="385.374" y="337.914"/>
      <point x="382.474" y="256.907"/>
      <point x="387.773" y="181.331" type="curve" smooth="yes"/>
      <point x="388.722" y="167.718"/>
      <point x="368.928" y="108.884"/>
      <point x="371.968" y="96.1006" type="curve" smooth="yes"/>
      <point x="376.709" y="76.3145"/>
      <point x="399.772" y="98.4473"/>
      <point x="402.506" y="80.4609" type="curve" smooth="yes"/>
      <point x="405.323" y="61.9346"/>
      <point x="325.529" y="55.6973"/>
      <point x="317.078" y="41.4541" type="curve"/>
      <point x="333.228" y="41.4541"/>
      <point x="364.577" y="21.4551"/>
      <point x="378.077" y="28.3867" type="curve" smooth="yes"/>
      <point x="391.381" y="35.2393"/>
      <point x="385.858" y="74.1104"/>
      <point x="411.017" y="63.8252" type="curve" smooth="yes"/>
      <point x="427.361" y="57.1475"/>
      <point x="421.448" y="-5.00879"/>
      <point x="428.645" y="-21.5264" type="curve"/>
      <point x="420.667" y="-28.8213"/>
      <point x="421.002" y="-21.1934"/>
      <point x="428.645" y="-28.6934" type="curve"/>
      <point x="428.645" y="-31.2139" type="line"/>
      <point x="414.671" y="-47.625"/>
      <point x="418.687" y="-54.6504"/>
      <point x="419.691" y="-74.2773" type="curve" smooth="yes"/>
      <point x="420.444" y="-88.6416"/>
      <point x="426.105" y="-94.5889"/>
      <point x="424.153" y="-108.174" type="curve" smooth="yes"/>
      <point x="422.033" y="-123.01"/>
      <point x="410.85" y="-112.417"/>
      <point x="411.017" y="-127.323" type="curve" smooth="yes"/>
      <point x="411.184" y="-144.109"/>
      <point x="422.257" y="-143.542"/>
      <point x="416.595" y="-161.809" type="curve" smooth="yes"/>
      <point x="412.271" y="-175.767"/>
      <point x="396.848" y="-166.644"/>
      <point x="394.086" y="-156.825" type="curve" smooth="yes"/>
      <point x="389.819" y="-141.516"/>
      <point x="393.222" y="-129.032"/>
      <point x="400.753" y="-114.945" type="curve"/>
      <point x="409.12" y="-117.467" type="line"/>
      <point x="409.12" y="-104.862" type="line"/>
      <point x="397.963" y="-107.383" type="line"/>
      <point x="385.523" y="-60.1992"/>
      <point x="399.218" y="-86.5674"/>
      <point x="386.667" y="-39.1719" type="curve" smooth="yes"/>
      <point x="383.348" y="-26.6279"/>
      <point x="383.654" y="-13.207"/>
      <point x="375.008" y="-2.7002" type="curve" smooth="yes"/>
      <point x="360.728" y="14.6201"/>
      <point x="254.267" y="37.1484"/>
      <point x="241.771" y="19.6406" type="curve"/>
      <point x="238.982" y="19.6406" type="line"/>
      <point x="216.697" y="25.8701"/>
      <point x="192.068" y="-20.084"/>
      <point x="191.566" y="18.8076" type="curve"/>
      <point x="163.062" y="7.16895"/>
      <point x="120.081" y="13.6416"/>
      <point x="97.6562" y="-4.84473" type="curve" smooth="yes"/>
      <point x="86.5273" y="-14.0381"/>
      <point x="103.485" y="-31.4072"/>
      <point x="90.2646" y="-38.1299" type="curve" smooth="yes"/>
      <point x="79.5264" y="-43.5879"/>
      <point x="69.5693" y="-32.2988"/>
      <point x="59.3057" y="-31.7119" type="curve" smooth="yes"/>
      <point x="46.9209" y="-31.0059"/>
      <point x="34.0918" y="-36.1768"/>
      <point x="22.3213" y="-29.002" type="curve" smooth="yes"/>
      <point x="0.900391" y="-15.9463"/>
      <point x="44.8857" y="-3.19043"/>
      <point x="48.0088" y="9.07812" type="curve" smooth="yes"/>
      <point x="52.918" y="28.5166"/>
      <point x="41.4551" y="59.0752"/>
      <point x="39.1953" y="79.2344" type="curve" smooth="yes"/>
      <point x="36.9639" y="99.1143"/>
      <point x="42.1797" y="133.187"/>
      <point x="43.7422" y="153.164" type="curve"/>
      <point x="35.374" y="155.685" type="line"/>
      <point x="35.374" y="158.206" type="line"/>
      <point x="43.7422" y="158.206" type="line"/>
      <point x="33.7285" y="210.872"/>
      <point x="42.7656" y="265.144"/>
      <point x="40.6465" y="318.09" type="curve" smooth="yes"/>
      <point x="37.8594" y="387.731"/>
      <point x="29.5537" y="496.115"/>
    </contour>
  </outline>
</glyph>
<glyph name="uni042D" format="2">
  <advance width="280"/>
  <unicode hex="042D"/>
  <outline>
    <contour>
      <point x="146.151" y="503.086" type="curve" smooth="yes"/>
      <point x="152.037" y="511.392"/>
      <point x="152.629" y="527.812"/>
      <point x="161.32" y="523.223" type="curve" smooth="yes"/>
      <point x="171.683" y="517.751"/>
      <point x="169.671" y="489.432"/>
      <point x="170.84" y="478.212" type="curve" smooth="yes"/>
      <point x="172.372" y="463.332"/>
      <point x="182.389" y="453.915"/>
      <point x="184.993" y="440.245" type="curve" smooth="yes"/>
      <point x="189.475" y="416.556"/>
      <point x="184.112" y="399.145"/>
      <point x="192.118" y="375.159" type="curve"/>
      <point x="195.948" y="375.159" type="line"/>
      <point x="199.779" y="386.381" type="line"/>
      <point x="209.432" y="366.184"/>
      <point x="196.602" y="334.72"/>
      <point x="212.268" y="317.988" type="curve" smooth="yes"/>
      <point x="230.501" y="298.528"/>
      <point x="249.538" y="297.614"/>
      <point x="272.521" y="298.817" type="curve" smooth="yes"/>
      <point x="277.193" y="299.062"/>
      <point x="293.799" y="304.967"/>
      <point x="293.512" y="294.607" type="curve" smooth="yes"/>
      <point x="293.109" y="280.407"/>
      <point x="245.994" y="292.116"/>
      <point x="242.796" y="271.219" type="curve" smooth="yes"/>
      <point x="241.781" y="264.627"/>
      <point x="252.392" y="263.28"/>
      <point x="255.188" y="259.622" type="curve" smooth="yes"/>
      <point x="258.31" y="255.54"/>
      <point x="248.565" y="235.26"/>
      <point x="247.723" y="229.902" type="curve" smooth="yes"/>
      <point x="245.692" y="217.142"/>
      <point x="236.059" y="205.854"/>
      <point x="234.277" y="191.367" type="curve" smooth="yes"/>
      <point x="233.301" y="183.378"/>
      <point x="237.687" y="176.515"/>
      <point x="236.882" y="168.543" type="curve" smooth="yes"/>
      <point x="233.933" y="139.613"/>
      <point x="217.52" y="94.291"/>
      <point x="206.161" y="68.0166" type="curve" smooth="yes"/>
      <point x="201.01" y="56.1143"/>
      <point x="180.363" y="0.289062"/>
      <point x="167.033" y="27.0195" type="curve"/>
      <point x="165.118" y="27.0195" type="line"/>
      <point x="160.33" y="10.8965"/>
      <point x="148.015" y="7.16992"/>
      <point x="136.523" y="-0.788086" type="curve" smooth="yes"/>
      <point x="127.617" y="-6.96875"/>
      <point x="135.681" y="-44.1709"/>
      <point x="119.19" y="-38.7129" type="curve" smooth="yes"/>
      <point x="110.974" y="-35.9902"/>
      <point x="104.615" y="-21.3467"/>
      <point x="100.479" y="-13.3789" type="curve" smooth="yes"/>
      <point x="86.707" y="13.0576"/>
      <point x="79.8701" y="48.7061"/>
      <point x="64.3369" y="74.6621" type="curve" smooth="yes"/>
      <point x="60.4297" y="81.1768"/>
      <point x="48.498" y="101.004"/>
      <point x="56.0439" y="108.004" type="curve" smooth="yes"/>
      <point x="73.3203" y="124.023"/>
      <point x="100.957" y="73.041"/>
      <point x="111.49" y="63.4404" type="curve"/>
      <point x="111.49" y="70.1729" type="line"/>
      <point x="113.406" y="70.1729" type="line"/>
      <point x="120.396" y="22.6445"/>
      <point x="137.309" y="45.416"/>
      <point x="157.457" y="65.3594" type="curve" smooth="yes"/>
      <point x="188.158" y="95.7588"/>
      <point x="201.604" y="121.216"/>
      <point x="211.62" y="166.592" type="curve" smooth="yes"/>
      <point x="214.071" y="177.711"/>
      <point x="218.726" y="216.516"/>
      <point x="208.882" y="222.532" type="curve" smooth="yes"/>
      <point x="199.573" y="228.23"/>
      <point x="181.033" y="221.751"/>
      <point x="171.189" y="219.859" type="curve" smooth="yes"/>
      <point x="145.41" y="214.903"/>
      <point x="99.4248" y="200.376"/>
      <point x="75.1006" y="207.078" type="curve"/>
      <point x="87.1289" y="231.7" type="line"/>
      <point x="121.067" y="232.205" type="line"/>
      <point x="212.999" y="240.743" type="line"/>
      <point x="220.254" y="254.209" type="line"/>
      <point x="214.508" y="249.72" type="line"/>
      <point x="218.013" y="266.106"/>
      <point x="203.342" y="263.187"/>
      <point x="193.439" y="263.187" type="curve"/>
      <point x="197.271" y="247.476" type="line"/>
      <point x="172.199" y="240.503"/>
      <point x="126.157" y="255.26"/>
      <point x="101.508" y="263.812" type="curve" smooth="yes"/>
      <point x="91.4336" y="267.309"/>
      <point x="82.0684" y="283.134"/>
      <point x="93.0039" y="292.739" type="curve" smooth="yes"/>
      <point x="99.9951" y="298.878"/>
      <point x="111.142" y="292.212"/>
      <point x="118.745" y="291.368" type="curve" smooth="yes"/>
      <point x="133.685" y="289.71"/>
      <point x="149.351" y="288.924"/>
      <point x="164.711" y="287.423" type="curve" smooth="yes"/>
      <point x="169.863" y="286.92"/>
      <point x="187.043" y="284.965"/>
      <point x="189.954" y="291.204" type="curve" smooth="yes"/>
      <point x="193.248" y="298.221"/>
      <point x="185.703" y="310.005"/>
      <point x="182.467" y="314.809" type="curve" smooth="yes"/>
      <point x="171.435" y="331.165"/>
      <point x="163.944" y="357.507"/>
      <point x="169.135" y="379.647" type="curve"/>
      <point x="154.1" y="391.197"/>
      <point x="157.893" y="420.037"/>
      <point x="155" y="438" type="curve" smooth="yes"/>
      <point x="154.177" y="443.14"/>
      <point x="152.127" y="458.074"/>
      <point x="146.056" y="458.074" type="curve" smooth="yes"/>
      <point x="138.356" y="458.074"/>
      <point x="130.197" y="437.479"/>
      <point x="126.022" y="431.268" type="curve" smooth="yes"/>
      <point x="107.521" y="403.842"/>
      <point x="81.4932" y="348.814"/>
      <point x="46.5586" y="366.182" type="curve"/>
      <point x="60.3682" y="421.457"/>
      <point x="107.742" y="448.885"/>
    </contour>
  </outline>
</glyph>
<glyph name="uni0430" format="2">
  <advance width="258"/>
  <unicode hex="0430"/>
  <outline>
    <contour>
      <point x="213.048" y="519.945" type="curve"/>
      <point x="217.23" y="519.82"/>
      <point x="220.76" y="516.54"/>
      <point x="222.88" y="508.318" type="curve" smooth="yes"/>
      <point x="228.182" y="487.75"/>
      <point x="222.039" y="465.206"/>
      <point x="221.14" y="444.588" type="curve" smooth="yes"/>
      <point x="219.914" y="416.492"/>
      <point x="220.765" y="386.002"/>
      <point x="224.378" y="358.424" type="curve"/>
      <point x="219.257" y="358.424" type="line"/>
      <point x="224.378" y="330.848" type="line"/>
      <point x="224.378" y="329.124" type="line"/>
      <point x="212.005" y="312.636"/>
      <point x="217.815" y="265.072"/>
      <point x="218.326" y="244.684" type="curve" smooth="yes"/>
      <point x="218.563" y="235.195"/>
      <point x="221.639" y="223.319"/>
      <point x="232.911" y="229.17" type="curve"/>
      <point x="237.965" y="216.792"/>
      <point x="230.232" y="213.657"/>
      <point x="222.671" y="205.046" type="curve"/>
      <point x="227.793" y="205.046" type="line"/>
      <point x="227.793" y="203.321" type="line"/>
      <point x="215.818" y="195.906"/>
      <point x="221.305" y="169.633"/>
      <point x="220.905" y="156.792" type="curve" smooth="yes"/>
      <point x="219.77" y="120.473"/>
      <point x="223.414" y="67.1465"/>
      <point x="221.117" y="30.5" type="curve" smooth="yes"/>
      <point x="220.517" y="20.8955"/>
      <point x="228.184" y="6.95117"/>
      <point x="222.374" y="-1.66406" type="curve" smooth="yes"/>
      <point x="219.081" y="-6.54395"/>
      <point x="204.455" y="-3.17773"/>
      <point x="203.704" y="1.30273" type="curve" smooth="yes"/>
      <point x="201.324" y="15.4961"/>
      <point x="202.236" y="29.5293"/>
      <point x="199.747" y="44.2861" type="curve" smooth="yes"/>
      <point x="192.077" y="89.7695"/>
      <point x="197.199" y="149.195"/>
      <point x="191.502" y="194.707" type="curve"/>
      <point x="166.599" y="188.747"/>
      <point x="101.689" y="174.59"/>
      <point x="85.5488" y="153.345" type="curve"/>
      <point x="85.5479" y="153.271" type="line"/>
      <point x="84.8086" y="151.963" type="line"/>
      <point x="76.1094" y="127.86"/>
      <point x="80.5977" y="99.3115"/>
      <point x="78.2598" y="74.0723" type="curve" smooth="yes"/>
      <point x="77.3037" y="63.7471"/>
      <point x="75.6426" y="48.1299"/>
      <point x="82.1377" y="39.6045" type="curve"/>
      <point x="82.1377" y="37.8809" type="line"/>
      <point x="69.416" y="29.3076"/>
      <point x="80.2725" y="-10.4717"/>
      <point x="79.2549" y="-24.1553" type="curve" smooth="yes"/>
      <point x="78.0176" y="-40.8057"/>
      <point x="64.3311" y="-33.334"/>
      <point x="58.2393" y="-25.8818" type="curve"/>
      <point x="55.2627" y="-47.9062"/>
      <point x="51.0723" y="-75.0391"/>
      <point x="41.1699" y="-94.8164" type="curve"/>
      <point x="32.6338" y="-89.0449"/>
      <point x="38.0938" y="-79.3936"/>
      <point x="39.6104" y="-70.6875" type="curve" smooth="yes"/>
      <point x="43.3428" y="-49.2773"/>
      <point x="44.5205" y="-27.127"/>
      <point x="46.1387" y="-5.20117" type="curve" smooth="yes"/>
      <point x="52.8389" y="85.5566"/>
      <point x="54.8408" y="176.204"/>
      <point x="46.292" y="265.361" type="curve"/>
      <point x="5.3252" y="227.45" type="line"/>
      <point x="3.22949" y="242.429"/>
      <point x="27.6865" y="269.333"/>
      <point x="35.5205" y="282.75" type="curve" smooth="yes"/>
      <point x="41.9277" y="293.72"/>
      <point x="42.8398" y="308.648"/>
      <point x="49.4619" y="318.562" type="curve" smooth="yes"/>
      <point x="53.5215" y="324.638"/>
      <point x="61.1504" y="326.879"/>
      <point x="65.6074" y="332.733" type="curve" smooth="yes"/>
      <point x="104.405" y="384.42"/>
      <point x="150.752" y="423.728"/>
      <point x="176.585" y="482.502" type="curve" smooth="yes"/>
      <point x="177.368" y="483.614"/>
      <point x="177.766" y="483.771"/>
      <point x="178.179" y="484.259" type="curve" smooth="yes"/>
      <point x="178.293" y="484.226" type="line"/>
      <point x="182.082" y="492.314"/>
      <point x="200.499" y="520.321"/>
    </contour>
    <contour>
      <point x="182.969" y="435.069" type="line"/>
      <point x="164.799" y="400.485"/>
      <point x="123.918" y="366.238"/>
      <point x="105.507" y="331.668" type="curve" smooth="yes"/>
      <point x="96.5713" y="314.888"/>
      <point x="82.8359" y="296.9"/>
      <point x="78.3281" y="278.244" type="curve" smooth="yes"/>
      <point x="69.7666" y="242.812"/>
      <point x="93.2002" y="242.016"/>
      <point x="82.1377" y="210.217" type="curve"/>
      <point x="97.6436" y="207.68"/>
      <point x="160.25" y="231.365"/>
      <point x="176" y="238" type="curve" smooth="yes"/>
      <point x="182.836" y="240.881"/>
      <point x="185.725" y="241.093"/>
      <point x="189.749" y="248.315" type="curve" smooth="yes"/>
      <point x="197.144" y="261.583"/>
      <point x="190.946" y="288.347"/>
      <point x="191.57" y="303.275" type="curve" smooth="yes"/>
      <point x="193.145" y="340.88"/>
      <point x="190.542" y="378.015"/>
      <point x="189.612" y="415.292" type="curve" smooth="yes"/>
      <point x="189.156" y="433.518"/>
      <point x="191.686" y="416.966"/>
      <point x="186.384" y="435.069" type="curve"/>
    </contour>
    <contour>
      <point x="42.8779" y="313.614" type="line"/>
      <point x="44.585" y="311.891" type="line"/>
    </contour>
    <contour>
      <point x="184.575" y="233.122" type="curve" smooth="yes"/>
      <point x="176.21" y="233.444"/>
      <point x="175.731" y="225.46"/>
      <point x="168.049" y="222.279" type="curve" smooth="yes"/>
      <point x="167.708" y="222.082" type="line"/>
      <point x="166.346" y="220.556" type="line" smooth="yes"/>
      <point x="159.081" y="216.951"/>
      <point x="141.341" y="214.226"/>
      <point x="142.688" y="205.046" type="curve"/>
      <point x="156.484" y="209.392"/>
      <point x="175.458" y="208.149"/>
      <point x="187.35" y="217.342" type="curve" smooth="yes"/>
      <point x="192.544" y="221.355"/>
      <point x="192.732" y="232.807"/>
    </contour>
    <contour>
      <point x="58.2402" y="-12.0957" type="line"/>
      <point x="56.5322" y="-18.9873" type="line"/>
      <point x="65.0684" y="-20.7109" type="line"/>
      <point x="63.3613" y="-12.0957" type="line"/>
    </contour>
    <contour>
      <point x="46.292" y="-58.625" type="line"/>
      <point x="42.8779" y="-60.3486" type="line"/>
      <point x="42.8779" y="-62.0723" type="line"/>
      <point x="46.292" y="-63.793" type="line"/>
    </contour>
  </outline>
</glyph>
<glyph name="uni0434" format="2">
  <advance width="322"/>
  <unicode hex="0434"/>
  <outline>
    <contour>
      <point x="-6" y="17" type="line"/>
      <point x="8.14551" y="40.8232"/>
      <point x="28.3135" y="27.4629"/>
      <point x="48.6572" y="22.333" type="curve" smooth="yes"/>
      <point x="56.2324" y="20.4229"/>
      <point x="74.3838" y="13.876"/>
      <point x="78.4941" y="24.4463" type="curve" smooth="yes"/>
      <point x="84.8027" y="40.6719"/>
      <point x="77.2803" y="54.958"/>
      <point x="78.4141" y="70.7578" type="curve" smooth="yes"/>
      <point x="82.2402" y="124.056"/>
      <point x="82.2725" y="172.015"/>
      <point x="77" y="222.077" type="curve" smooth="yes"/>
      <point x="76.1211" y="230.427"/>
      <point x="64.3984" y="232.068"/>
      <point x="64.667" y="240.677" type="curve" smooth="yes"/>
      <point x="65.0957" y="254.369"/>
      <point x="88.9756" y="269.844"/>
      <point x="95.877" y="281.352" type="curve" smooth="yes"/>
      <point x="121.014" y="323.262"/>
      <point x="152.393" y="360.228"/>
      <point x="165.817" y="408.834" type="curve" smooth="yes"/>
      <point x="171.53" y="429.515"/>
      <point x="177.701" y="459.309"/>
      <point x="185.748" y="477.774" type="curve" smooth="yes"/>
      <point x="190.715" y="489.173"/>
      <point x="203.548" y="494.1"/>
      <point x="208.325" y="505.356" type="curve" smooth="yes"/>
      <point x="211.41" y="512.628"/>
      <point x="205.812" y="548.465"/>
      <point x="223.96" y="536.64" type="curve" smooth="yes"/>
      <point x="239.246" y="526.68"/>
      <point x="225.367" y="485.018"/>
      <point x="226.539" y="469.171" type="curve" smooth="yes"/>
      <point x="229.022" y="435.592"/>
      <point x="219.272" y="403.142"/>
      <point x="220.972" y="369.714" type="curve" smooth="yes"/>
      <point x="221.747" y="354.454"/>
      <point x="235.677" y="343.852"/>
      <point x="233.271" y="326.991" type="curve" smooth="yes"/>
      <point x="230.156" y="305.136"/>
      <point x="218.043" y="250.673"/>
      <point x="233.36" y="233.8" type="curve"/>
      <point x="233" y="228" type="line"/>
      <point x="226.292" y="221.961"/>
      <point x="226.994" y="215.713"/>
      <point x="227.982" y="206.986" type="curve"/>
      <point x="230.07" y="210.728" type="line"/>
      <point x="231.918" y="210.602" type="line"/>
      <point x="225.779" y="189.531"/>
      <point x="226.595" y="167.104"/>
      <point x="227.828" y="144.874" type="curve" smooth="yes"/>
      <point x="227.632" y="141.045"/>
      <point x="227.841" y="136.866"/>
      <point x="227.106" y="133.276" type="curve" smooth="yes"/>
      <point x="225.999" y="115.309"/>
      <point x="224.139" y="85.5615"/>
      <point x="231.272" y="68.9277" type="curve" smooth="yes"/>
      <point x="233.958" y="62.6602"/>
      <point x="242.854" y="50.8711"/>
      <point x="234.033" y="45.499" type="curve" smooth="yes"/>
      <point x="224.463" y="39.667"/>
      <point x="211.981" y="49.4277"/>
      <point x="210.442" y="58.4336" type="curve" smooth="yes"/>
      <point x="206.229" y="83.0732"/>
      <point x="209.074" y="110.988"/>
      <point x="201.086" y="134.777" type="curve" smooth="yes"/>
      <point x="192.717" y="159.698"/>
      <point x="198.763" y="194.058"/>
      <point x="198.677" y="220.361" type="curve" smooth="yes"/>
      <point x="198.558" y="256.609"/>
      <point x="202.7" y="292.751"/>
      <point x="201.69" y="328.873" type="curve" smooth="yes"/>
      <point x="200.92" y="356.39"/>
      <point x="196.925" y="380.943"/>
      <point x="201.272" y="408.498" type="curve"/>
      <point x="189.33" y="405.656"/>
      <point x="188.836" y="388.709"/>
      <point x="181.713" y="379.041" type="curve" smooth="yes"/>
      <point x="167.797" y="360.15"/>
      <point x="158.153" y="332.188"/>
      <point x="147.037" y="311.105" type="curve" smooth="yes"/>
      <point x="139.485" y="296.784"/>
      <point x="122.211" y="281.886"/>
      <point x="112.901" y="269.99" type="curve" smooth="yes"/>
      <point x="106.062" y="261.248"/>
      <point x="90.793" y="246.28"/>
      <point x="105.459" y="239.465" type="curve"/>
      <point x="109.996" y="252.745" type="line"/>
      <point x="111.843" y="252.62" type="line"/>
      <point x="111.482" y="246.82" type="line"/>
      <point x="129.562" y="263.438"/>
      <point x="161.894" y="310.415"/>
      <point x="188.174" y="312.595" type="curve"/>
      <point x="188.577" y="289.271" type="line"/>
      <point x="185.244" y="295.322" type="line"/>
      <point x="164.713" y="276.463"/>
      <point x="129.996" y="235.888"/>
      <point x="118.224" y="209.682" type="curve" smooth="yes"/>
      <point x="113.862" y="199.975"/>
      <point x="117.927" y="190.796"/>
      <point x="115.314" y="179.187" type="curve" smooth="yes"/>
      <point x="103.547" y="126.917"/>
      <point x="105.261" y="70.6943"/>
      <point x="108.956" y="16.6025" type="curve"/>
      <point x="154.128" y="13.917"/>
      <point x="208.274" y="19.0039"/>
      <point x="253.481" y="20.4922" type="curve" smooth="yes"/>
      <point x="265.778" y="20.8965"/>
      <point x="292.062" y="30.7402"/>
      <point x="300.056" y="19.1475" type="curve" smooth="yes"/>
      <point x="317.827" y="-6.63184"/>
      <point x="278.109" y="0.823242"/>
      <point x="284.469" y="-18.1758" type="curve"/>
      <point x="284.349" y="-20.1084" type="line"/>
      <point x="263.321" y="-30.6836"/>
      <point x="252.851" y="-65.8564"/>
      <point x="245.889" y="-87.3779" type="curve" smooth="yes"/>
      <point x="244.543" y="-91.5391"/>
      <point x="240.4" y="-111.688"/>
      <point x="234.543" y="-110.055" type="curve" smooth="yes"/>
      <point x="226.624" y="-107.843"/>
      <point x="233.64" y="-88.9814"/>
      <point x="234.213" y="-83.8174" type="curve" smooth="yes"/>
      <point x="236.588" y="-62.4629"/>
      <point x="244.57" y="-44.0205"/>
      <point x="250.992" y="-23.6602" type="curve" smooth="yes"/>
      <point x="252.531" y="-18.7812"/>
      <point x="258.455" y="-5.4209"/>
      <point x="255.883" y="-0.758789" type="curve" smooth="yes"/>
      <point x="250.941" y="8.19727"/>
      <point x="218.074" y="0.521484"/>
      <point x="209.481" y="-0.910156" type="curve" smooth="yes"/>
      <point x="165.863" y="-8.1709"/>
      <point x="113.748" y="1.35742"/>
      <point x="72.2002" y="-21.8164" type="curve" smooth="yes"/>
      <point x="44.3135" y="-37.3711"/>
      <point x="69.0537" y="-105.9"/>
      <point x="68.6377" y="-132.418" type="curve" smooth="yes"/>
      <point x="68.5273" y="-139.376"/>
      <point x="70.1846" y="-167.179"/>
      <point x="61.9805" y="-169.332" type="curve" smooth="yes"/>
      <point x="51.832" y="-171.997"/>
      <point x="54.1475" y="-139.536"/>
      <point x="52.4082" y="-133.254" type="curve" smooth="yes"/>
      <point x="41.8418" y="-95.0752"/>
      <point x="37.8838" y="-56.752"/>
      <point x="19.1592" y="-20.3301" type="curve" smooth="yes"/>
      <point x="14.3994" y="-11.0713"/>
      <point x="-9.66895" y="3.34863"/>
      <point x="-7.72656" y="10.623" type="curve" smooth="yes"/>
      <point x="-7.60645" y="12.5557" type="line"/>
    </contour>
  </outline>
</glyph>
<glyph name="uni043B" format="2">
  <advance width="291"/>
  <unicode hex="043B"/>
  <outline>
    <contour>
      <point x="184.401" y="487.52" type="line"/>
      <point x="200.801" y="496.24"/>
      <point x="196.56" y="518.008"/>
      <point x="208.171" y="525.249" type="curve" smooth="yes"/>
      <point x="215.185" y="529.623"/>
      <point x="224.768" y="525.719"/>
      <point x="224.516" y="517.313" type="curve" smooth="yes"/>
      <point x="223.634" y="488.558"/>
      <point x="204.376" y="439.187"/>
      <point x="230.497" y="414.967" type="curve"/>
      <point x="215.945" y="392.457"/>
      <point x="226.102" y="356.527"/>
      <point x="227.214" y="331.436" type="curve" smooth="yes"/>
      <point x="230.469" y="258.205"/>
      <point x="207.662" y="107.09"/>
      <point x="249.491" y="42.415" type="curve"/>
      <point x="228.408" y="26.5244"/>
      <point x="267.696" y="16.8906"/>
      <point x="246.908" y="2.12793" type="curve" smooth="yes"/>
      <point x="211.715" y="-22.8623"/>
      <point x="209.195" y="39.5908"/>
      <point x="206.192" y="54.3477" type="curve" smooth="yes"/>
      <point x="196.546" y="101.753"/>
      <point x="200.505" y="200.387"/>
      <point x="197.67" y="247.905" type="curve" smooth="yes"/>
      <point x="196.557" y="266.678"/>
      <point x="202.667" y="302.731"/>
      <point x="189.9" y="317.514" type="curve"/>
      <point x="189.9" y="319.503" type="line"/>
      <point x="204.347" y="337.575"/>
      <point x="193.827" y="387.148"/>
      <point x="192" y="409" type="curve"/>
      <point x="185.701" y="407.011" type="line"/>
      <point x="193.365" y="423.684"/>
      <point x="197.294" y="444.822"/>
      <point x="192.801" y="462.698" type="curve"/>
      <point x="190.701" y="462.698" type="line"/>
      <point x="140.654" y="387.288"/>
      <point x="142.418" y="389.907"/>
      <point x="98.3086" y="311.548" type="curve"/>
      <point x="133.138" y="346.186"/>
      <point x="178.641" y="416.716"/>
      <point x="185.701" y="391.101" type="curve"/>
      <point x="158.802" y="376.091"/>
      <point x="141.648" y="331.506"/>
      <point x="122.793" y="307.749" type="curve" smooth="yes"/>
      <point x="116.073" y="299.297"/>
      <point x="87.9336" y="289.993"/>
      <point x="85.3711" y="279.648" type="curve" smooth="yes"/>
      <point x="80.458" y="259.772"/>
      <point x="87.4922" y="230.758"/>
      <point x="92.1123" y="211.341" type="curve" smooth="yes"/>
      <point x="94.8623" y="199.762"/>
      <point x="84.7627" y="189.478"/>
      <point x="93.708" y="178.297" type="curve"/>
      <point x="93.708" y="176.308" type="line"/>
      <point x="85.875" y="164.822"/>
      <point x="90.8516" y="143.876"/>
      <point x="90.5791" y="130.564" type="curve" smooth="yes"/>
      <point x="90.1377" y="110.808"/>
      <point x="95.0303" y="89.543"/>
      <point x="94.2959" y="70.9004" type="curve" smooth="yes"/>
      <point x="93.834" y="58.8477"/>
      <point x="85.833" y="47.4922"/>
      <point x="85.1826" y="35.1016" type="curve" smooth="yes"/>
      <point x="84.4473" y="21.8242"/>
      <point x="89.4902" y="7.99805"/>
      <point x="83.0645" y="-4.58594" type="curve" smooth="yes"/>
      <point x="72.5439" y="-25.2178"/>
      <point x="79.2451" y="8.03906"/>
      <point x="65.9736" y="0.205078" type="curve" smooth="yes"/>
      <point x="55.7061" y="-5.85645"/>
      <point x="64.291" y="-36.5938"/>
      <point x="52.1543" y="-32.1689" type="curve" smooth="yes"/>
      <point x="26.7881" y="-22.9004"/>
      <point x="56.7324" y="15.2393"/>
      <point x="59.5664" y="29.1348" type="curve" smooth="yes"/>
      <point x="64.4805" y="53.2529"/>
      <point x="58.2646" y="77.0381"/>
      <point x="56.6689" y="100.732" type="curve" smooth="yes"/>
      <point x="54.1699" y="137.602"/>
      <point x="56.3125" y="214.096"/>
      <point x="56.3125" y="214.096" type="curve"/>
      <point x="56.3125" y="218.073" type="line"/>
      <point x="54.2119" y="255.86" type="line"/>
      <point x="46.2539" y="254.16"/>
      <point x="34.1182" y="233.847"/>
      <point x="29.1191" y="245.196" type="curve" smooth="yes"/>
      <point x="25.7168" y="252.921"/>
      <point x="72.8135" y="320.068"/>
      <point x="78.5879" y="330.387" type="curve" smooth="yes"/>
      <point x="84.9082" y="341.644"/>
      <point x="78.7559" y="355.354"/>
      <point x="86" y="366" type="curve" smooth="yes"/>
      <point x="104.856" y="393.713"/>
      <point x="114.45" y="384.142"/>
      <point x="124.011" y="417.899" type="curve" smooth="yes"/>
      <point x="127.434" y="429.985"/>
      <point x="128.272" y="466.375"/>
      <point x="144.589" y="470.102" type="curve" smooth="yes"/>
      <point x="157.713" y="473.107"/>
      <point x="153.639" y="452.359"/>
      <point x="155.004" y="445.743" type="curve"/>
      <point x="159.203" y="445.743" type="line"/>
      <point x="190.701" y="485.53" type="line"/>
      <point x="184.401" y="485.53" type="line"/>
    </contour>
  </outline>
</glyph>
<glyph name="uni043C" format="2">
  <advance width="406"/>
  <unicode hex="043C"/>
  <outline>
    <contour>
      <point x="185.625" y="524.229" type="line"/>
      <point x="204" y="520" type="line"/>
      <point x="200.312" y="471.953"/>
      <point x="182.721" y="392.48"/>
      <point x="195.574" y="344.82" type="curve"/>
      <point x="199.785" y="344.82" type="line"/>
      <point x="225.028" y="399.691"/>
      <point x="279.161" y="434.312"/>
      <point x="315.382" y="476.211" type="curve" smooth="yes"/>
      <point x="326.36" y="488.92"/>
      <point x="317.826" y="502.135"/>
      <point x="324.779" y="515.372" type="curve" smooth="yes"/>
      <point x="329.647" y="524.663"/>
      <point x="343.241" y="527.157"/>
      <point x="349.015" y="517.303" type="curve" smooth="yes"/>
      <point x="356.137" y="505.131"/>
      <point x="347.916" y="482.434"/>
      <point x="345.852" y="469.54" type="curve" smooth="yes"/>
      <point x="342.374" y="447.715"/>
      <point x="348.53" y="424.845"/>
      <point x="346.064" y="404.157" type="curve" smooth="yes"/>
      <point x="344.063" y="387.388"/>
      <point x="336.266" y="361.301"/>
      <point x="347.286" y="346.688" type="curve"/>
      <point x="347.286" y="344.493" type="line"/>
      <point x="333.547" y="326.8"/>
      <point x="342.545" y="272.672"/>
      <point x="343.051" y="250.161" type="curve" smooth="yes"/>
      <point x="343.809" y="215.26"/>
      <point x="340.456" y="188.784"/>
      <point x="345.492" y="153.664" type="curve" smooth="yes"/>
      <point x="347.094" y="142.481"/>
      <point x="355.291" y="134.804"/>
      <point x="355.607" y="122.948" type="curve" smooth="yes"/>
      <point x="356.387" y="92.125"/>
      <point x="345.261" y="61.8506"/>
      <point x="350.824" y="30.8105" type="curve" smooth="yes"/>
      <point x="353.542" y="15.6426"/>
      <point x="374.384" y="-5.9209"/>
      <point x="350.004" y="-12.9014" type="curve" smooth="yes"/>
      <point x="337.93" y="-16.3545"/>
      <point x="330.557" y="0.248047"/>
      <point x="328.723" y="9.61621" type="curve" smooth="yes"/>
      <point x="323.118" y="37.9668"/>
      <point x="331.145" y="30.292"/>
      <point x="325.666" y="57.1377" type="curve" smooth="yes"/>
      <point x="321.044" y="123.869"/>
      <point x="316.845" y="127.021"/>
      <point x="313.573" y="171.213" type="curve"/>
      <point x="315.677" y="210.702" type="line"/>
      <point x="313.573" y="324.749" type="line"/>
      <point x="321.138" y="332.465"/>
      <point x="320.737" y="340.923"/>
      <point x="313.573" y="348.882" type="curve"/>
      <point x="313.573" y="351.076" type="line"/>
      <point x="323.097" y="362.008"/>
      <point x="327.371" y="435.563"/>
      <point x="315.677" y="443.214" type="curve"/>
      <point x="302.128" y="410.93"/>
      <point x="275.368" y="396.56"/>
      <point x="255.371" y="373.362" type="curve" smooth="yes"/>
      <point x="241.717" y="357.531"/>
      <point x="233.376" y="310.289"/>
      <point x="214.538" y="300.943" type="curve"/>
      <point x="210.323" y="309.716" type="line"/>
      <point x="192.412" y="286.598"/>
      <point x="201.893" y="224.967"/>
      <point x="201.893" y="224.967" type="curve"/>
      <point x="201.893" y="222.772" type="line"/>
      <point x="201.893" y="222.772"/>
      <point x="202.799" y="199.202"/>
      <point x="203.811" y="181.119" type="curve" smooth="yes"/>
      <point x="206.36" y="135.376"/>
      <point x="227.748" y="73.0312"/>
      <point x="212.324" y="30.1094" type="curve" smooth="yes"/>
      <point x="209.016" y="20.8555"/>
      <point x="209.143" y="-11.334"/>
      <point x="201.367" y="-15.6934" type="curve" smooth="yes"/>
      <point x="185.985" y="-24.3174"/>
      <point x="187.821" y="35.3086"/>
      <point x="184.365" y="43.1826" type="curve" smooth="yes"/>
      <point x="180.594" y="51.7422"/>
      <point x="192.511" y="85.1523"/>
      <point x="191.353" y="95.0752" type="curve" smooth="yes"/>
      <point x="183.576" y="161.881"/>
      <point x="165.312" y="211.635"/>
      <point x="167.651" y="278.678" type="curve" smooth="yes"/>
      <point x="168.579" y="305.809"/>
      <point x="174.164" y="340.216"/>
      <point x="168.18" y="366.432" type="curve"/>
      <point x="115.564" y="324.701"/>
      <point x="78.71" y="265.143"/>
      <point x="81.7861" y="197.54" type="curve"/>
      <point x="83.8936" y="197.54" type="line"/>
      <point x="83.8936" y="209.187"/>
      <point x="80.083" y="92.9854"/>
      <point x="77.7402" y="72.4932" type="curve" smooth="yes"/>
      <point x="77.1709" y="42.0732"/>
      <point x="86.3398" y="12.2471"/>
      <point x="75.4678" y="-17.4551" type="curve"/>
      <point x="56.6572" y="-13.0664" type="line"/>
      <point x="52.4414" y="-15.2607" type="line"/>
      <point x="45.7627" y="6.94531"/>
      <point x="63.292" y="43.9297"/>
      <point x="46.1191" y="61.5215" type="curve"/>
      <point x="46.1191" y="63.7158" type="line"/>
      <point x="46.1191" y="65.9102" type="line"/>
      <point x="63.4609" y="85.1875"/>
      <point x="48.0332" y="132.394"/>
      <point x="56.5029" y="160.246" type="curve"/>
      <point x="47.2949" y="165.769"/>
      <point x="51.1494" y="198.627"/>
      <point x="50.0117" y="210.673" type="curve" smooth="yes"/>
      <point x="45.6074" y="256.664"/>
      <point x="55.5957" y="303.156"/>
      <point x="57.0918" y="349.733" type="curve" smooth="yes"/>
      <point x="57.3867" y="359.41"/>
      <point x="57.5352" y="392.736"/>
      <point x="65.1631" y="398.179" type="curve" smooth="yes"/>
      <point x="72.8545" y="403.65"/>
      <point x="75.2119" y="391.452"/>
      <point x="81.7861" y="390.564" type="curve"/>
      <point x="77.5713" y="377.398" type="line"/>
      <point x="97.8418" y="383.851"/>
      <point x="116.767" y="426.94"/>
      <point x="132.359" y="443.214" type="curve"/>
      <point x="134.467" y="443.214" type="line"/>
      <point x="172.395" y="498.062" type="line"/>
    </contour>
    <contour>
      <point x="168.18" y="425.664" type="line"/>
      <point x="151.07" y="420.39"/>
      <point x="144.454" y="392.079"/>
      <point x="135.583" y="377.411" type="curve" smooth="yes"/>
      <point x="127.745" y="364.435"/>
      <point x="117.945" y="366.011"/>
      <point x="107.536" y="357.89" type="curve" smooth="yes"/>
      <point x="94.3242" y="347.576"/>
      <point x="81.7021" y="312.55"/>
      <point x="86.001" y="296.228" type="curve"/>
      <point x="90.2168" y="296.228" type="line"/>
      <point x="134.467" y="352.863" type="line"/>
      <point x="171.488" y="390.564" type="line"/>
    </contour>
    <contour>
      <point x="216.642" y="340.432" type="line"/>
      <point x="216.642" y="336.043" type="line"/>
      <point x="220.856" y="336.043" type="line"/>
      <point x="220.856" y="340.432" type="line"/>
    </contour>
  </outline>
</glyph>
<glyph name="uni043E" format="2">
  <advance width="328"/>
  <unicode hex="043E"/>
  <outline>
    <contour>
      <point x="267.149" y="511.523" type="curve"/>
      <point x="272.262" y="449.479"/>
      <point x="268.315" y="467.845"/>
      <point x="272.645" y="419.696" type="curve" smooth="yes"/>
      <point x="275.859" y="403.076"/>
      <point x="263.019" y="382.687"/>
      <point x="285.898" y="372.196" type="curve"/>
      <point x="278.049" y="350.286"/>
      <point x="265.252" y="330.336"/>
      <point x="273.048" y="306.834" type="curve" smooth="yes"/>
      <point x="275.728" y="298.798"/>
      <point x="286.335" y="295.555"/>
      <point x="287.245" y="287.055" type="curve" smooth="yes"/>
      <point x="291.291" y="248.88"/>
      <point x="278.422" y="207.911"/>
      <point x="279.306" y="169.629" type="curve" smooth="yes"/>
      <point x="279.627" y="155.835"/>
      <point x="284.848" y="149.111"/>
      <point x="281.338" y="134.958" type="curve" smooth="yes"/>
      <point x="274.319" y="106.486"/>
      <point x="242.604" y="79.625"/>
      <point x="222.967" y="56.4424" type="curve" smooth="yes"/>
      <point x="207.804" y="38.5742"/>
      <point x="180.69" y="19.4746"/>
      <point x="162.393" y="3.68652" type="curve" smooth="yes"/>
      <point x="131.718" y="-22.7803"/>
      <point x="101.789" y="-24.7041"/>
      <point x="72.4277" y="-51.8799" type="curve" smooth="yes"/>
      <point x="65.0332" y="-58.7295"/>
      <point x="50.5908" y="-68.623"/>
      <point x="41" y="-58" type="curve" smooth="yes"/>
      <point x="27.417" y="-42.9443"/>
      <point x="58.4658" y="-42.4512"/>
      <point x="59.3311" y="-28.4805" type="curve" smooth="yes"/>
      <point x="60.4824" y="-9.89551"/>
      <point x="53.3721" y="11.7568"/>
      <point x="50.5586" y="30.3818" type="curve" smooth="yes"/>
      <point x="44.7188" y="69.1475"/>
      <point x="45.5732" y="109.005"/>
      <point x="42.1982" y="148.113" type="curve" smooth="yes"/>
      <point x="40.5908" y="166.882"/>
      <point x="51.4404" y="213.526"/>
      <point x="36.5723" y="229.509" type="curve"/>
      <point x="36.5723" y="231.689" type="line"/>
      <point x="41.9316" y="246.949" type="line"/>
      <point x="39.252" y="246.949" type="line"/>
      <point x="39.252" y="242.588" type="line"/>
      <point x="36.5723" y="242.588" type="line"/>
      <point x="33.8926" y="251.31" type="line"/>
      <point x="53.7441" y="261.785"/>
      <point x="31.3223" y="273.271"/>
      <point x="41.9316" y="285.731" type="curve"/>
      <point x="20.2314" y="302.625"/>
      <point x="62.9883" y="364.982"/>
      <point x="90.1533" y="368.575" type="curve"/>
      <point x="84.7939" y="375.117" type="line"/>
      <point x="121.373" y="435.404" type="line"/>
      <point x="121.373" y="435.404"/>
      <point x="141.806" y="444.107"/>
      <point x="162.246" y="467.577" type="curve" smooth="yes"/>
      <point x="214" y="527"/>
      <point x="272.006" y="492.283"/>
    </contour>
    <contour>
      <point x="242.637" y="478.382" type="curve"/>
      <point x="220.722" y="460.028"/>
      <point x="168.098" y="431.281"/>
      <point x="157.516" y="408.798" type="curve" smooth="yes"/>
      <point x="145.165" y="382.562"/>
      <point x="131.865" y="378.789"/>
      <point x="116.46" y="353.324" type="curve" smooth="yes"/>
      <point x="104.619" y="333.728"/>
      <point x="80.1631" y="335.037"/>
      <point x="79.4404" y="307.533" type="curve"/>
      <point x="99.7471" y="312.569"/>
      <point x="113.941" y="316.156"/>
      <point x="128.757" y="327.585" type="curve" smooth="yes"/>
      <point x="150.912" y="344.674"/>
      <point x="218.19" y="368.993"/>
      <point x="233.461" y="391.289" type="curve" smooth="yes"/>
      <point x="248.731" y="413.559"/>
      <point x="246.87" y="454.048"/>
    </contour>
    <contour>
      <point x="236.996" y="373.474" type="line"/>
      <point x="219.823" y="371.27"/>
      <point x="166.219" y="345.751"/>
      <point x="153.601" y="336.391" type="curve" smooth="yes"/>
      <point x="109.236" y="303.471"/>
      <point x="75.9033" y="280.318"/>
      <point x="78.877" y="231.689" type="curve" smooth="yes"/>
      <point x="79.7344" y="217.656"/>
      <point x="68.7734" y="190.959"/>
      <point x="84.7939" y="181.545" type="curve"/>
      <point x="70.0322" y="173.641"/>
      <point x="73.3584" y="136.951"/>
      <point x="74.0811" y="124.124" type="curve" smooth="yes"/>
      <point x="71.5361" y="103.067"/>
      <point x="60.2197" y="87.1934"/>
      <point x="70.7607" y="52.1826" type="curve" smooth="yes"/>
      <point x="70.8418" y="45.5117"/>
      <point x="70.418" y="13.5674"/>
      <point x="80.5986" y="10.7666" type="curve" smooth="yes"/>
      <point x="97.9053" y="6.00586"/>
      <point x="91.1055" y="-7.07812"/>
      <point x="102" y="2" type="curve" smooth="yes"/>
      <point x="153.718" y="45.0977"/>
      <point x="208" y="81"/>
      <point x="233.739" y="109.304" type="curve" smooth="yes"/>
      <point x="247.372" y="124.295"/>
      <point x="246.434" y="151.772"/>
      <point x="247.077" y="164.369" type="curve" smooth="yes"/>
      <point x="248.55" y="194.404"/>
      <point x="259.509" y="228.016"/>
      <point x="250.748" y="257.931" type="curve"/>
      <point x="245.389" y="257.931" type="line"/>
      <point x="234.676" y="245.31" type="line"/>
      <point x="236.146" y="281.912" type="line"/>
    </contour>
  </outline>
</glyph>
<glyph name="uni043F" format="2">
  <advance width="349"/>
  <unicode hex="043F"/>
  <outline>
    <contour>
      <point x="99" y="497" type="curve"/>
      <point x="98.999" y="497" type="line"/>
      <point x="144.604" y="480.262"/>
      <point x="170.822" y="480.026"/>
      <point x="224.34" y="479.899" type="curve" smooth="yes"/>
      <point x="257.55" y="479.817"/>
      <point x="280.741" y="508.236"/>
      <point x="307.828" y="483.339" type="curve" smooth="yes"/>
      <point x="316.399" y="475.463"/>
      <point x="306.006" y="468.21"/>
      <point x="303.796" y="460.038" type="curve" smooth="yes"/>
      <point x="299.914" y="445.723"/>
      <point x="299.261" y="422.121"/>
      <point x="308.937" y="409.279" type="curve"/>
      <point x="294.512" y="397.544"/>
      <point x="296.528" y="366.873"/>
      <point x="307.937" y="354.111" type="curve"/>
      <point x="287.419" y="339.279"/>
      <point x="295.87" y="298.603"/>
      <point x="298.826" y="279.077" type="curve" smooth="yes"/>
      <point x="304.053" y="244.569"/>
      <point x="295.754" y="207.82"/>
      <point x="295.187" y="173.153" type="curve" smooth="yes"/>
      <point x="294.921" y="155.932"/>
      <point x="301.068" y="134.344"/>
      <point x="294.976" y="117.98" type="curve"/>
      <point x="303.938" y="117.98" type="line"/>
      <point x="303.938" y="115.773" type="line"/>
      <point x="286.048" y="102.455"/>
      <point x="296.204" y="47.9053"/>
      <point x="297.638" y="28.7744" type="curve" smooth="yes"/>
      <point x="298.324" y="19.5322"/>
      <point x="307.702" y="5.67773"/>
      <point x="296.204" y="-2.01758" type="curve" smooth="yes"/>
      <point x="287.453" y="-7.87695"/>
      <point x="282.355" y="-1.11621"/>
      <point x="280.025" y="5.47754" type="curve" smooth="yes"/>
      <point x="273.455" y="24.0176"/>
      <point x="270.439" y="52.2627"/>
      <point x="270.11" y="71.6367" type="curve" smooth="yes"/>
      <point x="269.006" y="141.067"/>
      <point x="271.635" y="209.747"/>
      <point x="267.394" y="279.081" type="curve" smooth="yes"/>
      <point x="266.169" y="298.894"/>
      <point x="275.547" y="338.23"/>
      <point x="259.181" y="354.111" type="curve"/>
      <point x="260.181" y="356.318" type="line"/>
      <point x="260.181" y="358.525" type="line"/>
      <point x="267.767" y="366.212"/>
      <point x="272.695" y="409.339"/>
      <point x="259.495" y="415.328" type="curve" smooth="yes"/>
      <point x="247.579" y="420.736"/>
      <point x="229.18" y="414.798"/>
      <point x="216.636" y="414.214" type="curve" smooth="yes"/>
      <point x="182.5" y="412.622"/>
      <point x="147.444" y="404.309"/>
      <point x="117.34" y="390.456" type="curve" smooth="yes"/>
      <point x="100.944" y="382.916"/>
      <point x="102.365" y="363.317"/>
      <point x="99.1396" y="349.696" type="curve" smooth="yes"/>
      <point x="87.6709" y="301.365"/>
      <point x="90.7461" y="252.809"/>
      <point x="87.4316" y="204.047" type="curve" smooth="yes"/>
      <point x="86.2666" y="187.017"/>
      <point x="79.6367" y="158.309"/>
      <point x="94.9873" y="144.464" type="curve"/>
      <point x="85.3115" y="117.396"/>
      <point x="98.3662" y="96.4092"/>
      <point x="99.4707" y="69.4336" type="curve" smooth="yes"/>
      <point x="100.128" y="54.0547"/>
      <point x="86.1475" y="49.4463"/>
      <point x="84.1758" y="37.3926" type="curve" smooth="yes"/>
      <point x="81.8467" y="23.1191"/>
      <point x="92.4189" y="10.3037"/>
      <point x="85.3408" y="-5.55859" type="curve" smooth="yes"/>
      <point x="80.8613" y="-15.5801"/>
      <point x="68.3486" y="-20.4863"/>
      <point x="60.3447" y="-9.4873" type="curve" smooth="yes"/>
      <point x="47.9502" y="7.5625"/>
      <point x="57.3828" y="29.3203"/>
      <point x="57.0547" y="47.3652" type="curve" smooth="yes"/>
      <point x="56.2168" y="93.8535"/>
      <point x="59.2373" y="140.346"/>
      <point x="56.4893" y="186.393" type="curve" smooth="yes"/>
      <point x="55.5332" y="202.854"/>
      <point x="73.9316" y="247.071"/>
      <point x="53.2051" y="257.013" type="curve"/>
      <point x="67.1221" y="283.377"/>
      <point x="70.1064" y="315.729"/>
      <point x="71.1221" y="345.282" type="curve" smooth="yes"/>
      <point x="71.4209" y="353.54"/>
      <point x="77.1436" y="356.624"/>
      <point x="63.166" y="357.973" type="curve"/>
      <point x="72.1855" y="375.384"/>
      <point x="84.5479" y="426.948"/>
      <point x="75.0801" y="444.005" type="curve" smooth="yes"/>
      <point x="67.3457" y="457.919"/>
      <point x="25.3848" y="465.083"/>
      <point x="33.0898" y="483.259" type="curve" smooth="yes"/>
      <point x="41.6914" y="503.627"/>
      <point x="83.5605" y="469.256"/>
    </contour>
    <contour>
      <point x="164.511" y="458.616" type="curve" smooth="yes"/>
      <point x="153.034" y="458.659"/>
      <point x="142.814" y="442.234"/>
      <point x="132.093" y="441.055" type="curve" smooth="yes"/>
      <point x="119.52" y="439.671"/>
      <point x="118.711" y="424.569"/>
      <point x="126.924" y="419.332" type="curve" smooth="yes"/>
      <point x="138.393" y="412.001"/>
      <point x="153.522" y="433.062"/>
      <point x="166.693" y="433.383" type="curve" smooth="yes"/>
      <point x="200.381" y="434.206"/>
      <point x="225.117" y="420.115"/>
      <point x="256.953" y="426.688" type="curve" smooth="yes"/>
      <point x="264.091" y="428.165"/>
      <point x="268.572" y="434.736"/>
      <point x="260.181" y="435.763" type="curve"/>
      <point x="274.688" y="457.209"/>
      <point x="190.839" y="460.688"/>
    </contour>
  </outline>
</glyph>
<glyph name="uni0440" format="2">
  <advance width="315"/>
  <unicode hex="0440"/>
  <outline>
    <contour>
      <point x="243.119" y="493.545" type="curve" smooth="yes"/>
      <point x="243.12" y="493.545" type="line" smooth="yes"/>
      <point x="257.458" y="492.752"/>
      <point x="268.302" y="485.112"/>
      <point x="266.497" y="473.987" type="curve"/>
      <point x="298.036" y="461.141"/>
      <point x="267.159" y="448.767"/>
      <point x="264.042" y="430.325" type="curve" smooth="yes"/>
      <point x="257.262" y="390.508"/>
      <point x="245.389" y="378.27"/>
      <point x="251.612" y="337.626" type="curve" smooth="yes"/>
      <point x="253.782" y="323.593"/>
      <point x="274.447" y="297.309"/>
      <point x="263.779" y="285.66" type="curve" smooth="yes"/>
      <point x="252.548" y="273.398"/>
      <point x="227.579" y="275.736"/>
      <point x="211.22" y="271.149" type="curve" smooth="yes"/>
      <point x="185.983" y="264.081"/>
      <point x="197.535" y="247.74"/>
      <point x="181.581" y="232.784" type="curve"/>
      <point x="179.007" y="236.9" type="line"/>
      <point x="176.221" y="237.046" type="line"/>
      <point x="172.807" y="223.631"/>
      <point x="179.935" y="225.232"/>
      <point x="159.937" y="222.124" type="curve"/>
      <point x="162.096" y="210.556"/>
      <point x="123.417" y="197.41"/>
      <point x="107.079" y="194.318" type="curve" smooth="yes"/>
      <point x="100.479" y="196.925"/>
      <point x="99.9043" y="183.793"/>
      <point x="95.668" y="180.047" type="curve" smooth="yes"/>
      <point x="85.0938" y="162.208"/>
      <point x="102.004" y="164.477"/>
      <point x="98.9287" y="153.339" type="curve" smooth="yes"/>
      <point x="95.8008" y="142.013"/>
      <point x="90.124" y="127.222"/>
      <point x="106.513" y="119.028" type="curve"/>
      <point x="106.408" y="117.043" type="line"/>
      <point x="97.2188" y="113.353"/>
      <point x="98.1211" y="108.618"/>
      <point x="100.009" y="101.456" type="curve"/>
      <point x="93.8945" y="92.4873"/>
      <point x="96.373" y="-7.13281"/>
      <point x="104.505" y="-15.6357" type="curve"/>
      <point x="104.4" y="-17.6211" type="line"/>
      <point x="73.1543" y="-38.1055"/>
      <point x="72.4932" y="-35.79"/>
      <point x="49.5117" y="-6.78516" type="curve"/>
      <point x="64.1396" y="0.977539"/>
      <point x="59.8418" y="30.3643"/>
      <point x="60.4785" y="42.499" type="curve" smooth="yes"/>
      <point x="58.5078" y="52.4648"/>
      <point x="62.3223" y="75.4902"/>
      <point x="61.1953" y="86.3984" type="curve" smooth="yes"/>
      <point x="58.9424" y="88.6729"/>
      <point x="62.1865" y="92.3975"/>
      <point x="61.7158" y="96.3262" type="curve" smooth="yes"/>
      <point x="59.5781" y="114.177"/>
      <point x="59.2041" y="134.916"/>
      <point x="58.0986" y="150.605" type="curve" smooth="yes"/>
      <point x="56.1074" y="178.186"/>
      <point x="56.2666" y="187.995"/>
      <point x="60.374" y="215.349" type="curve" smooth="yes"/>
      <point x="70.8018" y="284.78"/>
      <point x="56.2783" y="315.766"/>
      <point x="60.5566" y="386.22" type="curve" smooth="yes"/>
      <point x="62.1338" y="412.58"/>
      <point x="52.2959" y="439.688"/>
      <point x="53.1562" y="466.226" type="curve" smooth="yes"/>
      <point x="53.4062" y="474.19"/>
      <point x="51.0762" y="486.801"/>
      <point x="59" y="493" type="curve" smooth="yes"/>
      <point x="83.9062" y="512.461"/>
      <point x="100.788" y="478.457"/>
      <point x="123.821" y="482.428" type="curve"/>
      <point x="136.99" y="471.429"/>
      <point x="207.652" y="465.788"/>
      <point x="226.776" y="472.446" type="curve" smooth="yes"/>
      <point x="236.792" y="475.92"/>
      <point x="228.101" y="478.977"/>
      <point x="234.262" y="485.139" type="curve" smooth="yes"/>
      <point x="236.685" y="491.473" type="line"/>
      <point x="236.789" y="493.459" type="line" smooth="yes"/>
      <point x="238.953" y="493.635"/>
      <point x="241.071" y="493.652"/>
    </contour>
    <contour>
      <point x="99.9727" y="453.818" type="curve"/>
      <point x="79.7793" y="447.005"/>
      <point x="101.494" y="428.518"/>
      <point x="89.6357" y="416.542" type="curve"/>
      <point x="107.392" y="403.514"/>
      <point x="103.734" y="359.765"/>
      <point x="105.189" y="340.094" type="curve"/>
      <point x="102.403" y="340.239" type="line"/>
      <point x="97.1416" y="346.483" type="line"/>
      <point x="93.9385" y="338.692" type="line"/>
      <point x="93.835" y="336.707" type="line"/>
      <point x="102.195" y="336.269" type="line"/>
      <point x="86.1914" y="316.628"/>
      <point x="96.3525" y="315.256"/>
      <point x="94.6338" y="293.365" type="curve" smooth="yes"/>
      <point x="93.3311" y="276.768"/>
      <point x="94.3818" y="250.372"/>
      <point x="104.111" y="225.829" type="curve"/>
      <point x="138.552" y="252.896"/>
      <point x="151.299" y="255.023"/>
      <point x="190.403" y="279.497" type="curve" smooth="yes"/>
      <point x="204.181" y="288.119"/>
      <point x="212.771" y="301.821"/>
      <point x="220.063" y="311.959" type="curve" smooth="yes"/>
      <point x="232.871" y="329.791"/>
      <point x="222.555" y="374.978"/>
      <point x="223.388" y="395.682" type="curve" smooth="yes"/>
      <point x="223.857" y="406.783"/>
      <point x="235.729" y="438.103"/>
      <point x="226.563" y="446.079" type="curve" smooth="yes"/>
      <point x="220.311" y="451.498"/>
      <point x="201.419" y="448.192"/>
      <point x="192.583" y="449.652" type="curve" smooth="yes"/>
      <point x="159.43" y="455.139"/>
      <point x="123.477" y="434.247"/>
    </contour>
  </outline>
</glyph>
